STARTFONT 2.3
FONT -FontForge-Roboto Medium-Medium-R-Normal--36-360-72-72-P-204-ISO10646-1
SIZE 36 72 72  4
FONTBOUNDINGBOX 69 47 -27 -9
COMMENT "Generated by fontforge, http://fontforge.sourceforge.net"
COMMENT "Copyright 2011 Google Inc. All Rights Reserved."
STARTPROPERTIES 42
FOUNDRY "FontForge"
FAMILY_NAME "Roboto Medium"
WEIGHT_NAME "Medium"
SLANT "R"
SETWIDTH_NAME "Normal"
ADD_STYLE_NAME ""
PIXEL_SIZE 36
POINT_SIZE 360
RESOLUTION_X 72
RESOLUTION_Y 72
SPACING "P"
AVERAGE_WIDTH 204
CHARSET_REGISTRY "ISO10646"
CHARSET_ENCODING "1"
FONTNAME_REGISTRY ""
CHARSET_COLLECTIONS "ISO8859-2 ISO8859-5 ISO8859-7 ISO8859-9 ISO8859-4 ISO10646-1"
BITS_PER_PIXEL 4
FONT_NAME "Roboto-Medium"
FACE_NAME "Roboto Medium"
COPYRIGHT "Copyright 2011 Google Inc. All Rights Reserved."
FONT_VERSION "2.137; 2017"
FONT_ASCENT 27
FONT_DESCENT 9
UNDERLINE_POSITION -4
UNDERLINE_THICKNESS 2
X_HEIGHT 18
CAP_HEIGHT 25
DEFAULT_CHAR 1
RAW_ASCENT 750
RAW_DESCENT 250
NORM_SPACE 9
RELATIVE_WEIGHT 50
RELATIVE_SETWIDTH 50
SUPERSCRIPT_X 0
SUPERSCRIPT_Y 17
SUPERSCRIPT_SIZE 23
SUBSCRIPT_X 0
SUBSCRIPT_Y 5
SUBSCRIPT_SIZE 23
FIGURE_WIDTH 20
AVG_LOWERCASE_WIDTH 199
AVG_UPPERCASE_WIDTH 239
ENDPROPERTIES
CHARS 1296
STARTCHAR glyph1.dup1
ENCODING 0
SWIDTH 0 0
DWIDTH 0 0
BBX 1 1 0 0
BITMAP
00
ENDCHAR
STARTCHAR uni0002
ENCODING 2
SWIDTH 0 0
DWIDTH 0 0
BBX 1 1 0 0
BITMAP
00
ENDCHAR
STARTCHAR uni000D
ENCODING 13
SWIDTH 249 0
DWIDTH 9 0
BBX 1 1 0 0
BITMAP
00
ENDCHAR
STARTCHAR space
ENCODING 32
SWIDTH 249 0
DWIDTH 9 0
BBX 1 1 0 0
BITMAP
00
ENDCHAR
STARTCHAR exclam
ENCODING 33
SWIDTH 268 0
DWIDTH 10 0
BBX 6 26 2 0
BITMAP
5FFFF2
5FFFF2
5FFFF1
4FFFF1
4FFFF1
4FFFF0
3FFFF0
3FFFF0
3FFFE0
2FFFE0
2FFFD0
2FFFD0
1FFFD0
1FFFC0
1FFFC0
0FFFC0
0FFFB0
0FFFB0
000000
000000
000000
038820
2FFFE1
6FFFF5
5FFFF3
09EE70
ENDCHAR
STARTCHAR quotedbl
ENCODING 34
SWIDTH 324 0
DWIDTH 12 0
BBX 10 9 1 18
BITMAP
3FFC00EFF2
3FFC00EFF2
3FFC00EFF2
3FFB00EFF0
3FF900EFE0
3FF800EFD0
3FF700EFB0
3FF500EFA0
3FF400EF80
ENDCHAR
STARTCHAR numbersign
ENCODING 35
SWIDTH 610 0
DWIDTH 22 0
BBX 21 26 1 0
BITMAP
00000000EFF1000FFE0000
00000001FFD0003FFB0000
00000004FFB0005FF90000
00000006FF80008FF60000
00000009FF5000AFF40000
0000000BFF3000DFF10000
0000000EFF0001FFE00000
0000001FFD0003FFB00000
00FFFFFFFFFFFFFFFFFF50
00FFFFFFFFFFFFFFFFFF50
00CCCCEFFDCCCFFFCCCC40
000000DFF2000EFF000000
000001FFE0002FFC000000
000004FFB0005FF9000000
000006FF80008FF6000000
000009FF5000BFF3000000
5FFFFFFFFFFFFFFFFFF000
5FFFFFFFFFFFFFFFFFF000
4CCCDFFECCCDFFECCCC000
00006FF90007FF70000000
00009FF6000AFF40000000
0000BFF3000DFF10000000
0000EFF0001FFD00000000
0002FFC0004FFA00000000
0005FFA0006FF800000000
0008FF70009FF500000000
ENDCHAR
STARTCHAR dollar
ENCODING 36
SWIDTH 568 0
DWIDTH 20 0
BBX 18 34 1 -4
BITMAP
000000008CC2000000
00000000AFF2000000
00000000AFF2000000
00000000AFF2000000
0000039DFFFEA40000
00009FFFFFFFFFA100
000AFFFFFFFFFFFB00
006FFFFE978EFFFF70
00DFFFC10001DFFFD0
01FFFF4000005FFFF3
03FFFF1000000EFFF6
03FFFF2000000CFFF8
01FFFF600000023331
00CFFFE30000000000
005FFFFF9200000000
000AFFFFFFB5000000
00009FFFFFFFE70000
000004BFFFFFFFC200
000000039EFFFFFE20
00000000016DFFFFC0
000000000001BFFFF3
0000000000001EFFF8
3FFFF10000000BFFF9
2FFFF30000000AFFF9
0EFFF90000000DFFF8
09FFFF5000019FFFF4
02EFFFFC879DFFFFC0
005FFFFFFFFFFFFE30
0005EFFFFFFFFFD300
000016BEFFFDA50000
00000000FFC0000000
00000000FFC0000000
00000000FFC0000000
000000006650000000
ENDCHAR
STARTCHAR percent
ENCODING 37
SWIDTH 734 0
DWIDTH 26 0
BBX 24 26 1 0
BITMAP
0006CEFD8100000000000000
00AFFFFFFD20000000000000
08FFFAAEFFC0000000000000
0EFF5001EFF400001C500000
3FFD00008FF800009FF50000
4FFB00006FF90003FFB00000
4FFB00006FF9000CFF200000
3FFD00008FF8007FF8000000
0EFF5001EFF502FFD0000000
08FFFA9EFFD00BFF40000000
00BFFFFFFD206FF900000000
0006BEFD8101EFE100000000
00000000000AFF5000000000
00000000004FFB0000000000
0000000001DFE203AEFEA300
0000000008FF706FFFFFFF60
000000003FFC03FFFC9CFFF3
00000000CFF30AFF9000AFF9
00000007FF800DFF20003FFC
0000002EFD100EFF10001FFD
000000BFF4000EFF10001FFE
000005FFA0000DFF20003FFD
00000DFE10000AFF90009FF9
000002A6000003FFFC9CFFF3
000000000000007FFFFFFF60
0000000000000004AEFEA300
ENDCHAR
STARTCHAR ampersand
ENCODING 38
SWIDTH 639 0
DWIDTH 23 0
BBX 22 26 1 0
BITMAP
0000018CEFEA5000000000
00004EFFFFFFFB10000000
0003FFFFFFFFFFA0000000
000CFFFF97AFFFF4000000
002FFFF40007FFF9000000
004FFFB00001FFFB000000
005FFFA00001FFF9000000
004FFFD00007FFF6000000
000EFFF6006FFFD0000000
0007FFFE3BFFFF40000000
0001DFFFFFFFE400000000
00003FFFFFFB2000000000
00004EFFFFC00000000000
0007FFFFFFF60000366610
009FFFFDFFFF40008FFF30
06FFFF61CFFFE2009FFF20
0EFFF8002EFFFD10DFFF00
4FFFE10003EFFFB3FFFC00
7FFFC000005FFFFEFFF700
6FFFD0000007FFFFFFF200
4FFFF30000009FFFFF9000
0EFFFD2000007FFFFF3000
07FFFFE9779EFFFFFFC100
00AFFFFFFFFFFFFFFFFB00
0008FFFFFFFFFFB8FFFF80
000027BEFFEB83009FFFF6
ENDCHAR
STARTCHAR quotesingle
ENCODING 39
SWIDTH 168 0
DWIDTH 6 0
BBX 4 9 1 18
BITMAP
8FFA
8FFA
8FFA
8FF9
8FF8
8FF7
8FF6
8FF5
8FF4
ENDCHAR
STARTCHAR parenleft
ENCODING 40
SWIDTH 348 0
DWIDTH 13 0
BBX 10 37 2 -8
BITMAP
00000002B2
0000003EF8
000003EFFA
00002EFFB1
0000BFFD10
0006FFF400
001EFFA000
007FFF3000
00DFFB0000
04FFF60000
09FFF20000
0DFFD00000
2FFFA00000
5FFF700000
7FFF500000
9FFF400000
AFFF300000
BFFF200000
BFFF200000
BFFF300000
AFFF300000
9FFF400000
7FFF600000
5FFF700000
2FFFA00000
0DFFD00000
09FFF20000
04FFF60000
00DFFB0000
007FFF3000
001EFFA000
0006FFF300
0000BFFD10
00002EFFA0
000003EFF9
0000003EF8
00000002B3
ENDCHAR
STARTCHAR parenright
ENCODING 41
SWIDTH 352 0
DWIDTH 13 0
BBX 11 37 0 -8
BITMAP
096000000000
0EFA00000000
2EFFB0000000
04FFF9000000
006FFF400000
000BFFD10000
0002FFF80000
0000AFFF1000
00004FFF7000
00000DFFD000
000009FFF300
000005FFF700
000002FFFB00
000000EFFE00
000000CFFF20
000000BFFF30
000000AFFF50
0000009FFF60
0000009FFF60
0000009FFF60
000000AFFF50
000000AFFF40
000000CFFF20
000000EFFE00
000002FFFC00
000005FFF800
000008FFF400
00000DFFE000
00003FFF8000
00009FFF2000
0002EFF80000
000AFFE10000
005FFF500000
03EFF9000000
2EFFB0000000
1EFA00000000
096000000000
ENDCHAR
STARTCHAR asterisk
ENCODING 42
SWIDTH 441 0
DWIDTH 16 0
BBX 16 15 0 11
BITMAP
0000007FF9000000
0000007FF9000000
0000006FF8000000
0000005FF7000000
0A93005FF70038A0
1FFFC75FF76CFFF1
6FFFFFFFFFFFFFF6
048CFFFFFFFFD840
000029FFFF820000
00001DFFFFC00000
0000BFF8CFF90000
0008FFD13FFF5000
005FFF4008FFE200
004EFA0001DFE300
00019100004B1000
ENDCHAR
STARTCHAR plus
ENCODING 43
SWIDTH 557 0
DWIDTH 20 0
BBX 18 20 1 2
BITMAP
000000022220000000
0000001FFFF1000000
0000001FFFF1000000
0000001FFFF1000000
0000001FFFF1000000
0000001FFFF1000000
0000001FFFF1000000
0000001FFFF1000000
CFFFFFFFFFFFFFFFFB
CFFFFFFFFFFFFFFFFB
CFFFFFFFFFFFFFFFFB
BEEEEEEFFFFEEEEEEA
0000001FFFF1000000
0000001FFFF1000000
0000001FFFF1000000
0000001FFFF1000000
0000001FFFF1000000
0000001FFFF1000000
0000001FFFF1000000
000000188880000000
ENDCHAR
STARTCHAR comma
ENCODING 44
SWIDTH 219 0
DWIDTH 8 0
BBX 7 11 0 -6
BITMAP
00122200
00BFFF20
00BFFF20
00BFFF20
00BFFF10
00DFFE00
01FFF900
07FFF300
1EFFA000
3EFD1000
01820000
ENDCHAR
STARTCHAR hyphen
ENCODING 45
SWIDTH 328 0
DWIDTH 12 0
BBX 10 4 1 9
BITMAP
BFFFFFFFF7
BFFFFFFFF7
BFFFFFFFF7
5777777773
ENDCHAR
STARTCHAR period
ENCODING 46
SWIDTH 279 0
DWIDTH 10 0
BBX 6 5 2 0
BITMAP
059920
4FFFE1
9FFFF4
7FFFF2
0AEE60
ENDCHAR
STARTCHAR slash
ENCODING 47
SWIDTH 395 0
DWIDTH 14 0
BBX 14 28 0 -2
BITMAP
0000000001FFF4
0000000007FFE0
000000000CFF90
000000002FFF30
000000008FFD00
00000000DFF700
00000003FFF200
00000009FFC000
0000000EFF6000
0000005FFF1000
000000AFFA0000
000001FFF50000
000006FFE00000
00000BFF900000
00002FFF400000
00007FFD000000
0000CFF8000000
0003FFF3000000
0008FFC0000000
000EFF70000000
004FFF10000000
009FFB00000000
01EFF600000000
05FFE100000000
0BFFA000000000
1FFF4000000000
6FFE0000000000
CFF90000000000
ENDCHAR
STARTCHAR zero
ENCODING 48
SWIDTH 568 0
DWIDTH 20 0
BBX 18 26 1 0
BITMAP
0000049DEFDB710000
0001BFFFFFFFFE5000
001CFFFFFFFFFFF500
008FFFFC87AFFFFE10
01FFFF900003EFFF80
06FFFD0000007FFFD0
0BFFF80000002FFFF2
0DFFF50000000DFFF5
0FFFF30000000BFFF7
1FFFF20000000BFFF8
2FFFF10000000AFFF9
2FFFF10000000AFFF9
2FFFF10000000AFFF9
2FFFF10000000AFFF9
2FFFF10000000AFFF9
2FFFF10000000AFFF9
1FFFF20000000BFFF8
0FFFF30000000BFFF7
0DFFF50000000DFFF4
0AFFF80000002FFFF2
06FFFE0000007FFFD0
01EFFF900003EFFF70
007FFFFC779FFFFE10
000BFFFFFFFFFFF400
0001AFFFFFFFFE4000
0000049DEFDB710000
ENDCHAR
STARTCHAR one
ENCODING 49
SWIDTH 568 0
DWIDTH 20 0
BBX 12 26 2 0
BITMAP
0000000016C7
00000039EFF7
00016CFFFFF7
039EFFFFFFF7
1FFFFFFFFFF7
1FFFFE9DFFF7
1FFB510CFFF7
0610000CFFF7
0000000CFFF7
0000000CFFF7
0000000CFFF7
0000000CFFF7
0000000CFFF7
0000000CFFF7
0000000CFFF7
0000000CFFF7
0000000CFFF7
0000000CFFF7
0000000CFFF7
0000000CFFF7
0000000CFFF7
0000000CFFF7
0000000CFFF7
0000000CFFF7
0000000CFFF7
0000000CFFF7
ENDCHAR
STARTCHAR two
ENCODING 50
SWIDTH 568 0
DWIDTH 20 0
BBX 19 26 1 0
BITMAP
000006ADFFEB71000000
0004DFFFFFFFFF700000
006FFFFFFFFFFFF80000
03FFFFFA77AFFFFF4000
0CFFFE300004FFFFA000
3FFFF50000009FFFE000
6FFFE00000004FFFF100
8FFFB00000003FFFF100
1222100000004FFFE000
0000000000009FFFA000
000000000002EFFF5000
00000000000BFFFC0000
00000000008FFFF30000
0000000005FFFF700000
000000004FFFFA000000
00000003EFFFC1000000
0000002EFFFD10000000
000002DFFFD200000000
00001DFFFE2000000000
0001CFFFE30000000000
000BFFFE400000000000
00AFFFF4000000000000
08FFFFB6666666666610
1FFFFFFFFFFFFFFFFF20
1FFFFFFFFFFFFFFFFF20
1FFFFFFFFFFFFFFFFF20
ENDCHAR
STARTCHAR three
ENCODING 51
SWIDTH 568 0
DWIDTH 20 0
BBX 18 26 1 0
BITMAP
000016BDFEDA610000
0006EFFFFFFFFE5000
008FFFFFFFFFFFF500
05FFFFFA77AFFFFE20
0DFFFD200004FFFF80
3FFFF40000009FFFC0
5FFFE00000006FFFE0
0000000000004FFFF0
0000000000007FFFC0
000000000001DFFF60
00000000026EFFFB00
000002FFFFFFFFB100
000002FFFFFFF80000
000002FFFFFFFFA100
0000016667AFFFFD10
000000000003EFFF90
0000000000005FFFF1
0000000000000FFFF4
2333200000000EFFF5
8FFFB00000000FFFF4
6FFFE10000004FFFF2
2FFFFB100002DFFFC0
09FFFFE967AFFFFF40
01BFFFFFFFFFFFF700
0008FFFFFFFFFE5000
000028BEFEDA610000
ENDCHAR
STARTCHAR four
ENCODING 52
SWIDTH 568 0
DWIDTH 20 0
BBX 20 26 0 0
BITMAP
000000000005FFFF5000
00000000001EFFFF5000
00000000009FFFFF5000
0000000003FFFFFF5000
000000000CFFFFFF5000
000000007FFFFFFF5000
00000002EFFBEFFF5000
0000000AFFF2EFFF5000
0000005FFF80EFFF5000
000001DFFD10EFFF5000
000008FFF500EFFF5000
00003FFFB000EFFF5000
0000CFFF2000EFFF5000
0006FFF80000EFFF5000
001EFFD10000EFFF5000
00AFFF400000EFFF5000
04FFFA000000EFFF5000
0DFFFFFFFFFFFFFFFFF8
1FFFFFFFFFFFFFFFFFF8
0FFFFFFFFFFFFFFFFFF8
066666666666EFFF9663
000000000000EFFF5000
000000000000EFFF5000
000000000000EFFF5000
000000000000EFFF5000
000000000000EFFF5000
ENDCHAR
STARTCHAR five
ENCODING 53
SWIDTH 568 0
DWIDTH 20 0
BBX 17 26 2 0
BITMAP
009FFFFFFFFFFFFF30
00BFFFFFFFFFFFFF30
00CFFFFFFFFFFFFF30
00EFFFAAAAAAAAAA20
00FFFE000000000000
02FFFC000000000000
04FFFA000000000000
05FFF9000000000000
07FFF7000000000000
08FFF78CEFDB600000
0AFFFFFFFFFFFD3000
0CFFFFFFFFFFFFE200
0DFFFFB879EFFFFC00
037AC300001BFFFF40
000000000001EFFF90
0000000000008FFFD0
0000000000005FFFE0
0000000000004FFFF0
2333100000005FFFE0
AFFF900000008FFFC0
7FFFD1000001DFFF90
1FFFFA10000AFFFF30
08FFFFD978DFFFFA00
00BFFFFFFFFFFFD100
0008FFFFFFFFFB1000
000028CEFEC9300000
ENDCHAR
STARTCHAR six
ENCODING 54
SWIDTH 568 0
DWIDTH 20 0
BBX 17 26 2 0
BITMAP
000000016ACDF30000
0000019FFFFFF30000
00004EFFFFFFF30000
0005FFFFFFCA820000
003FFFFE8100000000
00CFFFD30000000000
05FFFE200000000000
0CFFF7000000000000
2FFFF1000000000000
6FFFB05ADFEC710000
9FFF9BFFFFFFFD3000
BFFFFFFFFFFFFFE200
CFFFFFE979EFFFFB00
DFFFFA10001BFFFF40
EFFFC0000001EFFF90
EFFF500000009FFFC0
DFFF500000005FFFE0
CFFF600000004FFFE0
AFFF800000005FFFD0
7FFFC00000008FFFB0
2FFFF4000001EFFF70
0AFFFE30001AFFFF20
02EFFFFA78DFFFF800
004EFFFFFFFFFFB000
0003DFFFFFFFF90000
000006BDFEC8200000
ENDCHAR
STARTCHAR seven
ENCODING 55
SWIDTH 568 0
DWIDTH 20 0
BBX 18 26 1 0
BITMAP
CFFFFFFFFFFFFFFFFE
CFFFFFFFFFFFFFFFFE
CFFFFFFFFFFFFFFFFD
5666666666666CFFF7
0000000000001EFFE1
0000000000007FFF90
000000000000EFFF20
000000000006FFFB00
00000000000DFFF400
00000000005FFFD000
0000000000BFFF6000
0000000003FFFE1000
000000000AFFF80000
000000002FFFF20000
000000008FFFA00000
00000001EFFF400000
00000007FFFC000000
0000000DFFF6000000
0000006FFFE1000000
000000CFFF80000000
000004FFFF20000000
00000BFFFA00000000
00003FFFF300000000
0000AFFFC000000000
0002FFFF5000000000
0008FFFE0000000000
ENDCHAR
STARTCHAR eight
ENCODING 56
SWIDTH 568 0
DWIDTH 20 0
BBX 18 26 1 0
BITMAP
000005ADEFEB710000
0002CFFFFFFFFE6000
002DFFFFFFFFFFF700
00BFFFFC87AFFFFF20
02FFFFA00004FFFF90
07FFFE1000009FFFD0
08FFFC0000005FFFF0
08FFFB0000004FFFE0
06FFFD0000006FFFC0
01EFFF500000DFFF70
008FFFE6103BFFFD10
0009FFFFFFFFFFD200
00007FFFFFFFFC1000
0006EFFFFFFFFFA100
007FFFFB779EFFFC10
04FFFF500002CFFFA0
0BFFF80000003FFFF3
1FFFF30000000CFFF7
2FFFF20000000AFFF9
2FFFF30000000CFFF8
0EFFF80000001FFFF6
0AFFFF400001BFFFF2
03FFFFFB768EFFFF90
006FFFFFFFFFFFFC10
0005EFFFFFFFFF9100
000016ADEFEC820000
ENDCHAR
STARTCHAR nine
ENCODING 57
SWIDTH 568 0
DWIDTH 20 0
BBX 18 26 1 0
BITMAP
000005ADFED9300000
0002CFFFFFFFF90000
002EFFFFFFFFFFA000
00CFFFFB78DFFFF700
06FFFF60000AFFFE10
0CFFF9000000DFFF70
1FFFF30000007FFFC0
4FFFE00000002FFFF0
5FFFD00000000FFFF3
5FFFE00000000EFFF4
4FFFF10000000EFFF5
1FFFF60000002FFFF5
0BFFFD100001CFFFF4
05FFFFD4115DFFFFF3
00BFFFFFFFFFFFFFF2
001CFFFFFFFF9FFFF1
00007EFFFFD52FFFC0
0000003442006FFF90
000000000000BFFF40
000000000005FFFD00
00000000003EFFF600
0000000028FFFFB000
000059ADFFFFFD2000
0000AFFFFFFFC10000
0000AFFFFFE6000000
0000AEDC8400000000
ENDCHAR
STARTCHAR colon
ENCODING 58
SWIDTH 265 0
DWIDTH 10 0
BBX 6 20 2 0
BITMAP
05A820
6FFFD0
AFFFF3
8FFFF1
1AED50
000000
000000
000000
000000
000000
000000
000000
000000
000000
000000
05A820
6FFFD0
AFFFF3
8FFFF1
1AED50
ENDCHAR
STARTCHAR semicolon
ENCODING 59
SWIDTH 237 0
DWIDTH 9 0
BBX 7 26 0 -6
BITMAP
0018A700
00BFFF80
00FFFFD0
00DFFFB0
004CEB20
00000000
00000000
00000000
00000000
00000000
00000000
00000000
00000000
00000000
00000000
00122210
006FFF70
006FFF70
006FFF70
007FFF50
008FFF30
00CFFE00
03FFF800
0AFFE100
1CFF5000
00650000
ENDCHAR
STARTCHAR less
ENCODING 60
SWIDTH 508 0
DWIDTH 18 0
BBX 15 17 1 2
BITMAP
00000000000016A0
000000000018EFC0
0000000039FFFFC0
0000004BFFFFFFC0
00016DFFFFFFFC50
018EFFFFFFE83000
9FFFFFFFB5000000
DFFFFD7200000000
DFFFD50000000000
DFFFFFE830000000
28EFFFFFFC610000
0017DFFFFFFFA400
000005CFFFFFFFB0
00000003AFFFFFC0
00000000028EFFC0
0000000000017DC0
0000000000000040
ENDCHAR
STARTCHAR equal
ENCODING 61
SWIDTH 559 0
DWIDTH 20 0
BBX 16 11 2 6
BITMAP
7FFFFFFFFFFFFFFB
7FFFFFFFFFFFFFFB
7FFFFFFFFFFFFFFB
4888888888888886
0000000000000000
0000000000000000
0000000000000000
7FFFFFFFFFFFFFFB
7FFFFFFFFFFFFFFB
7FFFFFFFFFFFFFFB
4888888888888886
ENDCHAR
STARTCHAR greater
ENCODING 62
SWIDTH 520 0
DWIDTH 19 0
BBX 16 17 2 2
BITMAP
9710000000000000
BFE9300000000000
BFFFFB5000000000
BFFFFFFD71000000
4AFFFFFFFE920000
0016CFFFFFFFB400
0000028DFFFFFFD4
0000000039EFFFF7
00000000039FFFF7
00000017CFFFFFF6
00005BFFFFFFFC50
039EFFFFFFFA3000
AFFFFFFFE7100000
BFFFFFC500000000
BFFFA30000000000
BE81000000000000
3000000000000000
ENDCHAR
STARTCHAR question
ENCODING 63
SWIDTH 486 0
DWIDTH 18 0
BBX 16 26 1 0
BITMAP
00028BEFED940000
007FFFFFFFFFB100
08FFFFFFFFFFFC10
3FFFFFB9AEFFFF70
9FFFF40002DFFFD0
CFFF8000005FFFF1
89993000002FFFF2
00000000003FFFF1
00000000008FFFD0
0000000003EFFF60
000000003EFFFC00
00000003EFFFE200
0000002EFFFE3000
000000CFFFE30000
000004FFFF300000
000009FFF9000000
00000BFFF5000000
00000CFFF3000000
0000000000000000
0000000000000000
0000000000000000
0000017840000000
00000CFFF5000000
00001FFFF9000000
00000EFFF8000000
000005DEA1000000
ENDCHAR
STARTCHAR at
ENCODING 64
SWIDTH 894 0
DWIDTH 32 0
BBX 30 33 1 -8
BITMAP
0000000000059CEFFEC96100000000
0000000018EFFFFFFFFFFF92000000
00000005EFFFFDBAABDFFFFE600000
0000008FFFE7200000026CFFF90000
000008FFF91000000000006FFF8000
00006FFF6000000000000004EFF400
0002EFF600000000000000005FFC00
000BFFA000000000000000000BFF40
003FFE10000004BEFEB6000003FFA0
00AFF8000001AFFFFFFFD30000DFE0
01FFF200000BFFFEBCFFF800008FF3
05FFB000008FFF6000BFF600006FF6
09FF700002FFF60000CFF500004FF8
0CFF400008FFD00000EFF300003FF9
0FFF10000DFF700000FFF200002FF9
1FFF00003FFF300002FFF000002FF9
3FFD00006FFF000003FFE000003FF8
3FFD00008FFD000005FFC000005FF6
3FFD00009FFC000006FFB000008FF3
2FFE00009FFD00000AFFA00000DFE0
1FFF00007FFF20003FFFA00005FF80
0EFF30003FFFB104DFFFE1003EFE20
0BFF60000CFFFFEFFCEFFC89EFF600
08FFA00003EFFFFFC16FFFFFFF7000
03FFF200002AEFC70004BEED920000
00CFF9000000000000000000000000
004FFF400000000000000000000000
000BFFE30000000000000000000000
0001DFFE6000000000000000000000
00002DFFFC6100000038A000000000
000001BFFFFFDBABCEFFF100000000
00000005CFFFFFFFFFFFC200000000
00000000037ADEFEDB830000000000
ENDCHAR
STARTCHAR A
ENCODING 65
SWIDTH 665 0
DWIDTH 24 0
BBX 24 26 0 0
BITMAP
0000000003FFFF2000000000
0000000009FFFF8000000000
000000000EFFFFD000000000
000000005FFFFFF400000000
00000000AFFFFFFA00000000
00000001FFFEFFFE10000000
00000007FFF9AFFF60000000
0000000CFFF45FFFB0000000
0000003FFFE00EFFF2000000
0000008FFF8009FFF8000000
000000EFFF3004FFFD000000
000004FFFD0000EFFF400000
00000AFFF800008FFF900000
00001FFFF200003FFFE10000
00006FFFC000000DFFF60000
0000CFFF70000007FFFB0000
0002FFFFFFFFFFFFFFFF2000
0008FFFFFFFFFFFFFFFF7000
000DFFFFFFFFFFFFFFFFD000
004FFFF9999999999FFFF300
00AFFFB0000000000CFFF900
01EFFF600000000007FFFE10
06FFFF100000000002FFFF50
0BFFFB000000000000CFFFB0
2FFFF60000000000007FFFF2
8FFFF20000000000002FFFF7
ENDCHAR
STARTCHAR B
ENCODING 66
SWIDTH 630 0
DWIDTH 23 0
BBX 19 26 2 0
BITMAP
6FFFFFFFFFEDA7100000
6FFFFFFFFFFFFFF80000
6FFFFFFFFFFFFFFFA000
6FFFF99999ADFFFFF600
6FFFF10000005FFFFD00
6FFFF100000008FFFF10
6FFFF100000004FFFF30
6FFFF100000003FFFF30
6FFFF100000005FFFF10
6FFFF10000001CFFFA00
6FFFF1000026DFFFE200
6FFFFFFFFFFFFFFD3000
6FFFFFFFFFFFFFD30000
6FFFFFFFFFFFFFFF8000
6FFFF4444446BFFFF900
6FFFF100000008FFFF30
6FFFF100000000DFFF90
6FFFF100000000AFFFC0
6FFFF1000000009FFFD0
6FFFF100000000AFFFC0
6FFFF100000002EFFF90
6FFFF10000002CFFFF50
6FFFF988889BFFFFFC00
6FFFFFFFFFFFFFFFE200
6FFFFFFFFFFFFFFB2000
6FFFFFFFFFFEC8300000
ENDCHAR
STARTCHAR C
ENCODING 67
SWIDTH 652 0
DWIDTH 24 0
BBX 22 26 1 0
BITMAP
00000005ADEFEC94000000
000005DFFFFFFFFFC30000
00008FFFFFFFFFFFFF5000
0008FFFFFDA9BEFFFFE300
004FFFFD4000006FFFFC00
00CFFFE200000006FFFF50
04FFFF6000000000DFFFA0
09FFFE00000000008FFFD0
0DFFFA00000000004CCCC1
0FFFF70000000000000000
2FFFF50000000000000000
3FFFF40000000000000000
3FFFF40000000000000000
3FFFF40000000000000000
3FFFF40000000000000000
2FFFF50000000000000000
1FFFF70000000000000000
0DFFF900000000004AAAA1
09FFFE00000000008FFFE0
04FFFF5000000000DFFFA0
00DFFFD100000006FFFF50
005FFFFD3000006FFFFD00
0009FFFFFCA9BEFFFFF300
0000AFFFFFFFFFFFFF5000
000006EFFFFFFFFFC20000
00000016ADFFEC83000000
ENDCHAR
STARTCHAR D
ENCODING 68
SWIDTH 653 0
DWIDTH 24 0
BBX 20 26 2 0
BITMAP
6FFFFFFFFEC830000000
6FFFFFFFFFFFFC400000
6FFFFFFFFFFFFFF80000
6FFFF9999BEFFFFF8000
6FFFF1000005DFFFF600
6FFFF10000001DFFFE10
6FFFF100000003FFFF80
6FFFF1000000009FFFE0
6FFFF1000000004FFFF3
6FFFF1000000001FFFF6
6FFFF1000000000DFFF9
6FFFF1000000000CFFFA
6FFFF1000000000CFFFA
6FFFF1000000000CFFFA
6FFFF1000000000CFFFA
6FFFF1000000000DFFF9
6FFFF1000000001FFFF6
6FFFF1000000004FFFF3
6FFFF100000000AFFFE0
6FFFF100000003FFFF80
6FFFF10000002DFFFE10
6FFFF1000005EFFFF600
6FFFF9889AEFFFFF9000
6FFFFFFFFFFFFFF80000
6FFFFFFFFFFFFC300000
6FFFFFFFFEB830000000
ENDCHAR
STARTCHAR E
ENCODING 69
SWIDTH 565 0
DWIDTH 20 0
BBX 18 26 2 0
BITMAP
6FFFFFFFFFFFFFFFF3
6FFFFFFFFFFFFFFFF3
6FFFFFFFFFFFFFFFF3
6FFFF9999999999992
6FFFF1000000000000
6FFFF1000000000000
6FFFF1000000000000
6FFFF1000000000000
6FFFF1000000000000
6FFFF1000000000000
6FFFF1000000000000
6FFFFFFFFFFFFFF800
6FFFFFFFFFFFFFF800
6FFFFFFFFFFFFFF800
6FFFF8888888888400
6FFFF1000000000000
6FFFF1000000000000
6FFFF1000000000000
6FFFF1000000000000
6FFFF1000000000000
6FFFF1000000000000
6FFFF1000000000000
6FFFF9888888888883
6FFFFFFFFFFFFFFFF5
6FFFFFFFFFFFFFFFF5
6FFFFFFFFFFFFFFFF5
ENDCHAR
STARTCHAR F
ENCODING 70
SWIDTH 549 0
DWIDTH 20 0
BBX 17 26 2 0
BITMAP
6FFFFFFFFFFFFFFFD0
6FFFFFFFFFFFFFFFD0
6FFFFFFFFFFFFFFFD0
6FFFF9999999999980
6FFFF1000000000000
6FFFF1000000000000
6FFFF1000000000000
6FFFF1000000000000
6FFFF1000000000000
6FFFF1000000000000
6FFFF1000000000000
6FFFFFFFFFFFFFF500
6FFFFFFFFFFFFFF500
6FFFFFFFFFFFFFF500
6FFFF9888888888300
6FFFF1000000000000
6FFFF1000000000000
6FFFF1000000000000
6FFFF1000000000000
6FFFF1000000000000
6FFFF1000000000000
6FFFF1000000000000
6FFFF1000000000000
6FFFF1000000000000
6FFFF1000000000000
6FFFF1000000000000
ENDCHAR
STARTCHAR G
ENCODING 71
SWIDTH 680 0
DWIDTH 25 0
BBX 22 26 1 0
BITMAP
00000015ADEFED95000000
000005DFFFFFFFFFE50000
00008FFFFFFFFFFFFF8000
0008FFFFFDA9ADFFFFF600
004FFFFE5000005EFFFE20
00CFFFE300000003FFFF80
03FFFF7000000000AFFFD0
08FFFF10000000005FFFF1
0BFFFB0000000000033330
0EFFF80000000000000000
1FFFF60000000000000000
1FFFF50000000000000000
2FFFF50000000000000000
2FFFF5000007FFFFFFFFF3
2FFFF5000007FFFFFFFFF3
1FFFF6000007FFFFFFFFF3
0EFFF900000366668FFFF3
0BFFFC00000000003FFFF3
07FFFF20000000003FFFF3
02FFFFA0000000003FFFF3
00AFFFF6000000003FFFF3
002EFFFF81000003BFFFF3
0005FFFFFEB99ADFFFFFE2
00006FFFFFFFFFFFFFFE40
000003CFFFFFFFFFFF9100
000000038CEFEDC9510000
ENDCHAR
STARTCHAR H
ENCODING 72
SWIDTH 710 0
DWIDTH 26 0
BBX 21 26 2 0
BITMAP
6FFFF100000000008FFFE0
6FFFF100000000008FFFE0
6FFFF100000000008FFFE0
6FFFF100000000008FFFE0
6FFFF100000000008FFFE0
6FFFF100000000008FFFE0
6FFFF100000000008FFFE0
6FFFF100000000008FFFE0
6FFFF100000000008FFFE0
6FFFF100000000008FFFE0
6FFFF100000000008FFFE0
6FFFFFFFFFFFFFFFFFFFE0
6FFFFFFFFFFFFFFFFFFFE0
6FFFFFFFFFFFFFFFFFFFE0
6FFFF98888888888CFFFE0
6FFFF100000000008FFFE0
6FFFF100000000008FFFE0
6FFFF100000000008FFFE0
6FFFF100000000008FFFE0
6FFFF100000000008FFFE0
6FFFF100000000008FFFE0
6FFFF100000000008FFFE0
6FFFF100000000008FFFE0
6FFFF100000000008FFFE0
6FFFF100000000008FFFE0
6FFFF100000000008FFFE0
ENDCHAR
STARTCHAR I
ENCODING 73
SWIDTH 282 0
DWIDTH 10 0
BBX 6 26 2 0
BITMAP
2FFFF4
2FFFF4
2FFFF4
2FFFF4
2FFFF4
2FFFF4
2FFFF4
2FFFF4
2FFFF4
2FFFF4
2FFFF4
2FFFF4
2FFFF4
2FFFF4
2FFFF4
2FFFF4
2FFFF4
2FFFF4
2FFFF4
2FFFF4
2FFFF4
2FFFF4
2FFFF4
2FFFF4
2FFFF4
2FFFF4
ENDCHAR
STARTCHAR J
ENCODING 74
SWIDTH 555 0
DWIDTH 20 0
BBX 18 26 0 0
BITMAP
0000000000000EFFF8
0000000000000EFFF8
0000000000000EFFF8
0000000000000EFFF8
0000000000000EFFF8
0000000000000EFFF8
0000000000000EFFF8
0000000000000EFFF8
0000000000000EFFF8
0000000000000EFFF8
0000000000000EFFF8
0000000000000EFFF8
0000000000000EFFF8
0000000000000EFFF8
0000000000000EFFF8
0000000000000EFFF8
0000000000000EFFF8
0000000000000EFFF8
2AAAA20000000EFFF7
2FFFF50000002FFFF6
0EFFFA0000007FFFF2
0AFFFF600005FFFFC0
03FFFFFC99CFFFFF40
007FFFFFFFFFFFF800
0006EFFFFFFFFE6000
000016BDEFEB710000
ENDCHAR
STARTCHAR K
ENCODING 75
SWIDTH 630 0
DWIDTH 23 0
BBX 21 26 2 0
BITMAP
6FFFF1000000006FFFFD10
6FFFF100000004FFFFE300
6FFFF10000002EFFFF5000
6FFFF1000001CFFFF70000
6FFFF100000AFFFFA00000
6FFFF100008FFFFC100000
6FFFF10005FFFFE2000000
6FFFF1003EFFFF30000000
6FFFF101DFFFF500000000
6FFFF10CFFFF8000000000
6FFFF19FFFFB0000000000
6FFFF7FFFFF10000000000
6FFFFFFFFFF80000000000
6FFFFFFFFFFF4000000000
6FFFFFFFFFFFD100000000
6FFFFFF48FFFFA00000000
6FFFFF500CFFFF50000000
6FFFF60003FFFFE1000000
6FFFF100007FFFFB000000
6FFFF100000CFFFF600000
6FFFF1000002EFFFE20000
6FFFF10000006FFFFC0000
6FFFF10000000BFFFF7000
6FFFF100000002EFFFF300
6FFFF1000000006FFFFD10
6FFFF1000000000AFFFF90
ENDCHAR
STARTCHAR L
ENCODING 76
SWIDTH 541 0
DWIDTH 19 0
BBX 17 26 2 0
BITMAP
6FFFF1000000000000
6FFFF1000000000000
6FFFF1000000000000
6FFFF1000000000000
6FFFF1000000000000
6FFFF1000000000000
6FFFF1000000000000
6FFFF1000000000000
6FFFF1000000000000
6FFFF1000000000000
6FFFF1000000000000
6FFFF1000000000000
6FFFF1000000000000
6FFFF1000000000000
6FFFF1000000000000
6FFFF1000000000000
6FFFF1000000000000
6FFFF1000000000000
6FFFF1000000000000
6FFFF1000000000000
6FFFF1000000000000
6FFFF1000000000000
6FFFF9888888888860
6FFFFFFFFFFFFFFFA0
6FFFFFFFFFFFFFFFA0
6FFFFFFFFFFFFFFFA0
ENDCHAR
STARTCHAR M
ENCODING 77
SWIDTH 875 0
DWIDTH 32 0
BBX 27 26 2 0
BITMAP
6FFFFF800000000000001FFFFFD0
6FFFFFE00000000000007FFFFFD0
6FFFFFF4000000000000CFFFFFD0
6FFFFFFA000000000003FFFFFFD0
6FFFFFFF100000000008FFFFFFD0
6FFFFFFF60000000000EFFFFFFD0
6FFFCFFFC0000000004FFFCFFFD0
6FFFADFFF200000000AFFF7FFFD0
6FFFA7FFF800000001FFFE4FFFD0
6FFFB1FFFD00000006FFF84FFFD0
6FFFC0BFFF4000000CFFF25FFFD0
6FFFC05FFF9000002FFFC05FFFD0
6FFFD00EFFE100008FFF606FFFD0
6FFFD009FFF60000DFFF106FFFD0
6FFFE003FFFB0004FFFA007FFFD0
6FFFE000CFFF2009FFF4007FFFD0
6FFFF0007FFF701EFFD0008FFFD0
6FFFF0001FFFD05FFF80008FFFD0
6FFFF0000AFFF3BFFF20008FFFD0
6FFFF00005FFFAFFFB00008FFFD0
6FFFF00000EFFFFFF600008FFFD0
6FFFF000008FFFFFE100008FFFD0
6FFFF000003FFFFF9000008FFFD0
6FFFF000000CFFFF4000008FFFD0
6FFFF0000006FFFD0000008FFFD0
6FFFF0000001FFF80000008FFFD0
ENDCHAR
STARTCHAR N
ENCODING 78
SWIDTH 709 0
DWIDTH 26 0
BBX 21 26 2 0
BITMAP
6FFFF500000000008FFFE0
6FFFFE10000000008FFFE0
6FFFFF90000000008FFFE0
6FFFFFF3000000008FFFE0
6FFFFFFC000000008FFFE0
6FFFFFFF700000008FFFE0
6FFFFFFFE20000008FFFE0
6FFFFEFFFA0000008FFFE0
6FFFF6FFFF5000008FFFE0
6FFFF1BFFFD100008FFFE0
6FFFF12FFFF800008FFFE0
6FFFF108FFFF30008FFFE0
6FFFF100DFFFC0008FFFE0
6FFFF1004FFFF6008FFFE0
6FFFF1000AFFFE108FFFE0
6FFFF10001EFFFA08FFFE0
6FFFF100006FFFF48FFFE0
6FFFF100000CFFFD8FFFE0
6FFFF1000003FFFFEFFFE0
6FFFF10000009FFFFFFFE0
6FFFF10000001DFFFFFFE0
6FFFF100000005FFFFFFE0
6FFFF100000000BFFFFFE0
6FFFF1000000002EFFFFE0
6FFFF10000000007FFFFE0
6FFFF10000000000DFFFE0
ENDCHAR
STARTCHAR O
ENCODING 79
SWIDTH 690 0
DWIDTH 25 0
BBX 22 26 1 0
BITMAP
000000049CEFEC93000000
000004CFFFFFFFFFB20000
00006FFFFFFFFFFFFE5000
0006FFFFFFCBCFFFFFF400
002EFFFF7100018FFFFE10
00AFFFF500000006FFFF80
02FFFF9000000000BFFFE1
08FFFF10000000003FFFF5
0CFFFB00000000000DFFF9
0EFFF800000000000AFFFC
1FFFF5000000000008FFFE
2FFFF4000000000007FFFF
3FFFF4000000000006FFFF
3FFFF4000000000006FFFF
3FFFF4000000000007FFFF
2FFFF5000000000008FFFE
0EFFF700000000000AFFFC
0CFFFB00000000000DFFF9
08FFFF10000000003FFFF5
02FFFF8000000000AFFFE1
00BFFFF400000005FFFF80
002FFFFF7100017FFFFE10
0006FFFFFEBABFFFFFF400
00006FFFFFFFFFFFFE5000
000003CFFFFFFFFFB30000
000000049CEFEC94000000
ENDCHAR
STARTCHAR P
ENCODING 80
SWIDTH 639 0
DWIDTH 23 0
BBX 20 26 2 0
BITMAP
6FFFFFFFFFFEC9500000
6FFFFFFFFFFFFFFD3000
6FFFFFFFFFFFFFFFF600
6FFFF999999BEFFFFF40
6FFFF100000018FFFFC0
6FFFF1000000009FFFF4
6FFFF1000000001FFFF8
6FFFF1000000000CFFFA
6FFFF1000000000BFFFB
6FFFF1000000000DFFFA
6FFFF1000000002FFFF7
6FFFF100000000BFFFF3
6FFFF10000015CFFFFB0
6FFFFFFFFFFFFFFFFE20
6FFFFFFFFFFFFFFFD300
6FFFFFFFFFFFFFE81000
6FFFF988888763000000
6FFFF100000000000000
6FFFF100000000000000
6FFFF100000000000000
6FFFF100000000000000
6FFFF100000000000000
6FFFF100000000000000
6FFFF100000000000000
6FFFF100000000000000
6FFFF100000000000000
ENDCHAR
STARTCHAR Q
ENCODING 81
SWIDTH 690 0
DWIDTH 25 0
BBX 22 30 1 -4
BITMAP
00000005ADEFEC83000000
000005DFFFFFFFFFA20000
00008FFFFFFFFFFFFE4000
0007FFFFFECBCFFFFFE300
004FFFFE600002AFFFFD00
00CFFFE300000008FFFF70
04FFFF7000000000CFFFD0
09FFFE00000000005FFFF4
0DFFF900000000000EFFF8
1FFFF600000000000CFFFB
3FFFF400000000000AFFFD
4FFFF3000000000009FFFD
5FFFF2000000000008FFFE
5FFFF2000000000008FFFE
4FFFF3000000000009FFFE
3FFFF4000000000009FFFD
1FFFF600000000000CFFFB
0DFFF900000000000EFFF8
09FFFE00000000005FFFF4
04FFFF7000000000CFFFE0
00CFFFE300000007FFFF70
004FFFFE6000019FFFFD10
0007FFFFFEBACFFFFFF300
00008FFFFFFFFFFFFE4000
000004DFFFFFFFFFFD3000
00000005ADEFDDFFFFF600
000000000000007FFFFFA1
0000000000000004EFFFFA
00000000000000002CFFB1
0000000000000000009A00
ENDCHAR
STARTCHAR R
ENCODING 82
SWIDTH 624 0
DWIDTH 22 0
BBX 20 26 2 0
BITMAP
6FFFFFFFFFEDB7200000
6FFFFFFFFFFFFFFA1000
6FFFFFFFFFFFFFFFD100
6FFFF99999ADFFFFFB00
6FFFF10000004DFFFF40
6FFFF100000003FFFF90
6FFFF100000000CFFFB0
6FFFF1000000009FFFC0
6FFFF100000000AFFFC0
6FFFF100000000DFFF90
6FFFF100000008FFFF50
6FFFF1000014AFFFFC00
6FFFFFFFFFFFFFFFD200
6FFFFFFFFFFFFFFC2000
6FFFFFFFFFFFFF700000
6FFFF98888EFFFA00000
6FFFF100008FFFF30000
6FFFF100001EFFFA0000
6FFFF1000008FFFF3000
6FFFF1000001FFFFA000
6FFFF10000009FFFF300
6FFFF10000002FFFFB00
6FFFF100000009FFFF30
6FFFF100000002FFFFB0
6FFFF1000000009FFFF4
6FFFF1000000002FFFFB
ENDCHAR
STARTCHAR S
ENCODING 83
SWIDTH 603 0
DWIDTH 22 0
BBX 20 26 1 0
BITMAP
0000027BDEEDB7200000
00019FFFFFFFFFFA1000
001CFFFFFFFFFFFFE200
00CFFFFFB99AEFFFFD10
05FFFFB2000008FFFF90
0BFFFD000000009FFFF1
0DFFF9000000003FFFF4
0DFFF9000000001BBBB4
0AFFFE20000000000000
05FFFFD4000000000000
00BFFFFFC61000000000
001CFFFFFFFC71000000
00019FFFFFFFFFA20000
000003AFFFFFFFFF7000
000000016BFFFFFFF900
000000000016CFFFFF60
00000000000006FFFFD0
000000000000006FFFF3
AFFFC0000000001FFFF5
8FFFE0000000001FFFF6
4FFFF7000000005FFFF4
0CFFFF71000004EFFFE0
03EFFFFEA889CFFFFF70
003EFFFFFFFFFFFFF900
00019FFFFFFFFFFE6000
0000027BDFFEDA610000
ENDCHAR
STARTCHAR T
ENCODING 84
SWIDTH 606 0
DWIDTH 22 0
BBX 22 26 0 0
BITMAP
3FFFFFFFFFFFFFFFFFFFF1
3FFFFFFFFFFFFFFFFFFFF1
3FFFFFFFFFFFFFFFFFFFF1
29999999BFFFFA99999991
000000004FFFF200000000
000000004FFFF200000000
000000004FFFF200000000
000000004FFFF200000000
000000004FFFF200000000
000000004FFFF200000000
000000004FFFF200000000
000000004FFFF200000000
000000004FFFF200000000
000000004FFFF200000000
000000004FFFF200000000
000000004FFFF200000000
000000004FFFF200000000
000000004FFFF200000000
000000004FFFF200000000
000000004FFFF200000000
000000004FFFF200000000
000000004FFFF200000000
000000004FFFF200000000
000000004FFFF200000000
000000004FFFF200000000
000000004FFFF200000000
ENDCHAR
STARTCHAR U
ENCODING 85
SWIDTH 651 0
DWIDTH 23 0
BBX 20 26 2 0
BITMAP
CFFF90000000002FFFF5
CFFF90000000002FFFF5
CFFF90000000002FFFF5
CFFF90000000002FFFF5
CFFF90000000002FFFF5
CFFF90000000002FFFF5
CFFF90000000002FFFF5
CFFF90000000002FFFF5
CFFF90000000002FFFF5
CFFF90000000002FFFF5
CFFF90000000002FFFF5
CFFF90000000002FFFF5
CFFF90000000002FFFF5
CFFF90000000002FFFF5
CFFF90000000002FFFF5
CFFF90000000002FFFF5
CFFF90000000002FFFF5
CFFFA0000000002FFFF4
AFFFB0000000004FFFF3
8FFFE1000000007FFFF1
4FFFF700000001EFFFB0
0CFFFF7000002CFFFF40
03FFFFFEA99BFFFFFA00
005FFFFFFFFFFFFFB100
0003CFFFFFFFFFE70000
0000049CEFEDA7100000
ENDCHAR
STARTCHAR V
ENCODING 86
SWIDTH 646 0
DWIDTH 23 0
BBX 23 26 0 0
BITMAP
8FFFF5000000000001FFFFD0
2FFFFA000000000005FFFF70
0CFFFE00000000000AFFFF20
07FFFF40000000001EFFFC00
02FFFF90000000005FFFF600
00BFFFE000000000AFFFF100
006FFFF400000000EFFFB000
001FFFF800000004FFFF5000
000AFFFD00000009FFFE1000
0005FFFF3000000EFFFA0000
0000EFFF8000003FFFF40000
00009FFFC000008FFFE00000
00004FFFF20000DFFF900000
00000EFFF70003FFFF300000
000009FFFC0008FFFD000000
000003FFFF100CFFF8000000
000000DFFF602FFFF2000000
0000008FFFB07FFFC0000000
0000002FFFF1CFFF70000000
0000000CFFF7FFFF20000000
00000007FFFEFFFB00000000
00000002FFFFFFF600000000
00000000BFFFFFF100000000
000000006FFFFFA000000000
000000001FFFFF5000000000
000000000AFFFE0000000000
ENDCHAR
STARTCHAR W
ENCODING 87
SWIDTH 879 0
DWIDTH 32 0
BBX 31 26 0 0
BITMAP
1FFFF500000001FFFE000000007FFFE0
0CFFF800000004FFFF30000000AFFFA0
09FFFB00000008FFFF70000000DFFF70
05FFFE0000000CFFFFB0000001FFFF40
02FFFF2000001FFFFFE0000004FFFF00
00EFFF6000004FFFFFF3000007FFFC00
00AFFF9000008FFFFFF700000BFFF800
007FFFC00000CFFDDFFA00000EFFF500
003FFFE00001FFF99FFE00002FFFF100
000FFFF30004FFF55FFF30005FFFD000
000CFFF60008FFF12FFF60008FFFA000
0008FFF9000BFFC00DFFA000BFFF6000
0005FFFC001FFF8009FFE000EFFF3000
0001FFFF004FFF4005FFF302FFFE0000
0000DFFF308FFF1001FFF605FFFB0000
0000AFFF60BFFC0000CFFA08FFF80000
00006FFF91FFF800009FFE0BFFF40000
00003FFFC4FFF400005FFF2EFFF10000
00000EFFF8FFE000001FFF8FFFC00000
00000BFFFEFFB000000CFFEFFF900000
000008FFFFFF70000008FFFFFF600000
000004FFFFFF30000004FFFFFF200000
000001FFFFFE00000001FFFFFE000000
000000CFFFFA00000000CFFFFA000000
0000009FFFF6000000008FFFF7000000
0000005FFFF2000000004FFFF4000000
ENDCHAR
STARTCHAR X
ENCODING 88
SWIDTH 632 0
DWIDTH 23 0
BBX 22 26 0 0
BITMAP
0CFFFF50000000008FFFF9
03FFFFD000000002EFFFE1
009FFFF70000000AFFFF60
001EFFFE1000003FFFFC00
0006FFFF900000CFFFF300
0000CFFFF30006FFFF9000
00003FFFFB001DFFFE1000
000009FFFF508FFFF60000
000001EFFFD2FFFFC00000
0000006FFFFEFFFF300000
0000000CFFFFFFF9000000
00000003FFFFFFE1000000
000000009FFFFF60000000
00000000BFFFFF80000000
00000005FFFFFFF3000000
0000001DFFFFFFFB000000
0000008FFFFDFFFF500000
000002FFFFC1EFFFE10000
00000BFFFF406FFFF90000
00005FFFFA000CFFFF3000
0001DFFFE20004FFFFC000
0008FFFF700000AFFFF600
003FFFFD1000002FFFFE10
00BFFFF500000008FFFF90
06FFFFB000000001EFFFF3
1EFFFF30000000006FFFFC
ENDCHAR
STARTCHAR Y
ENCODING 89
SWIDTH 609 0
DWIDTH 22 0
BBX 22 26 0 0
BITMAP
9FFFF500000000006FFFF8
2FFFFC0000000000DFFFE1
09FFFF4000000005FFFF70
01EFFFB00000000CFFFE10
008FFFF30000005FFFF600
001EFFFA000000CFFFD000
0007FFFF300004FFFF6000
0001EFFFA0000BFFFD0000
00006FFFF2003FFFF50000
00000DFFF900AFFFC00000
000006FFFF23FFFF400000
000000DFFF8AFFFB000000
0000005FFFEFFFF4000000
0000000CFFFFFFB0000000
00000004FFFFFF30000000
00000000BFFFFA00000000
000000005FFFF300000000
000000004FFFF300000000
000000004FFFF300000000
000000004FFFF300000000
000000004FFFF300000000
000000004FFFF300000000
000000004FFFF300000000
000000004FFFF300000000
000000004FFFF300000000
000000004FFFF300000000
ENDCHAR
STARTCHAR Z
ENCODING 90
SWIDTH 602 0
DWIDTH 22 0
BBX 20 26 1 0
BITMAP
8FFFFFFFFFFFFFFFFFF1
8FFFFFFFFFFFFFFFFFF1
8FFFFFFFFFFFFFFFFFF1
4999999999999CFFFF90
0000000000001EFFFD10
000000000000AFFFF400
000000000005FFFF8000
00000000001EFFFD0000
0000000000AFFFF30000
0000000005FFFF800000
000000002EFFFC000000
00000000BFFFF3000000
00000006FFFF80000000
0000002EFFFC00000000
000000BFFFF300000000
000006FFFF7000000000
00002EFFFC0000000000
0000CFFFF20000000000
0007FFFF700000000000
002FFFFC000000000000
00CFFFE2000000000000
07FFFF60000000000000
3FFFFE88888888888884
9FFFFFFFFFFFFFFFFFF7
9FFFFFFFFFFFFFFFFFF7
9FFFFFFFFFFFFFFFFFF7
ENDCHAR
STARTCHAR bracketleft
ENCODING 91
SWIDTH 273 0
DWIDTH 10 0
BBX 8 36 2 -6
BITMAP
AFFFFFF8
AFFFFFF8
AFFFFFF8
AFFFB553
AFFF9000
AFFF9000
AFFF9000
AFFF9000
AFFF9000
AFFF9000
AFFF9000
AFFF9000
AFFF9000
AFFF9000
AFFF9000
AFFF9000
AFFF9000
AFFF9000
AFFF9000
AFFF9000
AFFF9000
AFFF9000
AFFF9000
AFFF9000
AFFF9000
AFFF9000
AFFF9000
AFFF9000
AFFF9000
AFFF9000
AFFF9000
AFFF9000
AFFFB552
AFFFFFF8
AFFFFFF8
AFFFFFF8
ENDCHAR
STARTCHAR backslash
ENCODING 92
SWIDTH 417 0
DWIDTH 15 0
BBX 16 28 0 -2
BITMAP
7FFFC00000000000
1FFFF20000000000
0AFFF80000000000
05FFFD0000000000
00EFFF4000000000
008FFFA000000000
002FFFF100000000
000CFFF700000000
0006FFFC00000000
0001EFFF30000000
0000AFFF90000000
00004FFFE0000000
00000DFFF5000000
000007FFFB000000
000002FFFF200000
000000BFFF700000
0000005FFFD00000
0000000EFFF40000
00000009FFFA0000
00000003FFFE1000
00000000CFFF6000
000000007FFFC000
000000001FFFF200
000000000AFFF800
0000000004FFFE00
0000000000DFFF50
00000000008FFFA0
00000000002FFFF1
ENDCHAR
STARTCHAR bracketright
ENCODING 93
SWIDTH 273 0
DWIDTH 10 0
BBX 8 36 0 -6
BITMAP
CFFFFFF6
CFFFFFF6
CFFFFFF6
455EFFF6
000DFFF6
000DFFF6
000DFFF6
000DFFF6
000DFFF6
000DFFF6
000DFFF6
000DFFF6
000DFFF6
000DFFF6
000DFFF6
000DFFF6
000DFFF6
000DFFF6
000DFFF6
000DFFF6
000DFFF6
000DFFF6
000DFFF6
000DFFF6
000DFFF6
000DFFF6
000DFFF6
000DFFF6
000DFFF6
000DFFF6
000DFFF6
000DFFF6
455EFFF6
CFFFFFF6
CFFFFFF6
CFFFFFF6
ENDCHAR
STARTCHAR asciicircum
ENCODING 94
SWIDTH 427 0
DWIDTH 15 0
BBX 14 13 1 13
BITMAP
00001EFF600000
00006FFFC00000
0000CFFFF30000
0003FFFFF90000
0009FFEFFE1000
001FFF6EFF6000
007FFE19FFC000
00DFF904FFF300
04FFF400DFF900
0AFFD0007FFE10
1FFF70002FFF60
7FFF20000BFFC0
DFFB000005FFF4
ENDCHAR
STARTCHAR underscore
ENCODING 95
SWIDTH 451 0
DWIDTH 16 0
BBX 17 4 0 -4
BITMAP
EFFFFFFFFFFFFFFF30
EFFFFFFFFFFFFFFF30
EFFFFFFFFFFFFFFF30
555555555555555510
ENDCHAR
STARTCHAR grave
ENCODING 96
SWIDTH 322 0
DWIDTH 12 0
BBX 8 5 1 22
BITMAP
AFFFE200
0AFFFC10
00BFFFA0
001CFFF6
0001CDB8
ENDCHAR
STARTCHAR a
ENCODING 97
SWIDTH 541 0
DWIDTH 19 0
BBX 17 19 1 0
BITMAP
000027BDFEDA500000
0008FFFFFFFFFC2000
00BFFFFFFFFFFFD100
08FFFFB646AFFFF800
0DFFF9000008FFFE00
066662000002FFFF20
000000000001FFFF30
000038BDEFFFFFFF30
002BFFFFFFFFFFFF30
02EFFFFEBAABFFFF30
0BFFFD400001FFFF30
2FFFF3000001FFFF30
5FFFE0000001FFFF30
6FFFE0000004FFFF30
4FFFF700004EFFFF30
0EFFFFB78BFFFFFF30
05FFFFFFFFFFFFFF50
006FFFFFFFF6DFFF70
00029DEED9209FFFC0
ENDCHAR
STARTCHAR b
ENCODING 98
SWIDTH 562 0
DWIDTH 20 0
BBX 17 27 2 0
BITMAP
CFFF70000000000000
CFFF70000000000000
CFFF70000000000000
CFFF70000000000000
CFFF70000000000000
CFFF70000000000000
CFFF70000000000000
CFFF70000000000000
CFFF706BEFDB500000
CFFF8CFFFFFFFC1000
CFFFFFFFFFFFFFC000
CFFFFFD98AEFFFF800
CFFFF700002DFFFE10
CFFFA0000003FFFF50
CFFF70000000CFFF90
CFFF700000008FFFB0
CFFF700000007FFFC0
CFFF700000006FFFD0
CFFF700000007FFFC0
CFFF700000008FFFB0
CFFF70000000BFFF90
CFFFA0000003FFFF50
CFFFF700002CFFFE10
CFFFFFD98AEFFFF800
CFFFEFFFFFFFFFC000
CFFF4CFFFFFFFC1000
CFFF106BEFEB500000
ENDCHAR
STARTCHAR c
ENCODING 99
SWIDTH 523 0
DWIDTH 19 0
BBX 17 19 1 0
BITMAP
000005ADEEDA500000
0003DFFFFFFFFC3000
004EFFFFFFFFFFE300
02EFFFFA78BFFFFC00
09FFFE300005FFFF50
1FFFF60000009FFF90
4FFFF10000004EEEA0
7FFFC0000000000000
8FFFA0000000000000
9FFFA0000000000000
8FFFA0000000000000
7FFFC0000000000000
4FFFE1000000266650
1FFFF60000007FFFA0
09FFFE300003EFFF50
02EFFFFA77AFFFFC00
004FFFFFFFFFFFE200
0003DFFFFFFFFB2000
000005ADEED9400000
ENDCHAR
STARTCHAR d
ENCODING 100
SWIDTH 564 0
DWIDTH 20 0
BBX 18 27 1 0
BITMAP
0000000000003FFFF1
0000000000003FFFF1
0000000000003FFFF1
0000000000003FFFF1
0000000000003FFFF1
0000000000003FFFF1
0000000000003FFFF1
0000000000003FFFF1
000039DEEC813FFFF1
0007FFFFFFFE7FFFF1
007FFFFFFFFFFFFFF1
03FFFFFC88BFFFFFF1
0AFFFF500004EFFFF1
1FFFF80000006FFFF1
5FFFF20000003FFFF1
7FFFD00000003FFFF1
8FFFB00000003FFFF1
9FFFA00000003FFFF1
8FFFA00000003FFFF1
7FFFC00000003FFFF1
4FFFF10000003FFFF1
1FFFF70000006FFFF1
0AFFFF500004EFFFF1
02FFFFFB88BFFFFFF1
006FFFFFFFFFFFFFF1
0007FFFFFFFE4EFFF1
000029DEEC810DFFF1
ENDCHAR
STARTCHAR e
ENCODING 101
SWIDTH 536 0
DWIDTH 19 0
BBX 18 19 1 0
BITMAP
0000039DEEDA500000
0001AFFFFFFFFC2000
001CFFFFFFFFFFE200
00BFFFFB77AFFFFB00
06FFFF600004FFFF40
0DFFFA0000008FFFA0
3FFFF30000003FFFD0
6FFFE00000001FFFF1
7FFFFFFFFFFFFFFFF2
8FFFFFFFFFFFFFFFF3
8FFFFFFFFFFFFFFFF3
6FFFD2222222222220
4FFFF1000000000000
0EFFF9000000005000
07FFFF80000019FB10
01DFFFFD867AEFFFA0
002DFFFFFFFFFFFD20
0001AFFFFFFFFFA100
0000038CEFEC830000
ENDCHAR
STARTCHAR f
ENCODING 102
SWIDTH 354 0
DWIDTH 13 0
BBX 13 27 0 0
BITMAP
00000028CEFE90
000005EFFFFFB0
00004FFFFFFFA0
0000CFFFFC9860
0001FFFF900000
0004FFFF200000
0005FFFF000000
0005FFFF000000
3FFFFFFFFFFC00
3FFFFFFFFFFC00
3FFFFFFFFFFC00
0336FFFF333200
0005FFFF000000
0005FFFF000000
0005FFFF000000
0005FFFF000000
0005FFFF000000
0005FFFF000000
0005FFFF000000
0005FFFF000000
0005FFFF000000
0005FFFF000000
0005FFFF000000
0005FFFF000000
0005FFFF000000
0005FFFF000000
0005FFFF000000
ENDCHAR
STARTCHAR g
ENCODING 103
SWIDTH 566 0
DWIDTH 20 0
BBX 18 26 1 -7
BITMAP
000028CEED920AFFF3
0006EFFFFFFF7CFFF3
006FFFFFFFFFFFFFF3
02EFFFFC98BFFFFFF3
09FFFF700002DFFFF3
1FFFF90000003FFFF3
4FFFF30000001FFFF3
7FFFE00000001FFFF3
8FFFC00000001FFFF3
8FFFB00000001FFFF3
7FFFB00000001FFFF3
6FFFD00000001FFFF3
3FFFF20000001FFFF3
0EFFF90000003FFFF3
09FFFF600002DFFFF3
02EFFFFC88AFFFFFF3
006FFFFFFFFFFFFFF3
0006EFFFFFFF7FFFF3
000028DEED921FFFF3
0000000000003FFFF1
0005000000008FFFD0
006FB2000005FFFF80
03FFFEA767CFFFFE10
01CFFFFFFFFFFFF400
0019FFFFFFFFFD3000
000027BDFED9500000
ENDCHAR
STARTCHAR h
ENCODING 104
SWIDTH 555 0
DWIDTH 20 0
BBX 16 27 2 0
BITMAP
DFFF600000000000
DFFF600000000000
DFFF600000000000
DFFF600000000000
DFFF600000000000
DFFF600000000000
DFFF600000000000
DFFF600000000000
DFFF6039DFEC7100
DFFF69FFFFFFFD20
DFFFEFFFFFFFFFC0
DFFFFFD98AFFFFF4
DFFFF700003EFFF9
DFFF90000009FFFB
DFFF60000007FFFD
DFFF60000006FFFD
DFFF60000006FFFD
DFFF60000006FFFD
DFFF60000006FFFD
DFFF60000006FFFD
DFFF60000006FFFD
DFFF60000006FFFD
DFFF60000006FFFD
DFFF60000006FFFD
DFFF60000006FFFD
DFFF60000006FFFD
DFFF60000006FFFD
ENDCHAR
STARTCHAR i
ENCODING 105
SWIDTH 255 0
DWIDTH 9 0
BBX 5 27 2 0
BITMAP
047500
6FFF90
BFFFF0
AFFFD0
2BEC30
000000
000000
000000
8FFFB0
8FFFB0
8FFFB0
8FFFB0
8FFFB0
8FFFB0
8FFFB0
8FFFB0
8FFFB0
8FFFB0
8FFFB0
8FFFB0
8FFFB0
8FFFB0
8FFFB0
8FFFB0
8FFFB0
8FFFB0
8FFFB0
ENDCHAR
STARTCHAR j
ENCODING 106
SWIDTH 250 0
DWIDTH 9 0
BBX 9 34 -2 -7
BITMAP
0000057400
00009FFF70
0000EFFFC0
0000DFFFA0
00003CEB20
0000000000
0000000000
0000000000
00009FFFA0
00009FFFA0
00009FFFA0
00009FFFA0
00009FFFA0
00009FFFA0
00009FFFA0
00009FFFA0
00009FFFA0
00009FFFA0
00009FFFA0
00009FFFA0
00009FFFA0
00009FFFA0
00009FFFA0
00009FFFA0
00009FFFA0
00009FFFA0
00009FFFA0
00009FFFA0
0000AFFF90
0001EFFF80
399DFFFF50
5FFFFFFD00
5FFFFFE300
3DFED82000
ENDCHAR
STARTCHAR k
ENCODING 107
SWIDTH 521 0
DWIDTH 19 0
BBX 17 27 2 0
BITMAP
CFFF70000000000000
CFFF70000000000000
CFFF70000000000000
CFFF70000000000000
CFFF70000000000000
CFFF70000000000000
CFFF70000000000000
CFFF70000000000000
CFFF7000006FFFFB00
CFFF700004FFFFC100
CFFF70003EFFFD1000
CFFF7002EFFFE20000
CFFF701DFFFE300000
CFFF71CFFFF4000000
CFFF7AFFFF60000000
CFFFDFFFF800000000
CFFFFFFFF800000000
CFFFFFFFFF40000000
CFFFFFFFFFD1000000
CFFFFB3FFFFA000000
CFFFB107FFFF500000
CFFF7000CFFFE20000
CFFF70002EFFFB0000
CFFF700006FFFF7000
CFFF700000BFFFF300
CFFF7000001EFFFD10
CFFF70000005FFFF90
ENDCHAR
STARTCHAR l
ENCODING 108
SWIDTH 255 0
DWIDTH 9 0
BBX 5 27 2 0
BITMAP
8FFFB0
8FFFB0
8FFFB0
8FFFB0
8FFFB0
8FFFB0
8FFFB0
8FFFB0
8FFFB0
8FFFB0
8FFFB0
8FFFB0
8FFFB0
8FFFB0
8FFFB0
8FFFB0
8FFFB0
8FFFB0
8FFFB0
8FFFB0
8FFFB0
8FFFB0
8FFFB0
8FFFB0
8FFFB0
8FFFB0
8FFFB0
ENDCHAR
STARTCHAR m
ENCODING 109
SWIDTH 870 0
DWIDTH 31 0
BBX 28 19 2 0
BITMAP
CFFF304ADFEC7100039DEED92000
CFFF5BFFFFFFFD209FFFFFFFF500
CFFFEFFFFFFFFFCAFFFFFFFFFE20
CFFFFFC98BFFFFFFFEA89EFFFF90
CFFFF500005FFFFFC10001CFFFD0
CFFF8000000BFFFF2000005FFFF0
CFFF70000008FFFC0000003FFFF2
CFFF70000007FFFC0000002FFFF2
CFFF70000007FFFC0000002FFFF2
CFFF70000007FFFC0000002FFFF2
CFFF70000007FFFC0000002FFFF2
CFFF70000007FFFC0000002FFFF2
CFFF70000007FFFC0000002FFFF2
CFFF70000007FFFC0000002FFFF2
CFFF70000007FFFC0000002FFFF2
CFFF70000007FFFC0000002FFFF2
CFFF70000007FFFC0000002FFFF2
CFFF70000007FFFC0000002FFFF2
CFFF70000007FFFC0000002FFFF2
ENDCHAR
STARTCHAR n
ENCODING 110
SWIDTH 556 0
DWIDTH 20 0
BBX 16 19 2 0
BITMAP
DFFF3049DFEC8100
DFFF49FFFFFFFD30
DFFFDFFFFFFFFFD0
DFFFFFD98AFFFFF5
DFFFF700003FFFF9
DFFF9000000AFFFC
DFFF60000007FFFD
DFFF60000006FFFD
DFFF60000006FFFD
DFFF60000006FFFD
DFFF60000006FFFD
DFFF60000006FFFD
DFFF60000006FFFD
DFFF60000006FFFD
DFFF60000006FFFD
DFFF60000006FFFD
DFFF60000006FFFD
DFFF60000006FFFD
DFFF60000006FFFD
ENDCHAR
STARTCHAR o
ENCODING 111
SWIDTH 569 0
DWIDTH 21 0
BBX 19 19 1 0
BITMAP
0000049DEFDB71000000
0002BFFFFFFFFE600000
002EFFFFFFFFFFF80000
01DFFFFC879EFFFF5000
07FFFF600002DFFFE100
0EFFF90000002FFFF600
4FFFF20000000AFFFB00
7FFFD000000006FFFE00
9FFFB000000004FFFF00
9FFFA000000003FFFF10
8FFFB000000004FFFF00
7FFFC000000006FFFE00
3FFFF10000000AFFFB00
0EFFF80000002FFFF600
08FFFF600001CFFFE100
01DFFFFB779EFFFF5000
003EFFFFFFFFFFF80000
0002BFFFFFFFFE500000
0000049DEFEB71000000
ENDCHAR
STARTCHAR p
ENCODING 112
SWIDTH 562 0
DWIDTH 20 0
BBX 17 26 2 -7
BITMAP
CFFF206BEFDB500000
CFFF5CFFFFFFFB1000
CFFFFFFFFFFFFFC000
CFFFFFC98BFFFFF700
CFFFF500003EFFFE00
CFFF80000005FFFF50
CFFF70000000DFFF80
CFFF700000009FFFB0
CFFF700000007FFFC0
CFFF700000006FFFD0
CFFF700000007FFFC0
CFFF700000009FFFB0
CFFF70000000DFFF80
CFFF80000004FFFF50
CFFFF500002DFFFE00
CFFFFFB779EFFFF700
CFFFFFFFFFFFFFB000
CFFF9DFFFFFFFB1000
CFFF706BEFEB500000
CFFF70000000000000
CFFF70000000000000
CFFF70000000000000
CFFF70000000000000
CFFF70000000000000
CFFF70000000000000
CFFF70000000000000
ENDCHAR
STARTCHAR q
ENCODING 113
SWIDTH 567 0
DWIDTH 20 0
BBX 17 26 1 -7
BITMAP
000039DEEC820CFFF0
0007FFFFFFFE5EFFF0
008FFFFFFFFFFFFFF0
03FFFFFB77AFFFFFF0
0BFFFF500002DFFFF0
1FFFF80000004FFFF0
5FFFF10000004FFFF0
7FFFD00000004FFFF0
8FFFB00000004FFFF0
9FFFA00000004FFFF0
8FFFA00000004FFFF0
7FFFC00000004FFFF0
4FFFF10000004FFFF0
1FFFF80000005FFFF0
0AFFFF400003DFFFF0
03FFFFFA77AFFFFFF0
007FFFFFFFFFFFFFF0
0007FFFFFFFE8FFFF0
000029DEEC824FFFF0
0000000000004FFFF0
0000000000004FFFF0
0000000000004FFFF0
0000000000004FFFF0
0000000000004FFFF0
0000000000004FFFF0
0000000000004FFFF0
ENDCHAR
STARTCHAR r
ENCODING 114
SWIDTH 351 0
DWIDTH 13 0
BBX 11 19 2 0
BITMAP
CFFF417DFE20
CFFF6CFFFF20
CFFFEFFFFF20
CFFFFFFFFF20
CFFFFE732300
CFFFE2000000
CFFF70000000
CFFF70000000
CFFF70000000
CFFF70000000
CFFF70000000
CFFF70000000
CFFF70000000
CFFF70000000
CFFF70000000
CFFF70000000
CFFF70000000
CFFF70000000
CFFF70000000
ENDCHAR
STARTCHAR s
ENCODING 115
SWIDTH 516 0
DWIDTH 19 0
BBX 16 19 1 0
BITMAP
000049DEFEC82000
001BFFFFFFFFF800
01DFFFFFFFFFFFA0
08FFFF9446CFFFF5
0EFFF700001CFFFB
0FFFF3000006DDDB
0EFFF90000000000
08FFFFD952000000
01BFFFFFFFD93000
0007EFFFFFFFFB20
000016AEFFFFFFD2
0000000026CFFFF9
122210000009FFFE
9FFFA0000003FFFF
6FFFE3000007FFFE
1DFFFE85359FFFF8
03EFFFFFFFFFFFD1
003CFFFFFFFFFB10
000049CEFEC93000
ENDCHAR
STARTCHAR t
ENCODING 116
SWIDTH 332 0
DWIDTH 12 0
BBX 11 24 0 0
BITMAP
000BFFF80000
000BFFF80000
000BFFF80000
000BFFF80000
000BFFF80000
DFFFFFFFFFE0
DFFFFFFFFFE0
DFFFFFFFFFE0
233CFFF93320
000BFFF80000
000BFFF80000
000BFFF80000
000BFFF80000
000BFFF80000
000BFFF80000
000BFFF80000
000BFFF80000
000BFFF80000
000BFFF80000
000AFFFB0000
0008FFFFB8A0
0003FFFFFFF0
00009FFFFFF0
000006CEFDB0
ENDCHAR
STARTCHAR u
ENCODING 117
SWIDTH 555 0
DWIDTH 20 0
BBX 16 19 2 0
BITMAP
EFFF50000006FFFD
EFFF50000006FFFD
EFFF50000006FFFD
EFFF50000006FFFD
EFFF50000006FFFD
EFFF50000006FFFD
EFFF50000006FFFD
EFFF50000006FFFD
EFFF50000006FFFD
EFFF50000006FFFD
EFFF50000006FFFD
EFFF50000006FFFD
DFFF60000006FFFD
CFFF90000009FFFD
9FFFE200006FFFFD
5FFFFE989DFFFFFD
0CFFFFFFFFFFFFFD
02DFFFFFFFD6FFFD
0017CEFEB603FFFD
ENDCHAR
STARTCHAR v
ENCODING 118
SWIDTH 494 0
DWIDTH 18 0
BBX 18 19 0 0
BITMAP
7FFFE00000003FFFF2
1FFFF40000008FFFC0
0BFFF8000000CFFF70
06FFFD000002FFFF20
01FFFF200006FFFB00
00AFFF70000BFFF600
005FFFB0001FFFF100
001EFFF1005FFFB000
000AFFF5009FFF6000
0004FFFA00DFFF1000
0000EFFE03FFFA0000
00009FFF47FFF50000
00004FFF8CFFE10000
00000DFFEFFFA00000
000008FFFFFF400000
000003FFFFFE000000
000000DFFFF9000000
0000007FFFF4000000
0000002FFFD0000000
ENDCHAR
STARTCHAR w
ENCODING 119
SWIDTH 743 0
DWIDTH 27 0
BBX 26 19 0 0
BITMAP
4FFFD0000006FFF1000003FFFE
1FFFF200000BFFF6000006FFFA
0BFFF500001FFFFA00000AFFF6
07FFF900005FFFFE00000DFFF2
03FFFC00009FFFFF40002FFFD0
00EFFF1000EFFFFF90005FFF90
00AFFF4003FFFAFFD0009FFF50
006FFF8008FFD3FFF300CFFF10
001FFFB00CFF80DFF701FFFC00
000CFFF02FFF309FFC04FFF700
0008FFF46FFE004FFF28FFF300
0004FFF7BFF9000EFF6BFFE000
0000FFFBFFF4000AFFBEFFA000
0000BFFFFFE00005FFFFFF6000
00007FFFFFA00001FFFFFF2000
00003FFFFF600000BFFFFD0000
00000EFFFF1000006FFFF90000
00000AFFFB0000001FFFF50000
000005FFF70000000CFFF10000
ENDCHAR
STARTCHAR x
ENCODING 120
SWIDTH 502 0
DWIDTH 18 0
BBX 18 19 0 0
BITMAP
1DFFFB000000AFFFE2
05FFFF500003FFFF70
00BFFFD0000CFFFC00
002EFFF7006FFFF300
0007FFFE11EFFF9000
0000CFFF98FFFE1000
00003FFFFFFFF50000
000009FFFFFFB00000
000001EFFFFE200000
0000009FFFFB000000
000003FFFFFF400000
00000CFFFFFFD00000
00006FFFEDFFF80000
0001EFFF75FFFF2000
000AFFFD10BFFFB000
004FFFF5003FFFF600
00DFFFB00009FFFE10
08FFFF300001EFFFA0
2FFFF90000006FFFF4
ENDCHAR
STARTCHAR y
ENCODING 121
SWIDTH 486 0
DWIDTH 18 0
BBX 18 26 0 -7
BITMAP
9FFFE00000007FFFF1
4FFFF4000000BFFFB0
0DFFF9000001FFFF60
08FFFE000006FFFF10
02FFFF40000AFFFA00
00CFFF90000EFFF500
006FFFD0004FFFE000
001FFFF3009FFF9000
000AFFF800EFFF4000
0005FFFD03FFFD0000
0000EFFF38FFF80000
00009FFF8DFFF30000
00004FFFEFFFC00000
00000DFFFFFF700000
000008FFFFFF200000
000002FFFFFC000000
000000CFFFF6000000
0000006FFFF1000000
0000003FFFB0000000
0000008FFF50000000
000001EFFE10000000
00000AFFF900000000
029AEFFFF300000000
04FFFFFF9000000000
04FFFFFA0000000000
03DFEB500000000000
ENDCHAR
STARTCHAR z
ENCODING 122
SWIDTH 502 0
DWIDTH 18 0
BBX 16 19 1 0
BITMAP
6FFFFFFFFFFFFFF8
6FFFFFFFFFFFFFF8
6FFFFFFFFFFFFFF7
3777777778FFFFD1
000000000AFFFF30
000000007FFFF600
00000003FFFFA000
0000001DFFFD1000
000000BFFFE20000
000007FFFF500000
00004FFFF9000000
0001EFFFC0000000
000BFFFE20000000
008FFFF500000000
04FFFF9000000000
2EFFFE6666666665
8FFFFFFFFFFFFFFD
8FFFFFFFFFFFFFFD
8FFFFFFFFFFFFFFD
ENDCHAR
STARTCHAR braceleft
ENCODING 123
SWIDTH 335 0
DWIDTH 12 0
BBX 11 34 1 -6
BITMAP
000000029C00
0000008FFF30
00000BFFFD40
00008FFFC100
0001EFFF2000
0005FFFB0000
0008FFF80000
0009FFF60000
0009FFF60000
0009FFF60000
0009FFF60000
000AFFF60000
000CFFF40000
003FFFE10000
15DFFF800000
FFFFFB000000
FFFFB0000000
FFFFF9000000
37EFFF600000
004FFFD00000
000DFFF30000
000BFFF50000
0009FFF60000
0009FFF60000
0009FFF60000
0009FFF60000
0009FFF70000
0007FFF90000
0004FFFC0000
0000DFFF3000
00006FFFD200
000009FFFF50
0000007FFF30
000000029C00
ENDCHAR
STARTCHAR bar
ENCODING 124
SWIDTH 250 0
DWIDTH 9 0
BBX 3 31 3 -5
BITMAP
EFF0
EFF0
EFF0
EFF0
EFF0
EFF0
EFF0
EFF0
EFF0
EFF0
EFF0
EFF0
EFF0
EFF0
EFF0
EFF0
EFF0
EFF0
EFF0
EFF0
EFF0
EFF0
EFF0
EFF0
EFF0
EFF0
EFF0
EFF0
EFF0
EFF0
EFF0
ENDCHAR
STARTCHAR braceright
ENCODING 125
SWIDTH 335 0
DWIDTH 12 0
BBX 12 34 0 -6
BITMAP
0C9300000000
3FFF91000000
4DFFFB000000
00BFFF800000
001FFFE10000
000AFFF50000
0007FFF80000
0006FFF90000
0005FFFA0000
0005FFFA0000
0005FFFA0000
0005FFFA0000
0003FFFC0000
0000EFFF3000
00007FFFD510
00000AFFFFF1
0000008FFFF1
000007FFFFF1
00005FFFE730
0000DFFF5000
0002FFFD0000
0004FFFB0000
0005FFFA0000
0005FFFA0000
0005FFFA0000
0005FFFA0000
0006FFF90000
0008FFF70000
000CFFF40000
003FFFE00000
02DFFF600000
5EFFFA000000
3FFF80000000
0C9200000000
ENDCHAR
STARTCHAR asciitilde
ENCODING 126
SWIDTH 664 0
DWIDTH 24 0
BBX 20 7 2 7
BITMAP
0018DEEC710000003776
02DFFFFFFD4000009FFC
0DFFFFFFFFF80003FFF9
6FFFEAAEFFFFDAAFFFF4
BFFE20019FFFFFFFFFB0
DFF9000005EFFFFFFC10
555200000017CEEC6000
ENDCHAR
STARTCHAR uni00A0
ENCODING 160
SWIDTH 249 0
DWIDTH 9 0
BBX 1 1 0 0
BITMAP
00
ENDCHAR
STARTCHAR exclamdown
ENCODING 161
SWIDTH 264 0
DWIDTH 10 0
BBX 6 25 2 -6
BITMAP
1AED50
7FFFE1
9FFFF2
4FFFC0
048710
000000
000000
000000
0FFFA0
1FFFA0
1FFFB0
2FFFB0
2FFFC0
2FFFC0
3FFFC0
3FFFD0
3FFFD0
4FFFD0
4FFFE0
5FFFE0
5FFFF0
5FFFF0
6FFFF0
6FFFF1
6FFFF1
ENDCHAR
STARTCHAR cent
ENCODING 162
SWIDTH 561 0
DWIDTH 20 0
BBX 18 28 1 -5
BITMAP
00000006EEE1000000
00000007FFF1000000
00000007FFF1000000
00000007FFF1000000
000005BEFFFD930000
0002CFFFFFFFFF8000
001DFFFFFFFFFFF900
00BFFFFA557DFFFF40
04FFFF600001CFFFB0
0AFFFB0000003FFFF0
0EFFF60000000CDDD2
2FFFF2000000000000
3FFFF1000000000000
3FFFF1000000000000
3FFFF1000000000000
2FFFF2000000000000
0EFFF5000000055551
0AFFFB0000001FFFF1
04FFFF600000AFFFC0
00BFFFFA546DFFFF50
001DFFFFFFFFFFF900
0002CFFFFFFFFF7000
000005BEFFFD920000
00000007FFF1000000
00000007FFF1000000
00000007FFF1000000
00000007FFF1000000
000000012220000000
ENDCHAR
STARTCHAR sterling
ENCODING 163
SWIDTH 588 0
DWIDTH 21 0
BBX 20 26 1 0
BITMAP
000000049DEFEB710000
000001BFFFFFFFFE5000
00001DFFFFFFFFFFF500
0000AFFFFE99CFFFFE10
0003FFFFB10007FFFF60
0007FFFF300000CFFFA0
000AFFFD0000008FFFC0
000BFFFB000000111110
000BFFFB000000000000
000BFFFB000000000000
000AFFFC000000000000
000AFFFC000000000000
5FFFFFFFFFFFF4000000
5FFFFFFFFFFFF4000000
5FFFFFFFFFFFF4000000
388BFFFF888882000000
0007FFFF000000000000
0007FFFF000000000000
0006FFFF100000000000
0007FFFF000000000000
0009FFFD000000000000
000DFFF7000000000000
28BFFFF9888888888881
4FFFFFFFFFFFFFFFFFF3
4FFFFFFFFFFFFFFFFFF3
4FFFFFFFFFFFFFFFFFF2
ENDCHAR
STARTCHAR currency
ENCODING 164
SWIDTH 701 0
DWIDTH 25 0
BBX 23 23 1 0
BITMAP
001300000000000000004000
01CE30017BEFEC940009F600
1CFFE38FFFFFFFFFC39FFF60
1CFFFFFFFFFFFFFFFFFFFF60
01CFFFFFFA6458DFFFFFF600
001EFFFB20000007FFFF8000
005FFFA0000000004FFFB000
00DFFD100000000007FFF400
03FFF5000000000000DFFA00
07FFE00000000000008FFD00
0AFFA00000000000004FFF10
0BFF800000000000002FFF20
0BFF800000000000002FFF20
0AFFA00000000000004FFF10
07FFE00000000000008FFD00
03FFF5000000000000EFFA00
00DFFD100000000008FFF400
005FFFA0000000004FFFC000
005FFFFB10000007FFFFC100
05FFFFFFE96458DFFFFFFC10
2FFFFEFFFFFFFFFFFFEFFFA0
07FFA18FFFFFFFFFC34EFD20
007A00017BEFEC940004D200
ENDCHAR
STARTCHAR yen
ENCODING 165
SWIDTH 531 0
DWIDTH 19 0
BBX 19 26 0 0
BITMAP
9FFFF300000001EFFFA0
2FFFF900000007FFFF30
0AFFFF1000000DFFFC00
03FFFF7000004FFFF500
00BFFFD00000BFFFD000
004FFFF50002FFFF6000
000CFFFB0009FFFD0000
0005FFFF201EFFF70000
0000DFFF906FFFE10000
00006FFFE1DFFF800000
00000EFFFAFFFF100000
000007FFFFFFF9000000
000001EFFFFFF2000000
02FFFFFFFFFFFFFFF000
02FFFFFFFFFFFFFFF000
01AAAAAEFFFEAAAAA000
0000000BFFFB00000000
0000000BFFFB00000000
02FFFFFFFFFFFFFFF000
02FFFFFFFFFFFFFFF000
01AAAAAEFFFDAAAAA000
0000000BFFFB00000000
0000000BFFFB00000000
0000000BFFFB00000000
0000000BFFFB00000000
0000000BFFFB00000000
ENDCHAR
STARTCHAR brokenbar
ENCODING 166
SWIDTH 248 0
DWIDTH 9 0
BBX 5 31 2 -5
BITMAP
9FFF60
9FFF60
9FFF60
9FFF60
9FFF60
9FFF60
9FFF60
9FFF60
9FFF60
9FFF60
9FFF60
9FFF60
9FFF60
9FFF60
000000
000000
000000
9FFF60
9FFF60
9FFF60
9FFF60
9FFF60
9FFF60
9FFF60
9FFF60
9FFF60
9FFF60
9FFF60
9FFF60
9FFF60
9FFF60
ENDCHAR
STARTCHAR section
ENCODING 167
SWIDTH 621 0
DWIDTH 22 0
BBX 20 34 1 -8
BITMAP
0000038BDEFEC9400000
0002AFFFFFFFFFFC3000
003EFFFFFFFFFFFFF400
00DFFFFE9779DFFFFE10
05FFFF80000008FFFF80
09FFFC00000000AFFFD0
0AFFF9000000005FFFF0
09FFFB00000000177770
07FFFF70000000000000
01EFFFFD720000000000
006FFFFFFFC840000000
000AFFFFFFFFFE820000
00BFFFFFFFFFFFFF8000
09FFFE55AEFFFFFFFB00
1FFFF4000049EFFFFF90
4FFFE000000017FFFFF1
5FFFF0000000004FFFF5
3FFFF5000000000DFFF6
0EFFFE500000000CFFF6
08FFFFFD8300002FFFF3
00BFFFFFFFD954DFFFB0
0008FFFFFFFFFFFFFC10
000029EFFFFFFFFFB000
000000049DFFFFFFF600
000000000038EFFFFF20
00000000000019FFFF80
26665000000000BFFFB0
5FFFE0000000007FFFC0
3FFFF5000000009FFFB0
0DFFFE40000006FFFF70
05FFFFFC8779DFFFFE20
008FFFFFFFFFFFFFF500
0005DFFFFFFFFFFC3000
0000059CEFFEC9400000
ENDCHAR
STARTCHAR dieresis
ENCODING 168
SWIDTH 439 0
DWIDTH 16 0
BBX 14 5 1 22
BITMAP
00110000001100
0BFF70000AFF70
4FFFF0004FFFF1
4FFFE0003FFFE0
08ED500008ED50
ENDCHAR
STARTCHAR copyright
ENCODING 169
SWIDTH 783 0
DWIDTH 28 0
BBX 26 26 1 0
BITMAP
0000000027BDEFDB7200000000
0000002AFFFFFFFFFFA2000000
000006EFFD854458DFFE600000
00008FFC4000000004CFF80000
0007FF90000000000009FF7000
003FF800029DFEC810008FF300
00CFB0004EFFFFFFE3000BFC00
05FF2002EFFA67CFFD0002FF50
0BF9000AFF60000AFF50009FB0
1FF3001FFC000004FF90004FF1
3FE0004FF80000019960000EF3
6FC0005FF60000000000000CF6
7FA0006FF50000000000000BF7
7FB0006FF50000000000000BF7
6FC0005FF60000000000000CF6
3FE0004FF80000019960000EF3
1FF3001FFC000003FF80004FF1
0BF9000AFF600009FF50009FA0
05FF2003FFFA67CFFD0002FF40
00CFB0005FFFFFFFE3000BFC00
003FF800029DFEC810008FF300
0007FF90000000000009FF7000
00008FFC4000000004CFF80000
000006EFFC853358CFFE600000
0000002AFFFFFFFFFFA2000000
0000000027BDFFDB7200000000
ENDCHAR
STARTCHAR ordfeminine
ENCODING 170
SWIDTH 445 0
DWIDTH 16 0
BBX 12 14 2 12
BITMAP
0018CEFD9200
03EFFFFFFE30
0DFFEAAEFFC0
2EFE1002FFF2
00010000CFF5
00000000BFF5
0049DEFFFFF5
08FFFFFFFFF5
3FFF8311BFF5
7FFA0000BFF5
7FFB0002DFF5
4FFFB8AFFFF6
0BFFFFFFDFF7
007DFEB46FFA
ENDCHAR
STARTCHAR guillemotleft
ENCODING 171
SWIDTH 485 0
DWIDTH 17 0
BBX 15 14 1 2
BITMAP
00000BFF3007FF80
00008FF9003FFD10
0004FFE101DFF400
001EFF500AFFA000
00BFFB007FFE2000
07FFF203FFF70000
3FFF801DFFC00000
3FFF701DFFC00000
07FFF203FFF60000
00BFFB007FFE1000
001EFF500AFFA000
0004FFE101DFF400
00008FF9003FFD00
00000BFF3007FF80
ENDCHAR
STARTCHAR logicalnot
ENCODING 172
SWIDTH 553 0
DWIDTH 20 0
BBX 15 8 2 6
BITMAP
CFFFFFFFFFFFFFE0
CFFFFFFFFFFFFFE0
CFFFFFFFFFFFFFE0
000000000009FFE0
000000000009FFE0
000000000009FFE0
000000000009FFE0
000000000009FFE0
ENDCHAR
STARTCHAR uni00AD
ENCODING 173
SWIDTH 328 0
DWIDTH 12 0
BBX 10 4 1 9
BITMAP
BFFFFFFFF7
BFFFFFFFF7
BFFFFFFFF7
5777777773
ENDCHAR
STARTCHAR registered
ENCODING 174
SWIDTH 783 0
DWIDTH 28 0
BBX 26 26 1 0
BITMAP
0000000027BDEFDB7200000000
0000002AFFFFFFFFFFA2000000
000006EFFD854458DFFE600000
00008FFC4000000004CFF80000
0007FF90000000000009FF7000
003FF803FFFFFEC820008FF300
00CFB003FFFFFFFFE4000BFC00
05FF2003FFA5569FFE1002FF50
0BF90003FF700007FF50009FB0
1FF30003FF700003FF70004FF1
3FE00003FF700005FF60000EF3
6FC00003FF70015EFE10000CF6
7FA00003FFFFFFFFE400000BF7
7FB00003FFFFFFFFD300000BF7
6FC00003FFA5569FFD00000CF6
3FE00003FF700008FF40000EF3
1FF30003FF700004FF60004FF1
0BF90003FF700003FF60009FA0
05FF2003FF700003FF7002FF40
00CFB003FF700002FFA00BFC00
003FF8000000000000008FF300
0007FF90000000000009FF7000
00008FFC4000000004CFF80000
000006EFFC853358CFFE600000
0000002AFFFFFFFFFFA2000000
0000000027BDFFDB7200000000
ENDCHAR
STARTCHAR macron
ENCODING 175
SWIDTH 481 0
DWIDTH 17 0
BBX 13 3 2 22
BITMAP
4FFFFFFFFFFFC0
4FFFFFFFFFFFC0
3CCCCCCCCCCC90
ENDCHAR
STARTCHAR degree
ENCODING 176
SWIDTH 379 0
DWIDTH 14 0
BBX 10 10 2 16
BITMAP
004BEEA200
07FFFFFE30
3FFE89FFD0
9FE2006FF4
BFB0001FF6
AFD0002FF5
6FF812BFF2
1DFFFFFF80
02CFFFF900
0004762000
ENDCHAR
STARTCHAR plusminus
ENCODING 177
SWIDTH 536 0
DWIDTH 19 0
BBX 17 23 1 0
BITMAP
0000000AAA70000000
0000001FFFB0000000
0000001FFFB0000000
0000001FFFB0000000
0000001FFFB0000000
0000001FFFB0000000
0000001FFFB0000000
5FFFFFFFFFFFFFFFC0
5FFFFFFFFFFFFFFFC0
5FFFFFFFFFFFFFFFC0
2888888FFFD8888860
0000001FFFB0000000
0000001FFFB0000000
0000001FFFB0000000
0000001FFFB0000000
0000001FFFB0000000
0000001FFFB0000000
000000077750000000
000000000000000000
057777777777777710
0CFFFFFFFFFFFFFF20
0CFFFFFFFFFFFFFF20
0CFFFFFFFFFFFFFF20
ENDCHAR
STARTCHAR uni00B2
ENCODING 178
SWIDTH 370 0
DWIDTH 13 0
BBX 12 14 1 12
BITMAP
004BEFEB5000
09FFFFFFF900
5FFFDADFFF40
CFFB000DFF90
ABB4000AFF90
0000002EFF60
000001CFFD10
00001CFFE300
0002DFFE3000
003EFFC20000
04EFFA100000
5FFFE9999991
9FFFFFFFFFF2
9FFFFFFFFFF2
ENDCHAR
STARTCHAR uni00B3
ENCODING 179
SWIDTH 370 0
DWIDTH 13 0
BBX 11 14 1 12
BITMAP
017CEFEC7100
2DFFFFFFFC10
AFFFBACFFF80
4553000AFFA0
0000003DFF70
0004FFFFE800
0004FFFFD500
0001448EFF50
00000008FFC0
22210005FFE0
EFF8000AFFD0
AFFFCACFFF70
2DFFFFFFFA00
017CEFEB5000
ENDCHAR
STARTCHAR acute
ENCODING 180
SWIDTH 325 0
DWIDTH 12 0
BBX 9 5 2 22
BITMAP
001EFFFB10
00BFFFB100
08FFFC1000
4FFFC10000
7BDC100000
ENDCHAR
STARTCHAR mu
ENCODING 181
SWIDTH 591 0
DWIDTH 21 0
BBX 17 26 2 -7
BITMAP
7FFFC0000000BFFF80
7FFFC0000000BFFF80
7FFFC0000000BFFF80
7FFFC0000000BFFF80
7FFFC0000000BFFF80
7FFFC0000000BFFF80
7FFFC0000000BFFF80
7FFFC0000000BFFF80
7FFFC0000000BFFF80
7FFFC0000000BFFF80
7FFFC0000000BFFF80
7FFFD0000000BFFF80
7FFFE0000000BFFF80
7FFFF3000000CFFF80
7FFFFB000008FFFF80
7FFFFFD879DFFFFF80
7FFFFFFFFFFFFFFF80
7FFFFFFFFFFEAFFF80
7FFFD5BEFD916FFF80
7FFFC0000000000000
7FFFC0000000000000
7FFFC0000000000000
7FFFC0000000000000
7FFFC0000000000000
7FFFC0000000000000
7FFFC0000000000000
ENDCHAR
STARTCHAR paragraph
ENCODING 182
SWIDTH 490 0
DWIDTH 18 0
BBX 14 26 1 0
BITMAP
000017BDFFFFFF
0007EFFFFFFFFF
009FFFFFFFFFFF
06FFFFFFFFFFFF
1EFFFFFFFFFFFF
5FFFFFFFFFFFFF
9FFFFFFFFFFFFF
BFFFFFFFFFFFFF
BFFFFFFFFFFFFF
AFFFFFFFFFFFFF
8FFFFFFFFFFFFF
4FFFFFFFFFFFFF
0DFFFFFFFFFFFF
04FFFFFFFFFFFF
006FFFFFFFFFFF
0003CFFFFFFFFF
00000379ABEFFF
0000000000AFFF
0000000000AFFF
0000000000AFFF
0000000000AFFF
0000000000AFFF
0000000000AFFF
0000000000AFFF
0000000000AFFF
0000000000AFFF
ENDCHAR
STARTCHAR periodcentered
ENCODING 183
SWIDTH 282 0
DWIDTH 10 0
BBX 6 5 2 10
BITMAP
08EE80
4FFFF4
7FFFF6
3FFFF3
04AA40
ENDCHAR
STARTCHAR cedilla
ENCODING 184
SWIDTH 257 0
DWIDTH 9 0
BBX 6 8 2 -8
BITMAP
9FF700
DFFE91
8BFFFA
009FFE
009FFF
6AFFFB
CFFFD2
BEC710
ENDCHAR
STARTCHAR uni00B9
ENCODING 185
SWIDTH 370 0
DWIDTH 13 0
BBX 7 14 2 12
BITMAP
000049E0
049EFFF0
BFFFFFF0
BFFEFFF0
7623FFF0
0003FFF0
0003FFF0
0003FFF0
0003FFF0
0003FFF0
0003FFF0
0003FFF0
0003FFF0
0003FFF0
ENDCHAR
STARTCHAR ordmasculine
ENCODING 186
SWIDTH 456 0
DWIDTH 16 0
BBX 13 14 2 12
BITMAP
0017CEFD920000
02CFFFFFFF5000
0CFFFBAEFFF300
5FFE3001BFFB00
AFF800002FFF10
DFF400000EFF30
EFF300000CFF40
EFF300000CFF40
DFF400000EFF30
AFF800002FFF10
5FFE3001BFFB00
0CFFFB9DFFF300
02CFFFFFFF5000
0017CEFD920000
ENDCHAR
STARTCHAR guillemotright
ENCODING 187
SWIDTH 485 0
DWIDTH 17 0
BBX 16 14 1 2
BITMAP
2EFD1007FF700000
07FFA000DFF40000
00CFF6004FFD1000
003FFF300AFFB000
0009FFD101EFF700
0001EFFA006FFF30
00005FFF600CFFD1
00005FFF600BFFD1
0001DFFA006FFF30
0009FFD101EFF700
003FFF3009FFB000
00CFF6004FFD1000
06FFA000DFF40000
2EFD1007FF700000
ENDCHAR
STARTCHAR onequarter
ENCODING 188
SWIDTH 726 0
DWIDTH 26 0
BBX 24 26 1 0
BITMAP
000038D50000000000000000
049EFFF50000000000000000
7FFFFFF50000000000000000
7FFDFFF5000000002C400000
3510EFF500000000AFF30000
0000EFF500000005FFA00000
0000EFF50000001DFE100000
0000EFF50000009FF6000000
0000EFF5000003FFB0000000
0000EFF500000CFF20000000
0000EFF500007FF700000000
0000EFF50002FFD000000000
0000EFF5000BFF40008FFF20
0000EFF5006FF90005FFFF20
0000000001EFE1002EFFFF20
000000000AFF5000CFFFFF20
000000004FFB0009FFBFFF20
00000001DFE2005FFB2FFF20
00000008FF7002EFC12FFF20
0000003FFC000CFD202FFF20
000000CFF3007FFFFFFFFFFC
000007FF80008FFFFFFFFFFC
00001EFD10005AAAAABFFFB8
000003B400000000002FFF20
0000000000000000002FFF20
0000000000000000002FFF20
ENDCHAR
STARTCHAR onehalf
ENCODING 189
SWIDTH 770 0
DWIDTH 28 0
BBX 26 26 1 0
BITMAP
000049D3000000000000000000
15AEFFF3000000000000000000
9FFFFFF3000000000000000000
9FFDFFF300000000B700000000
4511FFF300000007FF70000000
0001FFF30000002EFD10000000
0001FFF3000000BFF400000000
0001FFF3000005FFA000000000
0001FFF300001EFE1000000000
0001FFF300009FF60000000000
0001FFF30004FFB00000000000
0001FFF3000DFF200000000000
0001FFF3008FF7005BEFEB5000
0001FFF302FFC009FFFFFFF900
000000000BFF306FFFDADFFF40
000000006FF900CFFA001DFF80
00000001EFD100ABB4000BFF90
0000000AFF50000000002FFF60
0000004FFA0000000001DFFD00
000001DFE2000000002DFFE300
000008FF6000000002DFFD3000
00003FFC000000003EFFC20000
0000BFF300000004EFFA100000
000019800000005FFFE9999991
00000000000000AFFFFFFFFFF1
00000000000000AFFFFFFFFFF1
ENDCHAR
STARTCHAR threequarters
ENCODING 190
SWIDTH 792 0
DWIDTH 29 0
BBX 26 26 1 0
BITMAP
0017CEFEB60000000000000000
03EFFFFFFFB000000000000000
0CFFFBADFFF600000000000000
08994000CFF800000008910000
00000014EFF40000003FFB0000
00007FFFFE60000000CFF30000
00007FFFFC40000007FF800000
00002459FFF300002EFD000000
00000000AFFA0000BFF4000000
188810008FFC0006FF90000000
1FFF7000CFFA001EFE10000000
0BFFFCADFFF500AFF500000000
02DFFFFFFF8004FFB0007FFF40
0017CEFDA4001DFE2003FFFF40
0000000000008FF7001DFFFF40
000000000003FFC000AFFFFF40
00000000000CFF3007FFBFFF40
00000000006FF8003FFC1FFF40
0000000002EFD101DFD20FFF40
000000000AFF400AFE300FFF40
000000005FFA005FFFFFFFFFFE
00000001EFE1006FFFFFFFFFFE
00000008FF60003AAAAAAFFFB9
000000007A00000000000FFF40
000000000000000000000FFF40
000000000000000000000FFF40
ENDCHAR
STARTCHAR questiondown
ENCODING 191
SWIDTH 486 0
DWIDTH 18 0
BBX 16 25 1 -6
BITMAP
0000008EE8000000
000004FFFF400000
000005FFFF600000
000002EFFE200000
0000002882000000
0000000000000000
0000000000000000
0000000000000000
000000EFFF100000
000001FFFE000000
000006FFFB000000
00003EFFF6000000
0003EFFFC0000000
003EFFFD10000000
02EFFFC100000000
0CFFFC1000000000
5FFFE20000000000
AFFF900000000000
CFFF700000034441
CFFF9000001FFFF5
9FFFF30000AFFFF2
4FFFFFB9AEFFFFB0
0AFFFFFFFFFFFE20
009FFFFFFFFFC200
00038CEFEDA50000
ENDCHAR
STARTCHAR Agrave
ENCODING 192
SWIDTH 665 0
DWIDTH 24 0
BBX 24 32 0 0
BITMAP
0000008FFFF4000000000000
00000009FFFD100000000000
00000000AFFFB00000000000
000000000AFFF80000000000
0000000000BDB91000000000
000000000000000000000000
0000000003FFFF2000000000
0000000009FFFF8000000000
000000000EFFFFD000000000
000000005FFFFFF400000000
00000000AFFFFFFA00000000
00000001FFFEFFFE10000000
00000007FFF9AFFF60000000
0000000CFFF45FFFB0000000
0000003FFFE00EFFF2000000
0000008FFF8009FFF8000000
000000EFFF3004FFFD000000
000004FFFD0000EFFF400000
00000AFFF800008FFF900000
00001FFFF200003FFFE10000
00006FFFC000000DFFF60000
0000CFFF70000007FFFB0000
0002FFFFFFFFFFFFFFFF2000
0008FFFFFFFFFFFFFFFF7000
000DFFFFFFFFFFFFFFFFD000
004FFFF9999999999FFFF300
00AFFFB0000000000CFFF900
01EFFF600000000007FFFE10
06FFFF100000000002FFFF50
0BFFFB000000000000CFFFB0
2FFFF60000000000007FFFF2
8FFFF20000000000002FFFF7
ENDCHAR
STARTCHAR Aacute
ENCODING 193
SWIDTH 665 0
DWIDTH 24 0
BBX 24 32 0 0
BITMAP
0000000000002EFFFA000000
000000000000CFFFA0000000
000000000009FFFB00000000
00000000005FFFB000000000
00000000008BDB1000000000
000000000000000000000000
0000000003FFFF2000000000
0000000009FFFF8000000000
000000000EFFFFD000000000
000000005FFFFFF400000000
00000000AFFFFFFA00000000
00000001FFFEFFFE10000000
00000007FFF9AFFF60000000
0000000CFFF45FFFB0000000
0000003FFFE00EFFF2000000
0000008FFF8009FFF8000000
000000EFFF3004FFFD000000
000004FFFD0000EFFF400000
00000AFFF800008FFF900000
00001FFFF200003FFFE10000
00006FFFC000000DFFF60000
0000CFFF70000007FFFB0000
0002FFFFFFFFFFFFFFFF2000
0008FFFFFFFFFFFFFFFF7000
000DFFFFFFFFFFFFFFFFD000
004FFFF9999999999FFFF300
00AFFFB0000000000CFFF900
01EFFF600000000007FFFE10
06FFFF100000000002FFFF50
0BFFFB000000000000CFFFB0
2FFFF60000000000007FFFF2
8FFFF20000000000002FFFF7
ENDCHAR
STARTCHAR Acircumflex
ENCODING 194
SWIDTH 665 0
DWIDTH 24 0
BBX 24 32 0 0
BITMAP
0000000001BFFC1000000000
000000001CFFFFD200000000
00000002DFFCBFFD30000000
0000003EFFC11BFFE4000000
0000008BDC1001BDB8000000
000000000000000000000000
0000000003FFFF2000000000
0000000009FFFF8000000000
000000000EFFFFD000000000
000000005FFFFFF400000000
00000000AFFFFFFA00000000
00000001FFFEFFFE10000000
00000007FFF9AFFF60000000
0000000CFFF45FFFB0000000
0000003FFFE00EFFF2000000
0000008FFF8009FFF8000000
000000EFFF3004FFFD000000
000004FFFD0000EFFF400000
00000AFFF800008FFF900000
00001FFFF200003FFFE10000
00006FFFC000000DFFF60000
0000CFFF70000007FFFB0000
0002FFFFFFFFFFFFFFFF2000
0008FFFFFFFFFFFFFFFF7000
000DFFFFFFFFFFFFFFFFD000
004FFFF9999999999FFFF300
00AFFFB0000000000CFFF900
01EFFF600000000007FFFE10
06FFFF100000000002FFFF50
0BFFFB000000000000CFFFB0
2FFFF60000000000007FFFF2
8FFFF20000000000002FFFF7
ENDCHAR
STARTCHAR Atilde
ENCODING 195
SWIDTH 665 0
DWIDTH 24 0
BBX 24 33 0 0
BITMAP
000000000000000010000000
00000004BDA30003FF700000
0000004FFFFF810AFF500000
000000DFFFFFFFEFFE100000
000003FFC129FFFFF6000000
000005EE50005CFD60000000
000000000000000000000000
0000000003FFFF2000000000
0000000009FFFF8000000000
000000000EFFFFD000000000
000000005FFFFFF400000000
00000000AFFFFFFA00000000
00000001FFFEFFFE10000000
00000007FFF9AFFF60000000
0000000CFFF45FFFB0000000
0000003FFFE00EFFF2000000
0000008FFF8009FFF8000000
000000EFFF3004FFFD000000
000004FFFD0000EFFF400000
00000AFFF800008FFF900000
00001FFFF200003FFFE10000
00006FFFC000000DFFF60000
0000CFFF70000007FFFB0000
0002FFFFFFFFFFFFFFFF2000
0008FFFFFFFFFFFFFFFF7000
000DFFFFFFFFFFFFFFFFD000
004FFFF9999999999FFFF300
00AFFFB0000000000CFFF900
01EFFF600000000007FFFE10
06FFFF100000000002FFFF50
0BFFFB000000000000CFFFB0
2FFFF60000000000007FFFF2
8FFFF20000000000002FFFF7
ENDCHAR
STARTCHAR Adieresis
ENCODING 196
SWIDTH 665 0
DWIDTH 24 0
BBX 24 32 0 0
BITMAP
000000011000000110000000
0000008FF900008FFA000000
000001FFFF3001FFFF300000
000001FFFF2001FFFF300000
0000006EE700006EE7000000
000000000000000000000000
0000000003FFFF2000000000
0000000009FFFF8000000000
000000000EFFFFD000000000
000000005FFFFFF400000000
00000000AFFFFFFA00000000
00000001FFFEFFFE10000000
00000007FFF9AFFF60000000
0000000CFFF45FFFB0000000
0000003FFFE00EFFF2000000
0000008FFF8009FFF8000000
000000EFFF3004FFFD000000
000004FFFD0000EFFF400000
00000AFFF800008FFF900000
00001FFFF200003FFFE10000
00006FFFC000000DFFF60000
0000CFFF70000007FFFB0000
0002FFFFFFFFFFFFFFFF2000
0008FFFFFFFFFFFFFFFF7000
000DFFFFFFFFFFFFFFFFD000
004FFFF9999999999FFFF300
00AFFFB0000000000CFFF900
01EFFF600000000007FFFE10
06FFFF100000000002FFFF50
0BFFFB000000000000CFFFB0
2FFFF60000000000007FFFF2
8FFFF20000000000002FFFF7
ENDCHAR
STARTCHAR Aring
ENCODING 197
SWIDTH 665 0
DWIDTH 24 0
BBX 24 35 0 0
BITMAP
000000000059960000000000
000000000BFFFFB100000000
000000007FC21BF800000000
00000000BF3002FD00000000
00000000CF2000FE00000000
000000009F8006FA00000000
000000002EFCBFE300000000
0000000002AEEB3000000000
000000000000000000000000
0000000003FFFF2000000000
0000000009FFFF8000000000
000000000EFFFFD000000000
000000005FFFFFF400000000
00000000AFFFFFFA00000000
00000001FFFEFFFE10000000
00000007FFF9AFFF60000000
0000000CFFF45FFFB0000000
0000003FFFE00EFFF2000000
0000008FFF8009FFF8000000
000000EFFF3004FFFD000000
000004FFFD0000EFFF400000
00000AFFF800008FFF900000
00001FFFF200003FFFE10000
00006FFFC000000DFFF60000
0000CFFF70000007FFFB0000
0002FFFFFFFFFFFFFFFF2000
0008FFFFFFFFFFFFFFFF7000
000DFFFFFFFFFFFFFFFFD000
004FFFF9999999999FFFF300
00AFFFB0000000000CFFF900
01EFFF600000000007FFFE10
06FFFF100000000002FFFF50
0BFFFB000000000000CFFFB0
2FFFF60000000000007FFFF2
8FFFF20000000000002FFFF7
ENDCHAR
STARTCHAR AE
ENCODING 198
SWIDTH 939 0
DWIDTH 34 0
BBX 33 26 0 0
BITMAP
00000000000000CFFFFFFFFFFFFFFFFE00
00000000000005FFFFFFFFFFFFFFFFFE00
0000000000000DFFFFFFFFFFFFFFFFFE00
0000000000007FFFFFFFC7777777777700
000000000001EFFFEFFF90000000000000
000000000009FFFC9FFFA0000000000000
00000000003FFFF49FFFB0000000000000
0000000000BFFFB08FFFB0000000000000
0000000004FFFF307FFFC0000000000000
000000000DFFFA007FFFC0000000000000
000000006FFFF2006FFFD0000000000000
00000001EFFF90005FFFFFFFFFFFFF8000
00000008FFFE20005FFFFFFFFFFFFF8000
0000002FFFF800004FFFFFFFFFFFFF8000
000000AFFFE100004FFFF7777777774000
000004FFFF7000003FFFF1000000000000
00000CFFFFFFFFFFFFFFF2000000000000
00006FFFFFFFFFFFFFFFF2000000000000
0001DFFFFFFFFFFFFFFFF3000000000000
0008FFFFCCCCCCCCCFFFF4000000000000
002EFFFC000000000FFFF4000000000000
00AFFFF4000000000EFFF5000000000000
03FFFFB0000000000EFFFA777777777770
0BFFFF30000000000DFFFFFFFFFFFFFFF0
5FFFFB00000000000CFFFFFFFFFFFFFFF0
DFFFF300000000000CFFFFFFFFFFFFFFF0
ENDCHAR
STARTCHAR Ccedilla
ENCODING 199
SWIDTH 652 0
DWIDTH 24 0
BBX 22 34 1 -8
BITMAP
00000005ADEFEC94000000
000005DFFFFFFFFFC30000
00008FFFFFFFFFFFFF5000
0008FFFFFDA9BEFFFFE300
004FFFFD4000006FFFFC00
00CFFFE200000006FFFF50
04FFFF6000000000DFFFA0
09FFFE00000000008FFFD0
0DFFFA00000000004CCCC1
0FFFF70000000000000000
2FFFF50000000000000000
3FFFF40000000000000000
3FFFF40000000000000000
3FFFF40000000000000000
3FFFF40000000000000000
2FFFF50000000000000000
1FFFF70000000000000000
0DFFF900000000004AAAA1
09FFFE00000000008FFFE0
04FFFF5000000000DFFFA0
00DFFFD100000006FFFF50
005FFFFD3000006FFFFD00
0009FFFFFCA9BEFFFFF300
0000AFFFFFFFFFFFFF5000
000006EFFFFFFFFFC20000
00000016ADFFEC83000000
0000000009FF8000000000
000000000CFFEA10000000
0000000008BFFFA0000000
000000000008FFF0000000
000000000008FFF0000000
0000000005AFFFB0000000
000000000CFFFD20000000
000000000BEC7100000000
ENDCHAR
STARTCHAR Egrave
ENCODING 200
SWIDTH 565 0
DWIDTH 20 0
BBX 18 33 2 0
BITMAP
0009FFFF3000000000
00009FFFD100000000
00000AFFFB00000000
000000BFFF70000000
0000001BDB91000000
000000000000000000
000000000000000000
6FFFFFFFFFFFFFFFF3
6FFFFFFFFFFFFFFFF3
6FFFFFFFFFFFFFFFF3
6FFFF9999999999992
6FFFF1000000000000
6FFFF1000000000000
6FFFF1000000000000
6FFFF1000000000000
6FFFF1000000000000
6FFFF1000000000000
6FFFF1000000000000
6FFFFFFFFFFFFFF800
6FFFFFFFFFFFFFF800
6FFFFFFFFFFFFFF800
6FFFF8888888888400
6FFFF1000000000000
6FFFF1000000000000
6FFFF1000000000000
6FFFF1000000000000
6FFFF1000000000000
6FFFF1000000000000
6FFFF1000000000000
6FFFF9888888888883
6FFFFFFFFFFFFFFFF5
6FFFFFFFFFFFFFFFF5
6FFFFFFFFFFFFFFFF5
ENDCHAR
STARTCHAR Eacute
ENCODING 201
SWIDTH 565 0
DWIDTH 20 0
BBX 18 33 2 0
BITMAP
0000000002EFFFA000
000000001DFFFA0000
00000000AFFFA00000
00000006FFFB000000
00000008BDB0000000
000000000000000000
000000000000000000
6FFFFFFFFFFFFFFFF3
6FFFFFFFFFFFFFFFF3
6FFFFFFFFFFFFFFFF3
6FFFF9999999999992
6FFFF1000000000000
6FFFF1000000000000
6FFFF1000000000000
6FFFF1000000000000
6FFFF1000000000000
6FFFF1000000000000
6FFFF1000000000000
6FFFFFFFFFFFFFF800
6FFFFFFFFFFFFFF800
6FFFFFFFFFFFFFF800
6FFFF8888888888400
6FFFF1000000000000
6FFFF1000000000000
6FFFF1000000000000
6FFFF1000000000000
6FFFF1000000000000
6FFFF1000000000000
6FFFF1000000000000
6FFFF9888888888883
6FFFFFFFFFFFFFFFF5
6FFFFFFFFFFFFFFFF5
6FFFFFFFFFFFFFFFF5
ENDCHAR
STARTCHAR Ecircumflex
ENCODING 202
SWIDTH 565 0
DWIDTH 20 0
BBX 18 33 2 0
BITMAP
0000001BFFB1000000
000001CFFFFC200000
00002DFFBBFFD20000
0003EFFC11CFFE3000
0008BDC1001CDB8000
000000000000000000
000000000000000000
6FFFFFFFFFFFFFFFF3
6FFFFFFFFFFFFFFFF3
6FFFFFFFFFFFFFFFF3
6FFFF9999999999992
6FFFF1000000000000
6FFFF1000000000000
6FFFF1000000000000
6FFFF1000000000000
6FFFF1000000000000
6FFFF1000000000000
6FFFF1000000000000
6FFFFFFFFFFFFFF800
6FFFFFFFFFFFFFF800
6FFFFFFFFFFFFFF800
6FFFF8888888888400
6FFFF1000000000000
6FFFF1000000000000
6FFFF1000000000000
6FFFF1000000000000
6FFFF1000000000000
6FFFF1000000000000
6FFFF1000000000000
6FFFF9888888888883
6FFFFFFFFFFFFFFFF5
6FFFFFFFFFFFFFFFF5
6FFFFFFFFFFFFFFFF5
ENDCHAR
STARTCHAR Edieresis
ENCODING 203
SWIDTH 565 0
DWIDTH 20 0
BBX 18 33 2 0
BITMAP
000011000000110000
0009FF900008FF9000
002FFFF2002FFFF200
002FFFF2001FFFF200
0007EE600006EE7000
000000000000000000
000000000000000000
6FFFFFFFFFFFFFFFF3
6FFFFFFFFFFFFFFFF3
6FFFFFFFFFFFFFFFF3
6FFFF9999999999992
6FFFF1000000000000
6FFFF1000000000000
6FFFF1000000000000
6FFFF1000000000000
6FFFF1000000000000
6FFFF1000000000000
6FFFF1000000000000
6FFFFFFFFFFFFFF800
6FFFFFFFFFFFFFF800
6FFFFFFFFFFFFFF800
6FFFF8888888888400
6FFFF1000000000000
6FFFF1000000000000
6FFFF1000000000000
6FFFF1000000000000
6FFFF1000000000000
6FFFF1000000000000
6FFFF1000000000000
6FFFF9888888888883
6FFFFFFFFFFFFFFFF5
6FFFFFFFFFFFFFFFF5
6FFFFFFFFFFFFFFFF5
ENDCHAR
STARTCHAR Igrave
ENCODING 204
SWIDTH 282 0
DWIDTH 10 0
BBX 9 33 -1 0
BITMAP
8FFFF40000
08FFFE2000
009FFFC000
000AFFF800
0000AEB910
0000000000
0000000000
0002FFFF40
0002FFFF40
0002FFFF40
0002FFFF40
0002FFFF40
0002FFFF40
0002FFFF40
0002FFFF40
0002FFFF40
0002FFFF40
0002FFFF40
0002FFFF40
0002FFFF40
0002FFFF40
0002FFFF40
0002FFFF40
0002FFFF40
0002FFFF40
0002FFFF40
0002FFFF40
0002FFFF40
0002FFFF40
0002FFFF40
0002FFFF40
0002FFFF40
0002FFFF40
ENDCHAR
STARTCHAR Iacute
ENCODING 205
SWIDTH 282 0
DWIDTH 10 0
BBX 9 33 2 0
BITMAP
0002EFFFA0
000CFFFB00
009FFFB000
05FFFB1000
08BDB10000
0000000000
0000000000
2FFFF40000
2FFFF40000
2FFFF40000
2FFFF40000
2FFFF40000
2FFFF40000
2FFFF40000
2FFFF40000
2FFFF40000
2FFFF40000
2FFFF40000
2FFFF40000
2FFFF40000
2FFFF40000
2FFFF40000
2FFFF40000
2FFFF40000
2FFFF40000
2FFFF40000
2FFFF40000
2FFFF40000
2FFFF40000
2FFFF40000
2FFFF40000
2FFFF40000
2FFFF40000
ENDCHAR
STARTCHAR Icircumflex
ENCODING 206
SWIDTH 282 0
DWIDTH 10 0
BBX 12 33 -1 0
BITMAP
0000AFFC1000
001BFFFFD200
02CFFCBFFE30
2DFFD10BFFE4
7BDD1001BDB9
000000000000
000000000000
0002FFFF4000
0002FFFF4000
0002FFFF4000
0002FFFF4000
0002FFFF4000
0002FFFF4000
0002FFFF4000
0002FFFF4000
0002FFFF4000
0002FFFF4000
0002FFFF4000
0002FFFF4000
0002FFFF4000
0002FFFF4000
0002FFFF4000
0002FFFF4000
0002FFFF4000
0002FFFF4000
0002FFFF4000
0002FFFF4000
0002FFFF4000
0002FFFF4000
0002FFFF4000
0002FFFF4000
0002FFFF4000
0002FFFF4000
ENDCHAR
STARTCHAR Idieresis
ENCODING 207
SWIDTH 282 0
DWIDTH 10 0
BBX 14 33 -2 0
BITMAP
00110000001100
08FFA00007FFA0
1FFFF3001FFFF4
1FFFF3000FFFF3
06EE700005EE80
00000000000000
00000000000000
00002FFFF40000
00002FFFF40000
00002FFFF40000
00002FFFF40000
00002FFFF40000
00002FFFF40000
00002FFFF40000
00002FFFF40000
00002FFFF40000
00002FFFF40000
00002FFFF40000
00002FFFF40000
00002FFFF40000
00002FFFF40000
00002FFFF40000
00002FFFF40000
00002FFFF40000
00002FFFF40000
00002FFFF40000
00002FFFF40000
00002FFFF40000
00002FFFF40000
00002FFFF40000
00002FFFF40000
00002FFFF40000
00002FFFF40000
ENDCHAR
STARTCHAR Eth
ENCODING 208
SWIDTH 667 0
DWIDTH 24 0
BBX 24 26 -1 0
BITMAP
0000DFFFFFFFEDA610000000
0000DFFFFFFFFFFFE8100000
0000DFFFFFFFFFFFFFD20000
0000DFFFC999ACFFFFFE3000
0000DFFF90000029FFFFD100
0000DFFF900000006FFFF800
0000DFFF900000000AFFFE10
0000DFFF9000000002FFFF70
0000DFFF9000000000BFFFB0
0000DFFF90000000008FFFE0
0000DFFF90000000005FFFF2
2FFFFFFFFFFF9000004FFFF3
2FFFFFFFFFFF9000004FFFF3
2FFFFFFFFFFF9000004FFFF3
0000DFFF90000000005FFFF3
0000DFFF90000000006FFFF2
0000DFFF90000000008FFFE0
0000DFFF9000000000CFFFB0
0000DFFF9000000002FFFF70
0000DFFF900000000AFFFF10
0000DFFF900000007FFFF800
0000DFFF9000002AFFFFD100
0000DFFFC888ACFFFFFE3000
0000DFFFFFFFFFFFFFD20000
0000DFFFFFFFFFFFE8100000
0000DFFFFFFFEDA610000000
ENDCHAR
STARTCHAR Ntilde
ENCODING 209
SWIDTH 709 0
DWIDTH 26 0
BBX 21 33 2 0
BITMAP
0000000000000011000000
0000006CD810008FF30000
000008FFFFE601DFF10000
00003FFFFFFFFFFFB00000
00008FF813CFFFFE300000
00008EF10007DFB3000000
0000000000000000000000
6FFFF500000000008FFFE0
6FFFFE10000000008FFFE0
6FFFFF90000000008FFFE0
6FFFFFF3000000008FFFE0
6FFFFFFC000000008FFFE0
6FFFFFFF700000008FFFE0
6FFFFFFFE20000008FFFE0
6FFFFEFFFA0000008FFFE0
6FFFF6FFFF5000008FFFE0
6FFFF1BFFFD100008FFFE0
6FFFF12FFFF800008FFFE0
6FFFF108FFFF30008FFFE0
6FFFF100DFFFC0008FFFE0
6FFFF1004FFFF6008FFFE0
6FFFF1000AFFFE108FFFE0
6FFFF10001EFFFA08FFFE0
6FFFF100006FFFF48FFFE0
6FFFF100000CFFFD8FFFE0
6FFFF1000003FFFFEFFFE0
6FFFF10000009FFFFFFFE0
6FFFF10000001DFFFFFFE0
6FFFF100000005FFFFFFE0
6FFFF100000000BFFFFFE0
6FFFF1000000002EFFFFE0
6FFFF10000000007FFFFE0
6FFFF10000000000DFFFE0
ENDCHAR
STARTCHAR Ograve
ENCODING 210
SWIDTH 690 0
DWIDTH 25 0
BBX 22 32 1 0
BITMAP
000003EFFF900000000000
0000004EFFF60000000000
00000004FFFF3000000000
000000005FFFD100000000
0000000005ECA400000000
0000000000000000000000
000000049CEFEC93000000
000004CFFFFFFFFFB20000
00006FFFFFFFFFFFFE5000
0006FFFFFFCBCFFFFFF400
002EFFFF7100018FFFFE10
00AFFFF500000006FFFF80
02FFFF9000000000BFFFE1
08FFFF10000000003FFFF5
0CFFFB00000000000DFFF9
0EFFF800000000000AFFFC
1FFFF5000000000008FFFE
2FFFF4000000000007FFFF
3FFFF4000000000006FFFF
3FFFF4000000000006FFFF
3FFFF4000000000007FFFF
2FFFF5000000000008FFFE
0EFFF700000000000AFFFC
0CFFFB00000000000DFFF9
08FFFF10000000003FFFF5
02FFFF8000000000AFFFE1
00BFFFF400000005FFFF80
002FFFFF7100017FFFFE10
0006FFFFFEBABFFFFFF400
00006FFFFFFFFFFFFE5000
000003CFFFFFFFFFB30000
000000049CEFEC94000000
ENDCHAR
STARTCHAR Oacute
ENCODING 211
SWIDTH 690 0
DWIDTH 25 0
BBX 22 32 1 0
BITMAP
000000000000AFFFE30000
000000000007FFFE300000
00000000003FFFE3000000
0000000001DFFE30000000
0000000005ACE400000000
0000000000000000000000
000000049CEFEC93000000
000004CFFFFFFFFFB20000
00006FFFFFFFFFFFFE5000
0006FFFFFFCBCFFFFFF400
002EFFFF7100018FFFFE10
00AFFFF500000006FFFF80
02FFFF9000000000BFFFE1
08FFFF10000000003FFFF5
0CFFFB00000000000DFFF9
0EFFF800000000000AFFFC
1FFFF5000000000008FFFE
2FFFF4000000000007FFFF
3FFFF4000000000006FFFF
3FFFF4000000000006FFFF
3FFFF4000000000007FFFF
2FFFF5000000000008FFFE
0EFFF700000000000AFFFC
0CFFFB00000000000DFFF9
08FFFF10000000003FFFF5
02FFFF8000000000AFFFE1
00BFFFF400000005FFFF80
002FFFFF7100017FFFFE10
0006FFFFFEBABFFFFFF400
00006FFFFFFFFFFFFE5000
000003CFFFFFFFFFB30000
000000049CEFEC94000000
ENDCHAR
STARTCHAR Ocircumflex
ENCODING 212
SWIDTH 690 0
DWIDTH 25 0
BBX 22 32 1 0
BITMAP
0000000006FFE400000000
000000007FFFFF60000000
00000009FFF8FFF7000000
000000AFFF406FFF900000
000004ACE50006ECA30000
0000000000000000000000
000000049CEFEC93000000
000004CFFFFFFFFFB20000
00006FFFFFFFFFFFFE5000
0006FFFFFFCBCFFFFFF400
002EFFFF7100018FFFFE10
00AFFFF500000006FFFF80
02FFFF9000000000BFFFE1
08FFFF10000000003FFFF5
0CFFFB00000000000DFFF9
0EFFF800000000000AFFFC
1FFFF5000000000008FFFE
2FFFF4000000000007FFFF
3FFFF4000000000006FFFF
3FFFF4000000000006FFFF
3FFFF4000000000007FFFF
2FFFF5000000000008FFFE
0EFFF700000000000AFFFC
0CFFFB00000000000DFFF9
08FFFF10000000003FFFF5
02FFFF8000000000AFFFE1
00BFFFF400000005FFFF80
002FFFFF7100017FFFFE10
0006FFFFFEBABFFFFFF400
00006FFFFFFFFFFFFE5000
000003CFFFFFFFFFB30000
000000049CEFEC94000000
ENDCHAR
STARTCHAR Otilde
ENCODING 213
SWIDTH 690 0
DWIDTH 25 0
BBX 22 33 1 0
BITMAP
0000000000000001100000
00000019DC60000CFD0000
000001CFFFFC404FFB0000
000007FFFFFFFEFFF60000
00000CFF416EFFFFC00000
00000DEB0002AEE9100000
0000000000000000000000
000000049CEFEC93000000
000004CFFFFFFFFFB20000
00006FFFFFFFFFFFFE5000
0006FFFFFFCBCFFFFFF400
002EFFFF7100018FFFFE10
00AFFFF500000006FFFF80
02FFFF9000000000BFFFE1
08FFFF10000000003FFFF5
0CFFFB00000000000DFFF9
0EFFF800000000000AFFFC
1FFFF5000000000008FFFE
2FFFF4000000000007FFFF
3FFFF4000000000006FFFF
3FFFF4000000000006FFFF
3FFFF4000000000007FFFF
2FFFF5000000000008FFFE
0EFFF700000000000AFFFC
0CFFFB00000000000DFFF9
08FFFF10000000003FFFF5
02FFFF8000000000AFFFE1
00BFFFF400000005FFFF80
002FFFFF7100017FFFFE10
0006FFFFFEBABFFFFFF400
00006FFFFFFFFFFFFE5000
000003CFFFFFFFFFB30000
000000049CEFEC94000000
ENDCHAR
STARTCHAR Odieresis
ENCODING 214
SWIDTH 690 0
DWIDTH 25 0
BBX 22 32 1 0
BITMAP
0000000200000001000000
000003EFD20003EFD20000
00000AFFF9000AFFF90000
00000AFFF80009FFF90000
000002CEB10002CEB20000
0000000000000000000000
000000049CEFEC93000000
000004CFFFFFFFFFB20000
00006FFFFFFFFFFFFE5000
0006FFFFFFCBCFFFFFF400
002EFFFF7100018FFFFE10
00AFFFF500000006FFFF80
02FFFF9000000000BFFFE1
08FFFF10000000003FFFF5
0CFFFB00000000000DFFF9
0EFFF800000000000AFFFC
1FFFF5000000000008FFFE
2FFFF4000000000007FFFF
3FFFF4000000000006FFFF
3FFFF4000000000006FFFF
3FFFF4000000000007FFFF
2FFFF5000000000008FFFE
0EFFF700000000000AFFFC
0CFFFB00000000000DFFF9
08FFFF10000000003FFFF5
02FFFF8000000000AFFFE1
00BFFFF400000005FFFF80
002FFFFF7100017FFFFE10
0006FFFFFEBABFFFFFF400
00006FFFFFFFFFFFFE5000
000003CFFFFFFFFFB30000
000000049CEFEC94000000
ENDCHAR
STARTCHAR multiply
ENCODING 215
SWIDTH 533 0
DWIDTH 19 0
BBX 17 16 1 4
BITMAP
008700000000078000
09FF700000007FF900
6FFFF7000007FFFF60
0AFFFF80008FFFFA00
00AFFFF808FFFFA000
0009FFFFCFFFF90000
00009FFFFFFF900000
000009FFFFF9000000
000009FFFFF9000000
00009FFFFFFF900000
0009FFFFCFFFF90000
00AFFFF808FFFFA000
0AFFFF80008FFFFA00
6FFFF8000008FFFF60
09FF700000007FF900
008700000000078000
ENDCHAR
STARTCHAR Oslash
ENCODING 216
SWIDTH 689 0
DWIDTH 25 0
BBX 23 29 1 -2
BITMAP
0000000000000000003BB800
000000049CEFEC9400CFF300
000003CFFFFFFFFFC8FF8000
00006FFFFFFFFFFFFFFD1000
0005FFFFFFCBCFFFFFF70000
002EFFFF8100017FFFFE1000
00AFFFF50000000DFFFF9000
02FFFF900000008FFFFFE100
07FFFF20000002FFDFFFF600
0BFFFC0000000BFF4DFFFA00
0EFFF80000005FF909FFFD00
1FFFF6000001DFE107FFFF00
2FFFF5000008FF6006FFFF00
2FFFF400003FFC0005FFFF10
2FFFF40000CFF30005FFFF10
1FFFF50006FF800006FFFF10
0FFFF6001EFD100007FFFF00
0EFFF8009FF5000009FFFD00
0AFFFC04FFB000000CFFFA00
07FFFF2CFF2000002FFFF600
02FFFFDFF70000009FFFF100
009FFFFFD0000004FFFF9000
002EFFFF9100017FFFFE2000
0004FFFFFECABEFFFFF50000
0001EFFFFFFFFFFFFF600000
0008FFDFFFFFFFFFC3000000
003FFC049CEFEC9400000000
00CFF3000000000000000000
015540000000000000000000
ENDCHAR
STARTCHAR Ugrave
ENCODING 217
SWIDTH 651 0
DWIDTH 23 0
BBX 20 32 2 0
BITMAP
0001CFFFD10000000000
00001DFFFA0000000000
000002DFFF6000000000
0000002DFFF300000000
00000002DDB700000000
00000000000000000000
CFFF90000000002FFFF5
CFFF90000000002FFFF5
CFFF90000000002FFFF5
CFFF90000000002FFFF5
CFFF90000000002FFFF5
CFFF90000000002FFFF5
CFFF90000000002FFFF5
CFFF90000000002FFFF5
CFFF90000000002FFFF5
CFFF90000000002FFFF5
CFFF90000000002FFFF5
CFFF90000000002FFFF5
CFFF90000000002FFFF5
CFFF90000000002FFFF5
CFFF90000000002FFFF5
CFFF90000000002FFFF5
CFFF90000000002FFFF5
CFFFA0000000002FFFF4
AFFFB0000000004FFFF3
8FFFE1000000007FFFF1
4FFFF700000001EFFFB0
0CFFFF7000002CFFFF40
03FFFFFEA99BFFFFFA00
005FFFFFFFFFFFFFB100
0003CFFFFFFFFFE70000
0000049CEFEDA7100000
ENDCHAR
STARTCHAR Uacute
ENCODING 218
SWIDTH 651 0
DWIDTH 23 0
BBX 20 32 2 0
BITMAP
00000000006FFFF60000
0000000003FFFF600000
000000001DFFF6000000
00000000AFFF70000000
00000002ACE700000000
00000000000000000000
CFFF90000000002FFFF5
CFFF90000000002FFFF5
CFFF90000000002FFFF5
CFFF90000000002FFFF5
CFFF90000000002FFFF5
CFFF90000000002FFFF5
CFFF90000000002FFFF5
CFFF90000000002FFFF5
CFFF90000000002FFFF5
CFFF90000000002FFFF5
CFFF90000000002FFFF5
CFFF90000000002FFFF5
CFFF90000000002FFFF5
CFFF90000000002FFFF5
CFFF90000000002FFFF5
CFFF90000000002FFFF5
CFFF90000000002FFFF5
CFFFA0000000002FFFF4
AFFFB0000000004FFFF3
8FFFE1000000007FFFF1
4FFFF700000001EFFFB0
0CFFFF7000002CFFFF40
03FFFFFEA99BFFFFFA00
005FFFFFFFFFFFFFB100
0003CFFFFFFFFFE70000
0000049CEFEDA7100000
ENDCHAR
STARTCHAR Ucircumflex
ENCODING 219
SWIDTH 651 0
DWIDTH 23 0
BBX 20 32 2 0
BITMAP
00000003EFF800000000
0000004EFFFF90000000
000005FFF9EFFB100000
00006FFF803EFFC10000
00019CE90003EDA60000
00000000000000000000
CFFF90000000002FFFF5
CFFF90000000002FFFF5
CFFF90000000002FFFF5
CFFF90000000002FFFF5
CFFF90000000002FFFF5
CFFF90000000002FFFF5
CFFF90000000002FFFF5
CFFF90000000002FFFF5
CFFF90000000002FFFF5
CFFF90000000002FFFF5
CFFF90000000002FFFF5
CFFF90000000002FFFF5
CFFF90000000002FFFF5
CFFF90000000002FFFF5
CFFF90000000002FFFF5
CFFF90000000002FFFF5
CFFF90000000002FFFF5
CFFFA0000000002FFFF4
AFFFB0000000004FFFF3
8FFFE1000000007FFFF1
4FFFF700000001EFFFB0
0CFFFF7000002CFFFF40
03FFFFFEA99BFFFFFA00
005FFFFFFFFFFFFFB100
0003CFFFFFFFFFE70000
0000049CEFEDA7100000
ENDCHAR
STARTCHAR Udieresis
ENCODING 220
SWIDTH 651 0
DWIDTH 23 0
BBX 20 32 2 0
BITMAP
00000210000001000000
0001CFE50001CFF50000
0006FFFD0006FFFE0000
0005FFFC0005FFFD0000
0000AED400009ED40000
00000000000000000000
CFFF90000000002FFFF5
CFFF90000000002FFFF5
CFFF90000000002FFFF5
CFFF90000000002FFFF5
CFFF90000000002FFFF5
CFFF90000000002FFFF5
CFFF90000000002FFFF5
CFFF90000000002FFFF5
CFFF90000000002FFFF5
CFFF90000000002FFFF5
CFFF90000000002FFFF5
CFFF90000000002FFFF5
CFFF90000000002FFFF5
CFFF90000000002FFFF5
CFFF90000000002FFFF5
CFFF90000000002FFFF5
CFFF90000000002FFFF5
CFFFA0000000002FFFF4
AFFFB0000000004FFFF3
8FFFE1000000007FFFF1
4FFFF700000001EFFFB0
0CFFFF7000002CFFFF40
03FFFFFEA99BFFFFFA00
005FFFFFFFFFFFFFB100
0003CFFFFFFFFFE70000
0000049CEFEDA7100000
ENDCHAR
STARTCHAR Yacute
ENCODING 221
SWIDTH 609 0
DWIDTH 22 0
BBX 22 32 0 0
BITMAP
000000000002EFFFA00000
00000000001DFFFA000000
0000000000AFFFA0000000
0000000006FFFB00000000
0000000008BDB000000000
0000000000000000000000
9FFFF500000000006FFFF8
2FFFFC0000000000DFFFE1
09FFFF4000000005FFFF70
01EFFFB00000000CFFFE10
008FFFF30000005FFFF600
001EFFFA000000CFFFD000
0007FFFF300004FFFF6000
0001EFFFA0000BFFFD0000
00006FFFF2003FFFF50000
00000DFFF900AFFFC00000
000006FFFF23FFFF400000
000000DFFF8AFFFB000000
0000005FFFEFFFF4000000
0000000CFFFFFFB0000000
00000004FFFFFF30000000
00000000BFFFFA00000000
000000005FFFF300000000
000000004FFFF300000000
000000004FFFF300000000
000000004FFFF300000000
000000004FFFF300000000
000000004FFFF300000000
000000004FFFF300000000
000000004FFFF300000000
000000004FFFF300000000
000000004FFFF300000000
ENDCHAR
STARTCHAR Thorn
ENCODING 222
SWIDTH 598 0
DWIDTH 22 0
BBX 19 26 2 0
BITMAP
6FFFD000000000000000
6FFFD000000000000000
6FFFD000000000000000
6FFFD000000000000000
6FFFD000000000000000
6FFFFFFFFFEC94000000
6FFFFFFFFFFFFFC20000
6FFFFFFFFFFFFFFE3000
6FFFE666678DFFFFE100
6FFFD00000007FFFF800
6FFFD00000000AFFFD00
6FFFD000000003FFFF20
6FFFD000000001FFFF30
6FFFD000000002FFFF20
6FFFD000000006FFFF10
6FFFD00000002EFFFB00
6FFFD0000027EFFFF400
6FFFFFFFFFFFFFFF9000
6FFFFFFFFFFFFFF80000
6FFFFFFFFFFFFA300000
6FFFE666665300000000
6FFFD000000000000000
6FFFD000000000000000
6FFFD000000000000000
6FFFD000000000000000
6FFFD000000000000000
ENDCHAR
STARTCHAR germandbls
ENCODING 223
SWIDTH 612 0
DWIDTH 22 0
BBX 19 27 2 0
BITMAP
00005ADEFDB600000000
002CFFFFFFFFD3000000
01DFFFFFFFFFFE100000
09FFFFB77CFFFF900000
1FFFF80000AFFFE00000
5FFFE100003FFFF10000
8FFFB000001FFFF10000
9FFFA000003FFFE00000
9FFFA000009FFFA00000
9FFFA00003FFFF300000
9FFFA0000BFFF9000000
9FFFA0001FFFF3000000
9FFFA0003FFFF1000000
9FFFA0002FFFF5000000
9FFFA0000CFFFE200000
9FFFA00004FFFFE30000
9FFFA000006FFFFF5000
9FFFA0000005EFFFF400
9FFFA00000003DFFFE10
9FFFA000000002FFFF70
9FFFA000000000AFFFA0
9FFFA0000000009FFFA0
9FFFA005000002EFFF80
9FFFA01FEA779EFFFF30
9FFFA05FFFFFFFFFF900
9FFFA08FFFFFFFFF9000
9FFFA015ACEFEC930000
ENDCHAR
STARTCHAR agrave
ENCODING 224
SWIDTH 541 0
DWIDTH 19 0
BBX 17 27 1 0
BITMAP
0009FFFF3000000000
0000AFFFD100000000
00000BFFFA00000000
000000BFFF70000000
0000001CDB90000000
000000000000000000
000000000000000000
000000000000000000
000027BDFEDA500000
0008FFFFFFFFFC2000
00BFFFFFFFFFFFD100
08FFFFB646AFFFF800
0DFFF9000008FFFE00
066662000002FFFF20
000000000001FFFF30
000038BDEFFFFFFF30
002BFFFFFFFFFFFF30
02EFFFFEBAABFFFF30
0BFFFD400001FFFF30
2FFFF3000001FFFF30
5FFFE0000001FFFF30
6FFFE0000004FFFF30
4FFFF700004EFFFF30
0EFFFFB78BFFFFFF30
05FFFFFFFFFFFFFF50
006FFFFFFFF6DFFF70
00029DEED9209FFFC0
ENDCHAR
STARTCHAR aacute
ENCODING 225
SWIDTH 541 0
DWIDTH 19 0
BBX 17 27 1 0
BITMAP
0000000003EFFF9000
000000001DFFFA0000
00000000AFFFA00000
00000006FFFA000000
00000009BDA0000000
000000000000000000
000000000000000000
000000000000000000
000027BDFEDA500000
0008FFFFFFFFFC2000
00BFFFFFFFFFFFD100
08FFFFB646AFFFF800
0DFFF9000008FFFE00
066662000002FFFF20
000000000001FFFF30
000038BDEFFFFFFF30
002BFFFFFFFFFFFF30
02EFFFFEBAABFFFF30
0BFFFD400001FFFF30
2FFFF3000001FFFF30
5FFFE0000001FFFF30
6FFFE0000004FFFF30
4FFFF700004EFFFF30
0EFFFFB78BFFFFFF30
05FFFFFFFFFFFFFF50
006FFFFFFFF6DFFF70
00029DEED9209FFFC0
ENDCHAR
STARTCHAR acircumflex
ENCODING 226
SWIDTH 541 0
DWIDTH 19 0
BBX 17 27 1 0
BITMAP
0000001BFFB1000000
000002CFFFFC100000
00002DFFBCFFD20000
0003EFFB11CFFE3000
0008BDC1001CDB8000
000000000000000000
000000000000000000
000000000000000000
000027BDFEDA500000
0008FFFFFFFFFC2000
00BFFFFFFFFFFFD100
08FFFFB646AFFFF800
0DFFF9000008FFFE00
066662000002FFFF20
000000000001FFFF30
000038BDEFFFFFFF30
002BFFFFFFFFFFFF30
02EFFFFEBAABFFFF30
0BFFFD400001FFFF30
2FFFF3000001FFFF30
5FFFE0000001FFFF30
6FFFE0000004FFFF30
4FFFF700004EFFFF30
0EFFFFB78BFFFFFF30
05FFFFFFFFFFFFFF50
006FFFFFFFF6DFFF70
00029DEED9209FFFC0
ENDCHAR
STARTCHAR atilde
ENCODING 227
SWIDTH 541 0
DWIDTH 19 0
BBX 17 28 1 0
BITMAP
000000000000010000
00004BDA20004FF500
0005FFFFF810BFF400
001EFFFFFFFEFFE000
005FFB12AFFFFF5000
006EF40005CFD50000
000000000000000000
000000000000000000
000000000000000000
000027BDFEDA500000
0008FFFFFFFFFC2000
00BFFFFFFFFFFFD100
08FFFFB646AFFFF800
0DFFF9000008FFFE00
066662000002FFFF20
000000000001FFFF30
000038BDEFFFFFFF30
002BFFFFFFFFFFFF30
02EFFFFEBAABFFFF30
0BFFFD400001FFFF30
2FFFF3000001FFFF30
5FFFE0000001FFFF30
6FFFE0000004FFFF30
4FFFF700004EFFFF30
0EFFFFB78BFFFFFF30
05FFFFFFFFFFFFFF50
006FFFFFFFF6DFFF70
00029DEED9209FFFC0
ENDCHAR
STARTCHAR adieresis
ENCODING 228
SWIDTH 541 0
DWIDTH 19 0
BBX 17 27 1 0
BITMAP
000011000000110000
0009FF800009FF8000
003FFFF2002FFFF200
002FFFF1002FFFF200
0007EE600007EE6000
000000000000000000
000000000000000000
000000000000000000
000027BDFEDA500000
0008FFFFFFFFFC2000
00BFFFFFFFFFFFD100
08FFFFB646AFFFF800
0DFFF9000008FFFE00
066662000002FFFF20
000000000001FFFF30
000038BDEFFFFFFF30
002BFFFFFFFFFFFF30
02EFFFFEBAABFFFF30
0BFFFD400001FFFF30
2FFFF3000001FFFF30
5FFFE0000001FFFF30
6FFFE0000004FFFF30
4FFFF700004EFFFF30
0EFFFFB78BFFFFFF30
05FFFFFFFFFFFFFF50
006FFFFFFFF6DFFF70
00029DEED9209FFFC0
ENDCHAR
STARTCHAR aring
ENCODING 229
SWIDTH 541 0
DWIDTH 19 0
BBX 17 29 1 0
BITMAP
000000069950000000
000001BFFFFB000000
000008FB22CF700000
00000DF2003FC00000
00000DF1002FC00000
00000AF7007F900000
000003EFBBFE200000
0000003BEEB2000000
000000000000000000
000000000000000000
000027BDFEDA500000
0008FFFFFFFFFC2000
00BFFFFFFFFFFFD100
08FFFFB646AFFFF800
0DFFF9000008FFFE00
066662000002FFFF20
000000000001FFFF30
000038BDEFFFFFFF30
002BFFFFFFFFFFFF30
02EFFFFEBAABFFFF30
0BFFFD400001FFFF30
2FFFF3000001FFFF30
5FFFE0000001FFFF30
6FFFE0000004FFFF30
4FFFF700004EFFFF30
0EFFFFB78BFFFFFF30
05FFFFFFFFFFFFFF50
006FFFFFFFF6DFFF70
00029DEED9209FFFC0
ENDCHAR
STARTCHAR ae
ENCODING 230
SWIDTH 844 0
DWIDTH 30 0
BBX 29 19 1 0
BITMAP
000038CEFED9300018CEFEB7100000
001AFFFFFFFFF906EFFFFFFFE50000
01CFFFFFFFFFFFDFFFFFFFFFFF6000
09FFFFE978DFFFFFFFD878EFFFF200
0EFFFB10001CFFFFFA00001DFFF900
2DEFF3000005FFFFE1000004FFFE00
000010000002FFFF80000001FFFF20
000000000001FFFF40000000EFFF40
00027BDEFFFFFFFFFFFFFFFFFFFF50
019FFFFFFFFFFFFFFFFFFFFFFFFF50
0BFFFFFFEEEEFFFFFFFFFFFFFFFF50
5FFFFC410001FFFF30000000000000
9FFFC0000001FFFF60000000000000
BFFF80000001FFFFD1000000000000
AFFFC0000018FFFFFB10000006B000
6FFFFC6459EFFFFFFFEA767AEFF500
0DFFFFFFFFFFFB8FFFFFFFFFFFFB00
02DFFFFFFFFE8005EFFFFFFFFFC300
0006BEFEDB71000016ADEFDB830000
ENDCHAR
STARTCHAR ccedilla
ENCODING 231
SWIDTH 523 0
DWIDTH 19 0
BBX 17 27 1 -8
BITMAP
000005ADEEDA500000
0003DFFFFFFFFC3000
004EFFFFFFFFFFE300
02EFFFFA78BFFFFC00
09FFFE300005FFFF50
1FFFF60000009FFF90
4FFFF10000004EEEA0
7FFFC0000000000000
8FFFA0000000000000
9FFFA0000000000000
8FFFA0000000000000
7FFFC0000000000000
4FFFE1000000266650
1FFFF60000007FFFA0
09FFFE300003EFFF50
02EFFFFA77AFFFFC00
004FFFFFFFFFFFE200
0003DFFFFFFFFB2000
000005ADEED9400000
0000001FFF10000000
0000004FFFD5000000
00000039DFFF300000
000000001EFF800000
000000001EFF800000
00000027DFFF400000
0000003FFFF9000000
0000002FDA40000000
ENDCHAR
STARTCHAR egrave
ENCODING 232
SWIDTH 536 0
DWIDTH 19 0
BBX 18 27 1 0
BITMAP
001CFFFD1000000000
0001CFFFA000000000
00001DFFF700000000
000002DFFF40000000
0000002DDB70000000
000000000000000000
000000000000000000
000000000000000000
0000039DEEDA500000
0001AFFFFFFFFC2000
001CFFFFFFFFFFE200
00BFFFFB77AFFFFB00
06FFFF600004FFFF40
0DFFFA0000008FFFA0
3FFFF30000003FFFD0
6FFFE00000001FFFF1
7FFFFFFFFFFFFFFFF2
8FFFFFFFFFFFFFFFF3
8FFFFFFFFFFFFFFFF3
6FFFD2222222222220
4FFFF1000000000000
0EFFF9000000005000
07FFFF80000019FB10
01DFFFFD867AEFFFA0
002DFFFFFFFFFFFD20
0001AFFFFFFFFFA100
0000038CEFEC830000
ENDCHAR
STARTCHAR eacute
ENCODING 233
SWIDTH 536 0
DWIDTH 19 0
BBX 18 27 1 0
BITMAP
0000000005FFFF6000
000000003EFFF60000
00000001DFFF700000
0000000AFFF7000000
0000002ACE80000000
000000000000000000
000000000000000000
000000000000000000
0000039DEEDA500000
0001AFFFFFFFFC2000
001CFFFFFFFFFFE200
00BFFFFB77AFFFFB00
06FFFF600004FFFF40
0DFFFA0000008FFFA0
3FFFF30000003FFFD0
6FFFE00000001FFFF1
7FFFFFFFFFFFFFFFF2
8FFFFFFFFFFFFFFFF3
8FFFFFFFFFFFFFFFF3
6FFFD2222222222220
4FFFF1000000000000
0EFFF9000000005000
07FFFF80000019FB10
01DFFFFD867AEFFFA0
002DFFFFFFFFFFFD20
0001AFFFFFFFFFA100
0000038CEFEC830000
ENDCHAR
STARTCHAR ecircumflex
ENCODING 234
SWIDTH 536 0
DWIDTH 19 0
BBX 18 27 1 0
BITMAP
0000002DFF80000000
000003EFFFFA000000
00005EFF9EFFB10000
0006FFF902EFFC1000
0019BE90003DDA6000
000000000000000000
000000000000000000
000000000000000000
0000039DEEDA500000
0001AFFFFFFFFC2000
001CFFFFFFFFFFE200
00BFFFFB77AFFFFB00
06FFFF600004FFFF40
0DFFFA0000008FFFA0
3FFFF30000003FFFD0
6FFFE00000001FFFF1
7FFFFFFFFFFFFFFFF2
8FFFFFFFFFFFFFFFF3
8FFFFFFFFFFFFFFFF3
6FFFD2222222222220
4FFFF1000000000000
0EFFF9000000005000
07FFFF80000019FB10
01DFFFFD867AEFFFA0
002DFFFFFFFFFFFD20
0001AFFFFFFFFFA100
0000038CEFEC830000
ENDCHAR
STARTCHAR edieresis
ENCODING 235
SWIDTH 536 0
DWIDTH 19 0
BBX 18 27 1 0
BITMAP
000021000000100000
001CFF50000BFF6000
006FFFE0005FFFE000
005FFFD0005FFFD000
0009ED400009ED4000
000000000000000000
000000000000000000
000000000000000000
0000039DEEDA500000
0001AFFFFFFFFC2000
001CFFFFFFFFFFE200
00BFFFFB77AFFFFB00
06FFFF600004FFFF40
0DFFFA0000008FFFA0
3FFFF30000003FFFD0
6FFFE00000001FFFF1
7FFFFFFFFFFFFFFFF2
8FFFFFFFFFFFFFFFF3
8FFFFFFFFFFFFFFFF3
6FFFD2222222222220
4FFFF1000000000000
0EFFF9000000005000
07FFFF80000019FB10
01DFFFFD867AEFFFA0
002DFFFFFFFFFFFD20
0001AFFFFFFFFFA100
0000038CEFEC830000
ENDCHAR
STARTCHAR igrave
ENCODING 236
SWIDTH 262 0
DWIDTH 9 0
BBX 9 27 -2 0
BITMAP
1CFFFD1000
01DFFFA000
002DFFF600
0002DFFF30
00002DDB70
0000000000
0000000000
0000000000
00007FFFC0
00007FFFC0
00007FFFC0
00007FFFC0
00007FFFC0
00007FFFC0
00007FFFC0
00007FFFC0
00007FFFC0
00007FFFC0
00007FFFC0
00007FFFC0
00007FFFC0
00007FFFC0
00007FFFC0
00007FFFC0
00007FFFC0
00007FFFC0
00007FFFC0
ENDCHAR
STARTCHAR iacute
ENCODING 237
SWIDTH 262 0
DWIDTH 9 0
BBX 9 27 2 0
BITMAP
0006FFFF50
003FFFF600
01DFFF6000
0AFFF60000
2ACE700000
0000000000
0000000000
0000000000
7FFFC00000
7FFFC00000
7FFFC00000
7FFFC00000
7FFFC00000
7FFFC00000
7FFFC00000
7FFFC00000
7FFFC00000
7FFFC00000
7FFFC00000
7FFFC00000
7FFFC00000
7FFFC00000
7FFFC00000
7FFFC00000
7FFFC00000
7FFFC00000
7FFFC00000
ENDCHAR
STARTCHAR icircumflex
ENCODING 238
SWIDTH 262 0
DWIDTH 9 0
BBX 13 27 -2 0
BITMAP
00003EFF800000
0004EFFFF90000
005FFF9EFFB100
06FFF803EFFC10
19CE90003EDA60
00000000000000
00000000000000
00000000000000
00007FFFC00000
00007FFFC00000
00007FFFC00000
00007FFFC00000
00007FFFC00000
00007FFFC00000
00007FFFC00000
00007FFFC00000
00007FFFC00000
00007FFFC00000
00007FFFC00000
00007FFFC00000
00007FFFC00000
00007FFFC00000
00007FFFC00000
00007FFFC00000
00007FFFC00000
00007FFFC00000
00007FFFC00000
ENDCHAR
STARTCHAR idieresis
ENCODING 239
SWIDTH 262 0
DWIDTH 9 0
BBX 13 27 -2 0
BITMAP
00210000001000
1CFE50001CFF50
6FFFD0006FFFE0
5FFFC0005FFFD0
0AED400009ED40
00000000000000
00000000000000
00000000000000
00007FFFC00000
00007FFFC00000
00007FFFC00000
00007FFFC00000
00007FFFC00000
00007FFFC00000
00007FFFC00000
00007FFFC00000
00007FFFC00000
00007FFFC00000
00007FFFC00000
00007FFFC00000
00007FFFC00000
00007FFFC00000
00007FFFC00000
00007FFFC00000
00007FFFC00000
00007FFFC00000
00007FFFC00000
ENDCHAR
STARTCHAR eth
ENCODING 240
SWIDTH 581 0
DWIDTH 21 0
BBX 19 27 1 0
BITMAP
0000AB72000000000000
0001FFFFB40001950000
0006FFFFFFB25DFE2000
0006CFFFFFFFFFF70000
0000028EFFFFFD200000
00000003EFFFFF600000
0000007EFFFFFFF30000
000007FFD43EFFFD0000
000000B80005FFFF7000
000000000000AFFFD000
000005AEFEC73FFFF400
0002CFFFFFFFDEFFF900
002EFFFFFFFFFFFFFC00
00CFFFFC7569EFFFFE00
05FFFF8000001AFFFF10
0AFFFC00000002FFFF20
0EFFF600000002FFFF20
1FFFF200000002FFFF20
2FFFF100000003FFFF10
2FFFF200000005FFFE00
0FFFF60000000AFFFA00
0BFFFC0000002FFFF500
04FFFFA00001CFFFD000
009FFFFD868EFFFF3000
001CFFFFFFFFFFF60000
00008FFFFFFFFE400000
0000028CEFEB71000000
ENDCHAR
STARTCHAR ntilde
ENCODING 241
SWIDTH 556 0
DWIDTH 20 0
BBX 16 28 2 0
BITMAP
0000000000002000
0004BDA30003FF70
004FFFFF910AFF50
00DFFFFFFFEFFE10
03FFC229FFFFF700
04EE50004CED6000
0000000000000000
0000000000000000
0000000000000000
DFFF3049DFEC8100
DFFF49FFFFFFFD30
DFFFDFFFFFFFFFD0
DFFFFFD98AFFFFF5
DFFFF700003FFFF9
DFFF9000000AFFFC
DFFF60000007FFFD
DFFF60000006FFFD
DFFF60000006FFFD
DFFF60000006FFFD
DFFF60000006FFFD
DFFF60000006FFFD
DFFF60000006FFFD
DFFF60000006FFFD
DFFF60000006FFFD
DFFF60000006FFFD
DFFF60000006FFFD
DFFF60000006FFFD
DFFF60000006FFFD
ENDCHAR
STARTCHAR ograve
ENCODING 242
SWIDTH 569 0
DWIDTH 21 0
BBX 19 27 1 0
BITMAP
0007FFFF500000000000
00008FFFE20000000000
000008FFFC0000000000
0000009FFF9000000000
0000000AEC9100000000
00000000000000000000
00000000000000000000
00000000000000000000
0000049DEFDB71000000
0002BFFFFFFFFE600000
002EFFFFFFFFFFF80000
01DFFFFC879EFFFF5000
07FFFF600002DFFFE100
0EFFF90000002FFFF600
4FFFF20000000AFFFB00
7FFFD000000006FFFE00
9FFFB000000004FFFF00
9FFFA000000003FFFF10
8FFFB000000004FFFF00
7FFFC000000006FFFE00
3FFFF10000000AFFFB00
0EFFF80000002FFFF600
08FFFF600001CFFFE100
01DFFFFB779EFFFF5000
003EFFFFFFFFFFF80000
0002BFFFFFFFFE500000
0000049DEFEB71000000
ENDCHAR
STARTCHAR oacute
ENCODING 243
SWIDTH 569 0
DWIDTH 21 0
BBX 19 27 1 0
BITMAP
0000000001EFFFB10000
000000000BFFFB100000
000000008FFFC1000000
00000004FFFC10000000
00000007BDC100000000
00000000000000000000
00000000000000000000
00000000000000000000
0000049DEFDB71000000
0002BFFFFFFFFE600000
002EFFFFFFFFFFF80000
01DFFFFC879EFFFF5000
07FFFF600002DFFFE100
0EFFF90000002FFFF600
4FFFF20000000AFFFB00
7FFFD000000006FFFE00
9FFFB000000004FFFF00
9FFFA000000003FFFF10
8FFFB000000004FFFF00
7FFFC000000006FFFE00
3FFFF10000000AFFFB00
0EFFF80000002FFFF600
08FFFF600001CFFFE100
01DFFFFB779EFFFF5000
003EFFFFFFFFFFF80000
0002BFFFFFFFFE500000
0000049DEFEB71000000
ENDCHAR
STARTCHAR ocircumflex
ENCODING 244
SWIDTH 569 0
DWIDTH 21 0
BBX 19 27 1 0
BITMAP
0000000AFFC200000000
000001BFFFFD20000000
00001CFFDAFFE3000000
0002DFFD20AFFE500000
0007BDD2000ADB910000
00000000000000000000
00000000000000000000
00000000000000000000
0000049DEFDB71000000
0002BFFFFFFFFE600000
002EFFFFFFFFFFF80000
01DFFFFC879EFFFF5000
07FFFF600002DFFFE100
0EFFF90000002FFFF600
4FFFF20000000AFFFB00
7FFFD000000006FFFE00
9FFFB000000004FFFF00
9FFFA000000003FFFF10
8FFFB000000004FFFF00
7FFFC000000006FFFE00
3FFFF10000000AFFFB00
0EFFF80000002FFFF600
08FFFF600001CFFFE100
01DFFFFB779EFFFF5000
003EFFFFFFFFFFF80000
0002BFFFFFFFFE500000
0000049DEFEB71000000
ENDCHAR
STARTCHAR otilde
ENCODING 245
SWIDTH 569 0
DWIDTH 21 0
BBX 19 28 1 0
BITMAP
00000000000002000000
00003BDB30002FF80000
0003FFFFF9209FF60000
000CFFFFFFFEFFF20000
002FFC229FFFFF700000
004EE60004CED7000000
00000000000000000000
00000000000000000000
00000000000000000000
0000049DEFDB71000000
0002BFFFFFFFFE600000
002EFFFFFFFFFFF80000
01DFFFFC879EFFFF5000
07FFFF600002DFFFE100
0EFFF90000002FFFF600
4FFFF20000000AFFFB00
7FFFD000000006FFFE00
9FFFB000000004FFFF00
9FFFA000000003FFFF10
8FFFB000000004FFFF00
7FFFC000000006FFFE00
3FFFF10000000AFFFB00
0EFFF80000002FFFF600
08FFFF600001CFFFE100
01DFFFFB779EFFFF5000
003EFFFFFFFFFFF80000
0002BFFFFFFFFE500000
0000049DEFEB71000000
ENDCHAR
STARTCHAR odieresis
ENCODING 246
SWIDTH 569 0
DWIDTH 21 0
BBX 19 27 1 0
BITMAP
00001100000011000000
0007FFA00007FFB00000
000FFFF4000FFFF40000
000EFFF3000EFFF40000
0005DE800005DE800000
00000000000000000000
00000000000000000000
00000000000000000000
0000049DEFDB71000000
0002BFFFFFFFFE600000
002EFFFFFFFFFFF80000
01DFFFFC879EFFFF5000
07FFFF600002DFFFE100
0EFFF90000002FFFF600
4FFFF20000000AFFFB00
7FFFD000000006FFFE00
9FFFB000000004FFFF00
9FFFA000000003FFFF10
8FFFB000000004FFFF00
7FFFC000000006FFFE00
3FFFF10000000AFFFB00
0EFFF80000002FFFF600
08FFFF600001CFFFE100
01DFFFFB779EFFFF5000
003EFFFFFFFFFFF80000
0002BFFFFFFFFE500000
0000049DEFEB71000000
ENDCHAR
STARTCHAR divide
ENCODING 247
SWIDTH 570 0
DWIDTH 21 0
BBX 18 20 1 2
BITMAP
000000028840000000
0000001EFFF4000000
0000005FFFF9000000
0000003FFFF7000000
00000007EFA1000000
000000000000000000
000000000000000000
000000000000000000
CFFFFFFFFFFFFFFFFF
CFFFFFFFFFFFFFFFFF
CFFFFFFFFFFFFFFFFF
9BBBBBBBBBBBBBBBBB
000000000000000000
000000000000000000
000000003300000000
0000000AFFD2000000
0000004FFFF8000000
0000004FFFF8000000
0000000CFFE2000000
000000004510000000
ENDCHAR
STARTCHAR oslash
ENCODING 248
SWIDTH 566 0
DWIDTH 20 0
BBX 19 24 1 -3
BITMAP
00000000000005EE3000
0000000000000CFB0000
0000049DEFDB9FF30000
0002BFFFFFFFFFC00000
002EFFFFFFFFFFF70000
01DFFFFC879FFFFF5000
07FFFF60006FFFFFD100
0EFFF90000DFBFFFF600
4FFFF20006FF39FFFA00
7FFFD0000DFA05FFFD00
9FFFB0007FF203FFFF00
9FFFA001EFA003FFFF10
8FFFA007FF2004FFFF00
6FFFC01EF90006FFFE00
3FFFF17FF2000AFFFB00
0EFFF8EF90002FFFF600
07FFFFFF2001CFFFE100
00DFFFFD779EFFFF5000
002DFFFFFFFFFFF80000
0003FFFFFFFFFE500000
0008FE9CEFEB71000000
001EF800000000000000
008FE100000000000000
00111000000000000000
ENDCHAR
STARTCHAR ugrave
ENCODING 249
SWIDTH 555 0
DWIDTH 20 0
BBX 16 27 2 0
BITMAP
009FFFF300000000
0009FFFD10000000
0000AFFFB0000000
00000BFFF7000000
000001BDB9100000
0000000000000000
0000000000000000
0000000000000000
EFFF50000006FFFD
EFFF50000006FFFD
EFFF50000006FFFD
EFFF50000006FFFD
EFFF50000006FFFD
EFFF50000006FFFD
EFFF50000006FFFD
EFFF50000006FFFD
EFFF50000006FFFD
EFFF50000006FFFD
EFFF50000006FFFD
EFFF50000006FFFD
DFFF60000006FFFD
CFFF90000009FFFD
9FFFE200006FFFFD
5FFFFE989DFFFFFD
0CFFFFFFFFFFFFFD
02DFFFFFFFD6FFFD
0017CEFEB603FFFD
ENDCHAR
STARTCHAR uacute
ENCODING 250
SWIDTH 555 0
DWIDTH 20 0
BBX 16 27 2 0
BITMAP
000000002EFFFA00
00000001DFFFA000
0000000AFFFA0000
0000006FFFB00000
0000008BDB000000
0000000000000000
0000000000000000
0000000000000000
EFFF50000006FFFD
EFFF50000006FFFD
EFFF50000006FFFD
EFFF50000006FFFD
EFFF50000006FFFD
EFFF50000006FFFD
EFFF50000006FFFD
EFFF50000006FFFD
EFFF50000006FFFD
EFFF50000006FFFD
EFFF50000006FFFD
EFFF50000006FFFD
DFFF60000006FFFD
CFFF90000009FFFD
9FFFE200006FFFFD
5FFFFE989DFFFFFD
0CFFFFFFFFFFFFFD
02DFFFFFFFD6FFFD
0017CEFEB603FFFD
ENDCHAR
STARTCHAR ucircumflex
ENCODING 251
SWIDTH 555 0
DWIDTH 20 0
BBX 16 27 2 0
BITMAP
000001BFFB100000
00001CFFFFC20000
0002DFFBBFFD2000
003EFFC11CFFE300
008BDC1001CDB800
0000000000000000
0000000000000000
0000000000000000
EFFF50000006FFFD
EFFF50000006FFFD
EFFF50000006FFFD
EFFF50000006FFFD
EFFF50000006FFFD
EFFF50000006FFFD
EFFF50000006FFFD
EFFF50000006FFFD
EFFF50000006FFFD
EFFF50000006FFFD
EFFF50000006FFFD
EFFF50000006FFFD
DFFF60000006FFFD
CFFF90000009FFFD
9FFFE200006FFFFD
5FFFFE989DFFFFFD
0CFFFFFFFFFFFFFD
02DFFFFFFFD6FFFD
0017CEFEB603FFFD
ENDCHAR
STARTCHAR udieresis
ENCODING 252
SWIDTH 555 0
DWIDTH 20 0
BBX 16 27 2 0
BITMAP
0001100000011000
009FF900008FF900
02FFFF2002FFFF20
02FFFF2001FFFF20
007EE600006EE700
0000000000000000
0000000000000000
0000000000000000
EFFF50000006FFFD
EFFF50000006FFFD
EFFF50000006FFFD
EFFF50000006FFFD
EFFF50000006FFFD
EFFF50000006FFFD
EFFF50000006FFFD
EFFF50000006FFFD
EFFF50000006FFFD
EFFF50000006FFFD
EFFF50000006FFFD
EFFF50000006FFFD
DFFF60000006FFFD
CFFF90000009FFFD
9FFFE200006FFFFD
5FFFFE989DFFFFFD
0CFFFFFFFFFFFFFD
02DFFFFFFFD6FFFD
0017CEFEB603FFFD
ENDCHAR
STARTCHAR yacute
ENCODING 253
SWIDTH 486 0
DWIDTH 18 0
BBX 18 34 0 -7
BITMAP
0000000002EFFFA000
000000001CFFFA0000
000000009FFFA00000
00000006FFFB000000
00000008BDB0000000
000000000000000000
000000000000000000
000000000000000000
9FFFE00000007FFFF1
4FFFF4000000BFFFB0
0DFFF9000001FFFF60
08FFFE000006FFFF10
02FFFF40000AFFFA00
00CFFF90000EFFF500
006FFFD0004FFFE000
001FFFF3009FFF9000
000AFFF800EFFF4000
0005FFFD03FFFD0000
0000EFFF38FFF80000
00009FFF8DFFF30000
00004FFFEFFFC00000
00000DFFFFFF700000
000008FFFFFF200000
000002FFFFFC000000
000000CFFFF6000000
0000006FFFF1000000
0000003FFFB0000000
0000008FFF50000000
000001EFFE10000000
00000AFFF900000000
029AEFFFF300000000
04FFFFFF9000000000
04FFFFFA0000000000
03DFEB500000000000
ENDCHAR
STARTCHAR thorn
ENCODING 254
SWIDTH 573 0
DWIDTH 21 0
BBX 17 34 2 -7
BITMAP
BFFF80000000000000
BFFF80000000000000
BFFF80000000000000
BFFF80000000000000
BFFF80000000000000
BFFF80000000000000
BFFF80000000000000
BFFF80000000000000
BFFF805BEFEB600000
BFFFABFFFFFFFC2000
BFFFFFFFFFFFFFD100
BFFFFFD98AFFFFF900
BFFFF700002DFFFF20
BFFFA0000003FFFF70
BFFF80000000BFFFA0
BFFF800000007FFFD0
BFFF800000005FFFE0
BFFF800000005FFFE0
BFFF800000005FFFE0
BFFF800000007FFFD0
BFFF80000000BFFFA0
BFFFA0000002FFFF70
BFFFF600001CFFFF10
BFFFFFC769EFFFF800
BFFFFFFFFFFFFFC100
BFFFACFFFFFFFC1000
BFFF805BEFEB600000
BFFF80000000000000
BFFF80000000000000
BFFF80000000000000
BFFF80000000000000
BFFF80000000000000
BFFF80000000000000
BFFF80000000000000
ENDCHAR
STARTCHAR ydieresis
ENCODING 255
SWIDTH 486 0
DWIDTH 18 0
BBX 18 34 0 -7
BITMAP
000011000000110000
0009FF900008FF9000
002FFFF2001FFFF300
001FFFF2001FFFF200
0006EE700006EE7000
000000000000000000
000000000000000000
000000000000000000
9FFFE00000007FFFF1
4FFFF4000000BFFFB0
0DFFF9000001FFFF60
08FFFE000006FFFF10
02FFFF40000AFFFA00
00CFFF90000EFFF500
006FFFD0004FFFE000
001FFFF3009FFF9000
000AFFF800EFFF4000
0005FFFD03FFFD0000
0000EFFF38FFF80000
00009FFF8DFFF30000
00004FFFEFFFC00000
00000DFFFFFF700000
000008FFFFFF200000
000002FFFFFC000000
000000CFFFF6000000
0000006FFFF1000000
0000003FFFB0000000
0000008FFF50000000
000001EFFE10000000
00000AFFF900000000
029AEFFFF300000000
04FFFFFF9000000000
04FFFFFA0000000000
03DFEB500000000000
ENDCHAR
STARTCHAR Amacron
ENCODING 256
SWIDTH 665 0
DWIDTH 24 0
BBX 24 31 0 0
BITMAP
000000BCCCCCCCCCCC200000
000000EFFFFFFFFFFF200000
000000EFFFFFFFFFFF200000
000000000000000000000000
000000000000000000000000
0000000003FFFF2000000000
0000000009FFFF8000000000
000000000EFFFFD000000000
000000005FFFFFF400000000
00000000AFFFFFFA00000000
00000001FFFEFFFE10000000
00000007FFF9AFFF60000000
0000000CFFF45FFFB0000000
0000003FFFE00EFFF2000000
0000008FFF8009FFF8000000
000000EFFF3004FFFD000000
000004FFFD0000EFFF400000
00000AFFF800008FFF900000
00001FFFF200003FFFE10000
00006FFFC000000DFFF60000
0000CFFF70000007FFFB0000
0002FFFFFFFFFFFFFFFF2000
0008FFFFFFFFFFFFFFFF7000
000DFFFFFFFFFFFFFFFFD000
004FFFF9999999999FFFF300
00AFFFB0000000000CFFF900
01EFFF600000000007FFFE10
06FFFF100000000002FFFF50
0BFFFB000000000000CFFFB0
2FFFF60000000000007FFFF2
8FFFF20000000000002FFFF7
ENDCHAR
STARTCHAR amacron
ENCODING 257
SWIDTH 541 0
DWIDTH 19 0
BBX 17 25 1 0
BITMAP
000CCCCCCCCCCCC100
000FFFFFFFFFFFF100
000FFFFFFFFFFFF100
000000000000000000
000000000000000000
000000000000000000
000027BDFEDA500000
0008FFFFFFFFFC2000
00BFFFFFFFFFFFD100
08FFFFB646AFFFF800
0DFFF9000008FFFE00
066662000002FFFF20
000000000001FFFF30
000038BDEFFFFFFF30
002BFFFFFFFFFFFF30
02EFFFFEBAABFFFF30
0BFFFD400001FFFF30
2FFFF3000001FFFF30
5FFFE0000001FFFF30
6FFFE0000004FFFF30
4FFFF700004EFFFF30
0EFFFFB78BFFFFFF30
05FFFFFFFFFFFFFF50
006FFFFFFFF6DFFF70
00029DEED9209FFFC0
ENDCHAR
STARTCHAR Abreve
ENCODING 258
SWIDTH 665 0
DWIDTH 24 0
BBX 24 32 0 0
BITMAP
0000009FFA00008FFA000000
0000006FFE2001DFF8000000
0000001EFFE99DFFE2000000
00000003EFFFFFFE50000000
0000000018DEFD9200000000
000000000000000000000000
0000000003FFFF2000000000
0000000009FFFF8000000000
000000000EFFFFD000000000
000000005FFFFFF400000000
00000000AFFFFFFA00000000
00000001FFFEFFFE10000000
00000007FFF9AFFF60000000
0000000CFFF45FFFB0000000
0000003FFFE00EFFF2000000
0000008FFF8009FFF8000000
000000EFFF3004FFFD000000
000004FFFD0000EFFF400000
00000AFFF800008FFF900000
00001FFFF200003FFFE10000
00006FFFC000000DFFF60000
0000CFFF70000007FFFB0000
0002FFFFFFFFFFFFFFFF2000
0008FFFFFFFFFFFFFFFF7000
000DFFFFFFFFFFFFFFFFD000
004FFFF9999999999FFFF300
00AFFFB0000000000CFFF900
01EFFF600000000007FFFE10
06FFFF100000000002FFFF50
0BFFFB000000000000CFFFB0
2FFFF60000000000007FFFF2
8FFFF20000000000002FFFF7
ENDCHAR
STARTCHAR abreve
ENCODING 259
SWIDTH 541 0
DWIDTH 19 0
BBX 17 27 1 0
BITMAP
000AFF900009FF9000
0007FFD1001EFF6000
0001EFFE99EFFE1000
00004EFFFFFFE40000
0000029DFFD8200000
000000000000000000
000000000000000000
000000000000000000
000027BDFEDA500000
0008FFFFFFFFFC2000
00BFFFFFFFFFFFD100
08FFFFB646AFFFF800
0DFFF9000008FFFE00
066662000002FFFF20
000000000001FFFF30
000038BDEFFFFFFF30
002BFFFFFFFFFFFF30
02EFFFFEBAABFFFF30
0BFFFD400001FFFF30
2FFFF3000001FFFF30
5FFFE0000001FFFF30
6FFFE0000004FFFF30
4FFFF700004EFFFF30
0EFFFFB78BFFFFFF30
05FFFFFFFFFFFFFF50
006FFFFFFFF6DFFF70
00029DEED9209FFFC0
ENDCHAR
STARTCHAR Aogonek
ENCODING 260
SWIDTH 665 0
DWIDTH 24 0
BBX 24 33 0 -7
BITMAP
0000000003FFFF2000000000
0000000009FFFF8000000000
000000000EFFFFD000000000
000000005FFFFFF400000000
00000000AFFFFFFA00000000
00000001FFFEFFFE10000000
00000007FFF9AFFF60000000
0000000CFFF45FFFB0000000
0000003FFFE00EFFF2000000
0000008FFF8009FFF8000000
000000EFFF3004FFFD000000
000004FFFD0000EFFF400000
00000AFFF800008FFF900000
00001FFFF200003FFFE10000
00006FFFC000000DFFF60000
0000CFFF70000007FFFB0000
0002FFFFFFFFFFFFFFFF2000
0008FFFFFFFFFFFFFFFF7000
000DFFFFFFFFFFFFFFFFD000
004FFFF9999999999FFFF300
00AFFFB0000000000CFFF900
01EFFF600000000007FFFE10
06FFFF100000000002FFFF50
0BFFFB000000000000DFFFB0
2FFFF60000000000008FFFF2
8FFFF20000000000003FFFF7
000000000000000001AFFA20
00000000000000000CFF8000
00000000000000006FFD0000
00000000000000009FFD0010
00000000000000009FFFEEA0
00000000000000003FFFFFC0
000000000000000003BEEC60
ENDCHAR
STARTCHAR aogonek
ENCODING 261
SWIDTH 541 0
DWIDTH 19 0
BBX 17 26 1 -7
BITMAP
000027BDFEDA500000
0008FFFFFFFFFC2000
00BFFFFFFFFFFFD100
08FFFFB646AFFFF800
0DFFF9000008FFFE00
066662000002FFFF20
000000000001FFFF30
000038BDEFFFFFFF30
002BFFFFFFFFFFFF30
02EFFFFEBAABFFFF30
0BFFFD400001FFFF30
2FFFF3000001FFFF30
5FFFE0000001FFFF30
6FFFE0000004FFFF30
4FFFF700004EFFFF30
0EFFFFB78BFFFFFF30
05FFFFFFFFFFFFFF50
006FFFFFFFF6DFFF70
00029DEED920AFFFC0
000000000004EFE600
00000000004FFE3000
0000000000CFF70000
0000000000FFF70110
0000000000EFFFDF40
00000000008FFFFF70
000000000006DEDA30
ENDCHAR
STARTCHAR Cacute
ENCODING 262
SWIDTH 652 0
DWIDTH 24 0
BBX 22 33 1 0
BITMAP
000000000002EFFFA00000
00000000001DFFFA000000
0000000000AFFFA0000000
0000000006FFFB00000000
0000000008BDB000000000
0000000000000000000000
0000000000000000000000
00000005ADEFEC94000000
000005DFFFFFFFFFC30000
00008FFFFFFFFFFFFF5000
0008FFFFFDA9BEFFFFE300
004FFFFD4000006FFFFC00
00CFFFE200000006FFFF50
04FFFF6000000000DFFFA0
09FFFE00000000008FFFD0
0DFFFA00000000004CCCC1
0FFFF70000000000000000
2FFFF50000000000000000
3FFFF40000000000000000
3FFFF40000000000000000
3FFFF40000000000000000
3FFFF40000000000000000
2FFFF50000000000000000
1FFFF70000000000000000
0DFFF900000000004AAAA1
09FFFE00000000008FFFE0
04FFFF5000000000DFFFA0
00DFFFD100000006FFFF50
005FFFFD3000006FFFFD00
0009FFFFFCA9BEFFFFF300
0000AFFFFFFFFFFFFF5000
000006EFFFFFFFFFC20000
00000016ADFFEC83000000
ENDCHAR
STARTCHAR cacute
ENCODING 263
SWIDTH 523 0
DWIDTH 19 0
BBX 17 27 1 0
BITMAP
000000000BFFFD2000
000000008FFFD20000
00000004FFFE200000
0000002EFFE2000000
0000005ADD30000000
000000000000000000
000000000000000000
000000000000000000
000005ADEEDA500000
0003DFFFFFFFFC3000
004EFFFFFFFFFFE300
02EFFFFA78BFFFFC00
09FFFE300005FFFF50
1FFFF60000009FFF90
4FFFF10000004EEEA0
7FFFC0000000000000
8FFFA0000000000000
9FFFA0000000000000
8FFFA0000000000000
7FFFC0000000000000
4FFFE1000000266650
1FFFF60000007FFFA0
09FFFE300003EFFF50
02EFFFFA77AFFFFC00
004FFFFFFFFFFFE200
0003DFFFFFFFFB2000
000005ADEED9400000
ENDCHAR
STARTCHAR Ccircumflex
ENCODING 264
SWIDTH 652 0
DWIDTH 24 0
BBX 22 33 1 0
BITMAP
000000001BFFB100000000
00000001CFFFFC20000000
0000002DFFBBFFD2000000
000003EFFC11CFFE300000
000008BDC1001CDB800000
0000000000000000000000
0000000000000000000000
00000005ADEFEC94000000
000005DFFFFFFFFFC30000
00008FFFFFFFFFFFFF5000
0008FFFFFDA9BEFFFFE300
004FFFFD4000006FFFFC00
00CFFFE200000006FFFF50
04FFFF6000000000DFFFA0
09FFFE00000000008FFFD0
0DFFFA00000000004CCCC1
0FFFF70000000000000000
2FFFF50000000000000000
3FFFF40000000000000000
3FFFF40000000000000000
3FFFF40000000000000000
3FFFF40000000000000000
2FFFF50000000000000000
1FFFF70000000000000000
0DFFF900000000004AAAA1
09FFFE00000000008FFFE0
04FFFF5000000000DFFFA0
00DFFFD100000006FFFF50
005FFFFD3000006FFFFD00
0009FFFFFCA9BEFFFFF300
0000AFFFFFFFFFFFFF5000
000006EFFFFFFFFFC20000
00000016ADFFEC83000000
ENDCHAR
STARTCHAR ccircumflex
ENCODING 265
SWIDTH 523 0
DWIDTH 19 0
BBX 17 27 1 0
BITMAP
0000007FFE30000000
000008FFFFE5000000
0000AFFE9FFF600000
001BFFE307FFF70000
005ACE40008ECA2000
000000000000000000
000000000000000000
000000000000000000
000005ADEEDA500000
0003DFFFFFFFFC3000
004EFFFFFFFFFFE300
02EFFFFA78BFFFFC00
09FFFE300005FFFF50
1FFFF60000009FFF90
4FFFF10000004EEEA0
7FFFC0000000000000
8FFFA0000000000000
9FFFA0000000000000
8FFFA0000000000000
7FFFC0000000000000
4FFFE1000000266650
1FFFF60000007FFFA0
09FFFE300003EFFF50
02EFFFFA77AFFFFC00
004FFFFFFFFFFFE200
0003DFFFFFFFFB2000
000005ADEED9400000
ENDCHAR
STARTCHAR Cdotaccent
ENCODING 266
SWIDTH 652 0
DWIDTH 24 0
BBX 22 33 1 0
BITMAP
0000000000440000000000
000000000CFFC000000000
000000003FFFF400000000
000000002FFFF300000000
0000000007EE7000000000
0000000000000000000000
0000000000000000000000
00000005ADEFEC94000000
000005DFFFFFFFFFC30000
00008FFFFFFFFFFFFF5000
0008FFFFFDA9BEFFFFE300
004FFFFD4000006FFFFC00
00CFFFE200000006FFFF50
04FFFF6000000000DFFFA0
09FFFE00000000008FFFD0
0DFFFA00000000004CCCC1
0FFFF70000000000000000
2FFFF50000000000000000
3FFFF40000000000000000
3FFFF40000000000000000
3FFFF40000000000000000
3FFFF40000000000000000
2FFFF50000000000000000
1FFFF70000000000000000
0DFFF900000000004AAAA1
09FFFE00000000008FFFE0
04FFFF5000000000DFFFA0
00DFFFD100000006FFFF50
005FFFFD3000006FFFFD00
0009FFFFFCA9BEFFFFF300
0000AFFFFFFFFFFFFF5000
000006EFFFFFFFFFC20000
00000016ADFFEC83000000
ENDCHAR
STARTCHAR cdotaccent
ENCODING 267
SWIDTH 523 0
DWIDTH 19 0
BBX 17 27 1 0
BITMAP
000000024100000000
0000007FFE30000000
000000DFFF90000000
000000CFFF80000000
0000003DEB10000000
000000000000000000
000000000000000000
000000000000000000
000005ADEEDA500000
0003DFFFFFFFFC3000
004EFFFFFFFFFFE300
02EFFFFA78BFFFFC00
09FFFE300005FFFF50
1FFFF60000009FFF90
4FFFF10000004EEEA0
7FFFC0000000000000
8FFFA0000000000000
9FFFA0000000000000
8FFFA0000000000000
7FFFC0000000000000
4FFFE1000000266650
1FFFF60000007FFFA0
09FFFE300003EFFF50
02EFFFFA77AFFFFC00
004FFFFFFFFFFFE200
0003DFFFFFFFFB2000
000005ADEED9400000
ENDCHAR
STARTCHAR Ccaron
ENCODING 268
SWIDTH 652 0
DWIDTH 24 0
BBX 22 33 1 0
BITMAP
00001CFFC1001DFFC10000
000001CFFC11CFFC100000
0000001CFFBCFFC1000000
00000001CFFFFC10000000
000000001CFFC100000000
0000000000000000000000
0000000000000000000000
00000005ADEFEC94000000
000005DFFFFFFFFFC30000
00008FFFFFFFFFFFFF5000
0008FFFFFDA9BEFFFFE300
004FFFFD4000006FFFFC00
00CFFFE200000006FFFF50
04FFFF6000000000DFFFA0
09FFFE00000000008FFFD0
0DFFFA00000000004CCCC1
0FFFF70000000000000000
2FFFF50000000000000000
3FFFF40000000000000000
3FFFF40000000000000000
3FFFF40000000000000000
3FFFF40000000000000000
2FFFF50000000000000000
1FFFF70000000000000000
0DFFF900000000004AAAA1
09FFFE00000000008FFFE0
04FFFF5000000000DFFFA0
00DFFFD100000006FFFF50
005FFFFD3000006FFFFD00
0009FFFFFCA9BEFFFFF300
0000AFFFFFFFFFFFFF5000
000006EFFFFFFFFFC20000
00000016ADFFEC83000000
ENDCHAR
STARTCHAR ccaron
ENCODING 269
SWIDTH 523 0
DWIDTH 19 0
BBX 17 27 1 0
BITMAP
008FFF40009FFE4000
0008FFE408FFE40000
00008FFE9FFE400000
000007FFFFE3000000
0000007FFE30000000
000000000000000000
000000000000000000
000000000000000000
000005ADEEDA500000
0003DFFFFFFFFC3000
004EFFFFFFFFFFE300
02EFFFFA78BFFFFC00
09FFFE300005FFFF50
1FFFF60000009FFF90
4FFFF10000004EEEA0
7FFFC0000000000000
8FFFA0000000000000
9FFFA0000000000000
8FFFA0000000000000
7FFFC0000000000000
4FFFE1000000266650
1FFFF60000007FFFA0
09FFFE300003EFFF50
02EFFFFA77AFFFFC00
004FFFFFFFFFFFE200
0003DFFFFFFFFB2000
000005ADEED9400000
ENDCHAR
STARTCHAR Dcaron
ENCODING 270
SWIDTH 653 0
DWIDTH 24 0
BBX 20 33 2 0
BITMAP
01CFFD1001CFFC100000
001CFFC11CFFC1000000
0001CFFCCFFC10000000
00001CFFFFC100000000
000001CFFC1000000000
00000000000000000000
00000000000000000000
6FFFFFFFFEC830000000
6FFFFFFFFFFFFC400000
6FFFFFFFFFFFFFF80000
6FFFF9999BEFFFFF8000
6FFFF1000005DFFFF600
6FFFF10000001DFFFE10
6FFFF100000003FFFF80
6FFFF1000000009FFFE0
6FFFF1000000004FFFF3
6FFFF1000000001FFFF6
6FFFF1000000000DFFF9
6FFFF1000000000CFFFA
6FFFF1000000000CFFFA
6FFFF1000000000CFFFA
6FFFF1000000000CFFFA
6FFFF1000000000DFFF9
6FFFF1000000001FFFF6
6FFFF1000000004FFFF3
6FFFF100000000AFFFE0
6FFFF100000003FFFF80
6FFFF10000002DFFFE10
6FFFF1000005EFFFF600
6FFFF9889AEFFFFF9000
6FFFFFFFFFFFFFF80000
6FFFFFFFFFFFFC300000
6FFFFFFFFEB830000000
ENDCHAR
STARTCHAR dcaron
ENCODING 271
SWIDTH 637 0
DWIDTH 23 0
BBX 24 27 1 0
BITMAP
0000000000003FFFF107FFF1
0000000000003FFFF107FFF1
0000000000003FFFF108FFE0
0000000000003FFFF10BFFA0
0000000000003FFFF12FFF40
0000000000003FFFF18FFB00
0000000000003FFFF107C100
0000000000003FFFF1000000
000039DEEC813FFFF1000000
0007FFFFFFFE7FFFF1000000
007FFFFFFFFFFFFFF1000000
03FFFFFC88BFFFFFF1000000
0AFFFF500004EFFFF1000000
1FFFF80000006FFFF1000000
5FFFF20000003FFFF1000000
7FFFD00000003FFFF1000000
8FFFB00000003FFFF1000000
9FFFA00000003FFFF1000000
8FFFA00000003FFFF1000000
7FFFC00000003FFFF1000000
4FFFF10000003FFFF1000000
1FFFF70000006FFFF1000000
0AFFFF500004EFFFF1000000
02FFFFFB88BFFFFFF1000000
006FFFFFFFFFFFFFF1000000
0007FFFFFFFE4EFFF1000000
000029DEEC810DFFF1000000
ENDCHAR
STARTCHAR Dcroat
ENCODING 272
SWIDTH 667 0
DWIDTH 24 0
BBX 24 26 -1 0
BITMAP
0000DFFFFFFFEDA610000000
0000DFFFFFFFFFFFE8100000
0000DFFFFFFFFFFFFFD20000
0000DFFFC999ACFFFFFE3000
0000DFFF90000029FFFFD100
0000DFFF900000006FFFF800
0000DFFF900000000AFFFE10
0000DFFF9000000002FFFF70
0000DFFF9000000000BFFFB0
0000DFFF90000000008FFFE0
0000DFFF90000000005FFFF2
2FFFFFFFFFFF9000004FFFF3
2FFFFFFFFFFF9000004FFFF3
2FFFFFFFFFFF9000004FFFF3
0000DFFF90000000005FFFF3
0000DFFF90000000006FFFF2
0000DFFF90000000008FFFE0
0000DFFF9000000000CFFFB0
0000DFFF9000000002FFFF70
0000DFFF900000000AFFFF10
0000DFFF900000007FFFF800
0000DFFF9000002AFFFFD100
0000DFFFC888ACFFFFFE3000
0000DFFFFFFFFFFFFFD20000
0000DFFFFFFFFFFFE8100000
0000DFFFFFFFEDA610000000
ENDCHAR
STARTCHAR dcroat
ENCODING 273
SWIDTH 615 0
DWIDTH 22 0
BBX 21 27 1 0
BITMAP
0000000000003FFFF10000
0000000000003FFFF10000
000000009FFFFFFFFFFF20
000000009FFFFFFFFFFF20
000000009FFFFFFFFFFF20
0000000000003FFFF10000
0000000000003FFFF10000
0000000000003FFFF10000
000039DEEC813FFFF10000
0007FFFFFFFE7FFFF10000
007FFFFFFFFFFFFFF10000
03FFFFFC88BFFFFFF10000
0AFFFF500004EFFFF10000
1FFFF80000006FFFF10000
5FFFF20000003FFFF10000
7FFFD00000003FFFF10000
8FFFB00000003FFFF10000
9FFFA00000003FFFF10000
8FFFA00000003FFFF10000
7FFFC00000003FFFF10000
4FFFF10000003FFFF10000
1FFFF70000006FFFF10000
0AFFFF500004EFFFF10000
02FFFFFB88BFFFFFF10000
006FFFFFFFFFFFFFF10000
0007FFFFFFFE4EFFF10000
000029DEEC810DFFF10000
ENDCHAR
STARTCHAR Emacron
ENCODING 274
SWIDTH 565 0
DWIDTH 20 0
BBX 18 31 2 0
BITMAP
000CCCCCCCCCCCC100
000FFFFFFFFFFFF100
000FFFFFFFFFFFF100
000000000000000000
000000000000000000
6FFFFFFFFFFFFFFFF3
6FFFFFFFFFFFFFFFF3
6FFFFFFFFFFFFFFFF3
6FFFF9999999999992
6FFFF1000000000000
6FFFF1000000000000
6FFFF1000000000000
6FFFF1000000000000
6FFFF1000000000000
6FFFF1000000000000
6FFFF1000000000000
6FFFFFFFFFFFFFF800
6FFFFFFFFFFFFFF800
6FFFFFFFFFFFFFF800
6FFFF8888888888400
6FFFF1000000000000
6FFFF1000000000000
6FFFF1000000000000
6FFFF1000000000000
6FFFF1000000000000
6FFFF1000000000000
6FFFF1000000000000
6FFFF9888888888883
6FFFFFFFFFFFFFFFF5
6FFFFFFFFFFFFFFFF5
6FFFFFFFFFFFFFFFF5
ENDCHAR
STARTCHAR emacron
ENCODING 275
SWIDTH 536 0
DWIDTH 19 0
BBX 18 25 1 0
BITMAP
003CCCCCCCCCCCA000
003FFFFFFFFFFFD000
003FFFFFFFFFFFD000
000000000000000000
000000000000000000
000000000000000000
0000039DEEDA500000
0001AFFFFFFFFC2000
001CFFFFFFFFFFE200
00BFFFFB77AFFFFB00
06FFFF600004FFFF40
0DFFFA0000008FFFA0
3FFFF30000003FFFD0
6FFFE00000001FFFF1
7FFFFFFFFFFFFFFFF2
8FFFFFFFFFFFFFFFF3
8FFFFFFFFFFFFFFFF3
6FFFD2222222222220
4FFFF1000000000000
0EFFF9000000005000
07FFFF80000019FB10
01DFFFFD867AEFFFA0
002DFFFFFFFFFFFD20
0001AFFFFFFFFFA100
0000038CEFEC830000
ENDCHAR
STARTCHAR Ebreve
ENCODING 276
SWIDTH 565 0
DWIDTH 20 0
BBX 18 33 2 0
BITMAP
0009FF900009FFA000
0006FFE1001EFF7000
0001EFFE99EFFE1000
00004EFFFFFFE40000
0000028DFFD9200000
000000000000000000
000000000000000000
6FFFFFFFFFFFFFFFF3
6FFFFFFFFFFFFFFFF3
6FFFFFFFFFFFFFFFF3
6FFFF9999999999992
6FFFF1000000000000
6FFFF1000000000000
6FFFF1000000000000
6FFFF1000000000000
6FFFF1000000000000
6FFFF1000000000000
6FFFF1000000000000
6FFFFFFFFFFFFFF800
6FFFFFFFFFFFFFF800
6FFFFFFFFFFFFFF800
6FFFF8888888888400
6FFFF1000000000000
6FFFF1000000000000
6FFFF1000000000000
6FFFF1000000000000
6FFFF1000000000000
6FFFF1000000000000
6FFFF1000000000000
6FFFF9888888888883
6FFFFFFFFFFFFFFFF5
6FFFFFFFFFFFFFFFF5
6FFFFFFFFFFFFFFFF5
ENDCHAR
STARTCHAR ebreve
ENCODING 277
SWIDTH 536 0
DWIDTH 19 0
BBX 18 27 1 0
BITMAP
000DFF60000CFF6000
000AFFB0003FFF3000
0004FFFC8AFFFC0000
00007FFFFFFFD20000
000003ADFEC7100000
000000000000000000
000000000000000000
000000000000000000
0000039DEEDA500000
0001AFFFFFFFFC2000
001CFFFFFFFFFFE200
00BFFFFB77AFFFFB00
06FFFF600004FFFF40
0DFFFA0000008FFFA0
3FFFF30000003FFFD0
6FFFE00000001FFFF1
7FFFFFFFFFFFFFFFF2
8FFFFFFFFFFFFFFFF3
8FFFFFFFFFFFFFFFF3
6FFFD2222222222220
4FFFF1000000000000
0EFFF9000000005000
07FFFF80000019FB10
01DFFFFD867AEFFFA0
002DFFFFFFFFFFFD20
0001AFFFFFFFFFA100
0000038CEFEC830000
ENDCHAR
STARTCHAR Edotaccent
ENCODING 278
SWIDTH 565 0
DWIDTH 20 0
BBX 18 33 2 0
BITMAP
000000004400000000
0000000CFFC0000000
0000003FFFF4000000
0000002FFFF3000000
00000007EE70000000
000000000000000000
000000000000000000
6FFFFFFFFFFFFFFFF3
6FFFFFFFFFFFFFFFF3
6FFFFFFFFFFFFFFFF3
6FFFF9999999999992
6FFFF1000000000000
6FFFF1000000000000
6FFFF1000000000000
6FFFF1000000000000
6FFFF1000000000000
6FFFF1000000000000
6FFFF1000000000000
6FFFFFFFFFFFFFF800
6FFFFFFFFFFFFFF800
6FFFFFFFFFFFFFF800
6FFFF8888888888400
6FFFF1000000000000
6FFFF1000000000000
6FFFF1000000000000
6FFFF1000000000000
6FFFF1000000000000
6FFFF1000000000000
6FFFF1000000000000
6FFFF9888888888883
6FFFFFFFFFFFFFFFF5
6FFFFFFFFFFFFFFFF5
6FFFFFFFFFFFFFFFF5
ENDCHAR
STARTCHAR edotaccent
ENCODING 279
SWIDTH 536 0
DWIDTH 19 0
BBX 18 27 1 0
BITMAP
000000014300000000
0000002EFF80000000
0000007FFFF0000000
0000006FFFE0000000
0000000AED40000000
000000000000000000
000000000000000000
000000000000000000
0000039DEEDA500000
0001AFFFFFFFFC2000
001CFFFFFFFFFFE200
00BFFFFB77AFFFFB00
06FFFF600004FFFF40
0DFFFA0000008FFFA0
3FFFF30000003FFFD0
6FFFE00000001FFFF1
7FFFFFFFFFFFFFFFF2
8FFFFFFFFFFFFFFFF3
8FFFFFFFFFFFFFFFF3
6FFFD2222222222220
4FFFF1000000000000
0EFFF9000000005000
07FFFF80000019FB10
01DFFFFD867AEFFFA0
002DFFFFFFFFFFFD20
0001AFFFFFFFFFA100
0000038CEFEC830000
ENDCHAR
STARTCHAR Eogonek
ENCODING 280
SWIDTH 565 0
DWIDTH 20 0
BBX 18 33 2 -7
BITMAP
6FFFFFFFFFFFFFFFF3
6FFFFFFFFFFFFFFFF3
6FFFFFFFFFFFFFFFF3
6FFFF9999999999992
6FFFF1000000000000
6FFFF1000000000000
6FFFF1000000000000
6FFFF1000000000000
6FFFF1000000000000
6FFFF1000000000000
6FFFF1000000000000
6FFFFFFFFFFFFFF800
6FFFFFFFFFFFFFF800
6FFFFFFFFFFFFFF800
6FFFF8888888888400
6FFFF1000000000000
6FFFF1000000000000
6FFFF1000000000000
6FFFF1000000000000
6FFFF1000000000000
6FFFF1000000000000
6FFFF1000000000000
6FFFF9888888888883
6FFFFFFFFFFFFFFFF5
6FFFFFFFFFFFFFFFF5
6FFFFFFFFFFFFFFFF5
00000000003DFF9100
0000000002EFF50000
0000000009FFB00000
000000000CFFA00100
000000000BFFFEE700
0000000005FFFFFA00
00000000004CEEB400
ENDCHAR
STARTCHAR eogonek
ENCODING 281
SWIDTH 536 0
DWIDTH 19 0
BBX 18 26 1 -7
BITMAP
0000039DEEDA500000
0001AFFFFFFFFC2000
001CFFFFFFFFFFE200
00BFFFFB77AFFFFB00
06FFFF600004FFFF40
0DFFFA0000008FFFA0
2FFFF30000003FFFD0
6FFFE00000001FFFF1
7FFFFFFFFFFFFFFFF2
8FFFFFFFFFFFFFFFF3
8FFFFFFFFFFFFFFFF3
7FFFD2222222222220
4FFFF1000000000000
0EFFF8000000005000
08FFFF70000018FA00
01DFFFFD8679EFFF90
002DFFFFFFFFFFFD20
0002BFFFFFFFFFB200
0000039CEFFFE50000
000000009FFE200000
00000003FFF4000000
00000008FFD0000000
00000009FFE1010000
00000007FFFEEB0000
00000001EFFFFD0000
000000002AEEC70000
ENDCHAR
STARTCHAR Ecaron
ENCODING 282
SWIDTH 565 0
DWIDTH 20 0
BBX 18 33 2 0
BITMAP
001CFFC1001DFFC100
0001CFFC11CFFC1000
00001CFFBCFFC10000
000001CFFFFC100000
0000001CFFC1000000
000000000000000000
000000000000000000
6FFFFFFFFFFFFFFFF3
6FFFFFFFFFFFFFFFF3
6FFFFFFFFFFFFFFFF3
6FFFF9999999999992
6FFFF1000000000000
6FFFF1000000000000
6FFFF1000000000000
6FFFF1000000000000
6FFFF1000000000000
6FFFF1000000000000
6FFFF1000000000000
6FFFFFFFFFFFFFF800
6FFFFFFFFFFFFFF800
6FFFFFFFFFFFFFF800
6FFFF8888888888400
6FFFF1000000000000
6FFFF1000000000000
6FFFF1000000000000
6FFFF1000000000000
6FFFF1000000000000
6FFFF1000000000000
6FFFF1000000000000
6FFFF9888888888883
6FFFFFFFFFFFFFFFF5
6FFFFFFFFFFFFFFFF5
6FFFFFFFFFFFFFFFF5
ENDCHAR
STARTCHAR ecaron
ENCODING 283
SWIDTH 536 0
DWIDTH 19 0
BBX 18 27 1 0
BITMAP
003EFFA0003EFF9000
0003EFF903EFF90000
00003EFF9EFF900000
000003EFFFF9000000
0000003EFF90000000
000000000000000000
000000000000000000
000000000000000000
0000039DEEDA500000
0001AFFFFFFFFC2000
001CFFFFFFFFFFE200
00BFFFFB77AFFFFB00
06FFFF600004FFFF40
0DFFFA0000008FFFA0
3FFFF30000003FFFD0
6FFFE00000001FFFF1
7FFFFFFFFFFFFFFFF2
8FFFFFFFFFFFFFFFF3
8FFFFFFFFFFFFFFFF3
6FFFD2222222222220
4FFFF1000000000000
0EFFF9000000005000
07FFFF80000019FB10
01DFFFFD867AEFFFA0
002DFFFFFFFFFFFD20
0001AFFFFFFFFFA100
0000038CEFEC830000
ENDCHAR
STARTCHAR Gcircumflex
ENCODING 284
SWIDTH 680 0
DWIDTH 25 0
BBX 22 33 1 0
BITMAP
000000001CFFB100000000
00000002DFFFFC10000000
0000003DFFBCFFD2000000
000003EFFB11CFFE300000
000008BDC1001CDB800000
0000000000000000000000
0000000000000000000000
00000015ADEFED95000000
000005DFFFFFFFFFE50000
00008FFFFFFFFFFFFF8000
0008FFFFFDA9ADFFFFF600
004FFFFE5000005EFFFE20
00CFFFE300000003FFFF80
03FFFF7000000000AFFFD0
08FFFF10000000005FFFF1
0BFFFB0000000000033330
0EFFF80000000000000000
1FFFF60000000000000000
1FFFF50000000000000000
2FFFF50000000000000000
2FFFF5000007FFFFFFFFF3
2FFFF5000007FFFFFFFFF3
1FFFF6000007FFFFFFFFF3
0EFFF900000366668FFFF3
0BFFFC00000000003FFFF3
07FFFF20000000003FFFF3
02FFFFA0000000003FFFF3
00AFFFF6000000003FFFF3
002EFFFF81000003BFFFF3
0005FFFFFEB99ADFFFFFE2
00006FFFFFFFFFFFFFFE40
000003CFFFFFFFFFFF9100
000000038CEFEDC9510000
ENDCHAR
STARTCHAR gcircumflex
ENCODING 285
SWIDTH 566 0
DWIDTH 20 0
BBX 18 34 1 -7
BITMAP
0000003DFF80000000
000004EFFFFA000000
00005FFF9EFFB10000
0006FFF903EFFC1000
0019BE90003EDA6000
000000000000000000
000000000000000000
000000000000000000
000028CEED920AFFF3
0006EFFFFFFF7CFFF3
006FFFFFFFFFFFFFF3
02EFFFFC98BFFFFFF3
09FFFF700002DFFFF3
1FFFF90000003FFFF3
4FFFF30000001FFFF3
7FFFE00000001FFFF3
8FFFC00000001FFFF3
8FFFB00000001FFFF3
7FFFB00000001FFFF3
6FFFD00000001FFFF3
3FFFF20000001FFFF3
0EFFF90000003FFFF3
09FFFF600002DFFFF3
02EFFFFC88AFFFFFF3
006FFFFFFFFFFFFFF3
0006EFFFFFFF7FFFF3
000028DEED921FFFF3
0000000000003FFFF1
0005000000008FFFD0
006FB2000005FFFF80
03FFFEA767CFFFFE10
01CFFFFFFFFFFFF400
0019FFFFFFFFFD3000
000027BDFED9500000
ENDCHAR
STARTCHAR Gbreve
ENCODING 286
SWIDTH 680 0
DWIDTH 25 0
BBX 22 33 1 0
BITMAP
00000AFF80000AFF900000
000007FFD1001EFF600000
000001EFFD99EFFE100000
0000004EFFFFFFE4000000
000000029DFFD820000000
0000000000000000000000
0000000000000000000000
00000015ADEFED95000000
000005DFFFFFFFFFE50000
00008FFFFFFFFFFFFF8000
0008FFFFFDA9ADFFFFF600
004FFFFE5000005EFFFE20
00CFFFE300000003FFFF80
03FFFF7000000000AFFFD0
08FFFF10000000005FFFF1
0BFFFB0000000000033330
0EFFF80000000000000000
1FFFF60000000000000000
1FFFF50000000000000000
2FFFF50000000000000000
2FFFF5000007FFFFFFFFF3
2FFFF5000007FFFFFFFFF3
1FFFF6000007FFFFFFFFF3
0EFFF900000366668FFFF3
0BFFFC00000000003FFFF3
07FFFF20000000003FFFF3
02FFFFA0000000003FFFF3
00AFFFF6000000003FFFF3
002EFFFF81000003BFFFF3
0005FFFFFEB99ADFFFFFE2
00006FFFFFFFFFFFFFFE40
000003CFFFFFFFFFFF9100
000000038CEFEDC9510000
ENDCHAR
STARTCHAR gbreve
ENCODING 287
SWIDTH 566 0
DWIDTH 20 0
BBX 18 34 1 -7
BITMAP
000DFF50000DFF6000
000AFFB0004FFF3000
0004FFFC8AFFFB0000
00007FFFFFFFD20000
000003ADFEC7100000
000000000000000000
000000000000000000
000000000000000000
000028CEED920AFFF3
0006EFFFFFFF7CFFF3
006FFFFFFFFFFFFFF3
02EFFFFC98BFFFFFF3
09FFFF700002DFFFF3
1FFFF90000003FFFF3
4FFFF30000001FFFF3
7FFFE00000001FFFF3
8FFFC00000001FFFF3
8FFFB00000001FFFF3
7FFFB00000001FFFF3
6FFFD00000001FFFF3
3FFFF20000001FFFF3
0EFFF90000003FFFF3
09FFFF600002DFFFF3
02EFFFFC88AFFFFFF3
006FFFFFFFFFFFFFF3
0006EFFFFFFF7FFFF3
000028DEED921FFFF3
0000000000003FFFF1
0005000000008FFFD0
006FB2000005FFFF80
03FFFEA767CFFFFE10
01CFFFFFFFFFFFF400
0019FFFFFFFFFD3000
000027BDFED9500000
ENDCHAR
STARTCHAR Gdotaccent
ENCODING 288
SWIDTH 680 0
DWIDTH 25 0
BBX 22 33 1 0
BITMAP
0000000000440000000000
000000000CFFB000000000
000000004FFFF300000000
000000003FFFF200000000
0000000008EE7000000000
0000000000000000000000
0000000000000000000000
00000015ADEFED95000000
000005DFFFFFFFFFE50000
00008FFFFFFFFFFFFF8000
0008FFFFFDA9ADFFFFF600
004FFFFE5000005EFFFE20
00CFFFE300000003FFFF80
03FFFF7000000000AFFFD0
08FFFF10000000005FFFF1
0BFFFB0000000000033330
0EFFF80000000000000000
1FFFF60000000000000000
1FFFF50000000000000000
2FFFF50000000000000000
2FFFF5000007FFFFFFFFF3
2FFFF5000007FFFFFFFFF3
1FFFF6000007FFFFFFFFF3
0EFFF900000366668FFFF3
0BFFFC00000000003FFFF3
07FFFF20000000003FFFF3
02FFFFA0000000003FFFF3
00AFFFF6000000003FFFF3
002EFFFF81000003BFFFF3
0005FFFFFEB99ADFFFFFE2
00006FFFFFFFFFFFFFFE40
000003CFFFFFFFFFFF9100
000000038CEFEDC9510000
ENDCHAR
STARTCHAR gdotaccent
ENCODING 289
SWIDTH 566 0
DWIDTH 20 0
BBX 18 34 1 -7
BITMAP
000000014300000000
0000002EFF80000000
0000007FFFF0000000
0000006FFFE0000000
0000001AED40000000
000000000000000000
000000000000000000
000000000000000000
000028CEED920AFFF3
0006EFFFFFFF7CFFF3
006FFFFFFFFFFFFFF3
02EFFFFC98BFFFFFF3
09FFFF700002DFFFF3
1FFFF90000003FFFF3
4FFFF30000001FFFF3
7FFFE00000001FFFF3
8FFFC00000001FFFF3
8FFFB00000001FFFF3
7FFFB00000001FFFF3
6FFFD00000001FFFF3
3FFFF20000001FFFF3
0EFFF90000003FFFF3
09FFFF600002DFFFF3
02EFFFFC88AFFFFFF3
006FFFFFFFFFFFFFF3
0006EFFFFFFF7FFFF3
000028DEED921FFFF3
0000000000003FFFF1
0005000000008FFFD0
006FB2000005FFFF80
03FFFEA767CFFFFE10
01CFFFFFFFFFFFF400
0019FFFFFFFFFD3000
000027BDFED9500000
ENDCHAR
STARTCHAR uni0122
ENCODING 290
SWIDTH 680 0
DWIDTH 25 0
BBX 22 35 1 -9
BITMAP
00000015ADEFED95000000
000005DFFFFFFFFFE50000
00008FFFFFFFFFFFFF8000
0008FFFFFDA9ADFFFFF600
004FFFFE5000005EFFFE20
00CFFFE300000003FFFF80
03FFFF7000000000AFFFD0
08FFFF10000000005FFFF1
0BFFFB0000000000033330
0EFFF80000000000000000
1FFFF60000000000000000
1FFFF50000000000000000
2FFFF50000000000000000
2FFFF5000007FFFFFFFFF3
2FFFF5000007FFFFFFFFF3
1FFFF6000007FFFFFFFFF3
0EFFF900000366668FFFF3
0BFFFC00000000003FFFF3
07FFFF20000000003FFFF3
02FFFFA0000000003FFFF3
00AFFFF6000000003FFFF3
002EFFFF81000003BFFFF3
0005FFFFFEB99ADFFFFFE2
00006FFFFFFFFFFFFFFE40
000003CFFFFFFFFFFF9100
000000038CEFEDC9510000
0000000000000000000000
0000000000000000000000
0000000000FFF800000000
0000000000FFF800000000
0000000001FFF600000000
0000000004FFF200000000
000000000AFFC000000000
000000002FFF3000000000
0000000003B60000000000
ENDCHAR
STARTCHAR uni0123
ENCODING 291
SWIDTH 566 0
DWIDTH 20 0
BBX 18 36 1 -7
BITMAP
000000003C40000000
00000001DFF6000000
00000007FFF3000000
0000000DFFC0000000
0000001FFF90000000
0000003FFF80000000
0000003FFF80000000
0000003FFF80000000
000000000000000000
000000000000000000
000028CEED920AFFF3
0006EFFFFFFF7CFFF3
006FFFFFFFFFFFFFF3
02EFFFFC98BFFFFFF3
09FFFF700002DFFFF3
1FFFF90000003FFFF3
4FFFF30000001FFFF3
7FFFE00000001FFFF3
8FFFC00000001FFFF3
8FFFB00000001FFFF3
7FFFB00000001FFFF3
6FFFD00000001FFFF3
3FFFF20000001FFFF3
0EFFF90000003FFFF3
09FFFF600002DFFFF3
02EFFFFC88AFFFFFF3
006FFFFFFFFFFFFFF3
0006EFFFFFFF7FFFF3
000028DEED921FFFF3
0000000000003FFFF1
0005000000008FFFD0
006FB2000005FFFF80
03FFFEA767CFFFFE10
01CFFFFFFFFFFFF400
0019FFFFFFFFFD3000
000027BDFED9500000
ENDCHAR
STARTCHAR Hcircumflex
ENCODING 292
SWIDTH 710 0
DWIDTH 26 0
BBX 21 33 2 0
BITMAP
000000004EFF6000000000
00000005FFFFF800000000
0000007FFF8FFF90000000
000008FFF604FFFA000000
00003ACE70004ECA400000
0000000000000000000000
0000000000000000000000
6FFFF100000000008FFFE0
6FFFF100000000008FFFE0
6FFFF100000000008FFFE0
6FFFF100000000008FFFE0
6FFFF100000000008FFFE0
6FFFF100000000008FFFE0
6FFFF100000000008FFFE0
6FFFF100000000008FFFE0
6FFFF100000000008FFFE0
6FFFF100000000008FFFE0
6FFFF100000000008FFFE0
6FFFFFFFFFFFFFFFFFFFE0
6FFFFFFFFFFFFFFFFFFFE0
6FFFFFFFFFFFFFFFFFFFE0
6FFFF98888888888CFFFE0
6FFFF100000000008FFFE0
6FFFF100000000008FFFE0
6FFFF100000000008FFFE0
6FFFF100000000008FFFE0
6FFFF100000000008FFFE0
6FFFF100000000008FFFE0
6FFFF100000000008FFFE0
6FFFF100000000008FFFE0
6FFFF100000000008FFFE0
6FFFF100000000008FFFE0
6FFFF100000000008FFFE0
ENDCHAR
STARTCHAR hcircumflex
ENCODING 293
SWIDTH 555 0
DWIDTH 20 0
BBX 16 33 2 0
BITMAP
00001BFFB1000000
0001CFFFFC200000
002DFFCBFFD20000
03EFFC11CFFE3000
08BDC1001CDB8000
0000000000000000
DFFF600000000000
DFFF600000000000
DFFF600000000000
DFFF600000000000
DFFF600000000000
DFFF600000000000
DFFF600000000000
DFFF600000000000
DFFF6039DFEC7100
DFFF69FFFFFFFD20
DFFFEFFFFFFFFFC0
DFFFFFD98AFFFFF4
DFFFF700003EFFF9
DFFF90000009FFFB
DFFF60000007FFFD
DFFF60000006FFFD
DFFF60000006FFFD
DFFF60000006FFFD
DFFF60000006FFFD
DFFF60000006FFFD
DFFF60000006FFFD
DFFF60000006FFFD
DFFF60000006FFFD
DFFF60000006FFFD
DFFF60000006FFFD
DFFF60000006FFFD
DFFF60000006FFFD
ENDCHAR
STARTCHAR Hbar
ENCODING 294
SWIDTH 710 0
DWIDTH 26 0
BBX 26 26 0 0
BITMAP
004FFFF200000000006FFFF000
004FFFF200000000006FFFF000
004FFFF200000000006FFFF000
004FFFF200000000006FFFF000
004FFFF200000000006FFFF000
7FFFFFFFFFFFFFFFFFFFFFFFF4
7FFFFFFFFFFFFFFFFFFFFFFFF4
6DDFFFFDDDDDDDDDDDEFFFFDD3
004FFFF200000000006FFFF000
004FFFF200000000006FFFF000
004FFFF200000000006FFFF000
004FFFFFFFFFFFFFFFFFFFF000
004FFFFFFFFFFFFFFFFFFFF000
004FFFFFFFFFFFFFFFFFFFF000
004FFFF98888888888BFFFF000
004FFFF200000000006FFFF000
004FFFF200000000006FFFF000
004FFFF200000000006FFFF000
004FFFF200000000006FFFF000
004FFFF200000000006FFFF000
004FFFF200000000006FFFF000
004FFFF200000000006FFFF000
004FFFF200000000006FFFF000
004FFFF200000000006FFFF000
004FFFF200000000006FFFF000
004FFFF200000000006FFFF000
ENDCHAR
STARTCHAR hbar
ENCODING 295
SWIDTH 569 0
DWIDTH 21 0
BBX 20 27 -1 0
BITMAP
0005FFFE000000000000
0005FFFE000000000000
0005FFFE000000000000
CFFFFFFFFFFF00000000
CFFFFFFFFFFF00000000
CFFFFFFFFFFF00000000
0005FFFE000000000000
0005FFFE000000000000
0005FFFE017CEFDA4000
0005FFFE3DFFFFFFF800
0005FFFFEFFFFFFFFF50
0005FFFFFFA89DFFFFC0
0005FFFFD200009FFFF2
0005FFFF2000001FFFF4
0005FFFE0000000EFFF5
0005FFFE0000000DFFF6
0005FFFE0000000DFFF6
0005FFFE0000000DFFF6
0005FFFE0000000DFFF6
0005FFFE0000000DFFF6
0005FFFE0000000DFFF6
0005FFFE0000000DFFF6
0005FFFE0000000DFFF6
0005FFFE0000000DFFF6
0005FFFE0000000DFFF6
0005FFFE0000000DFFF6
0005FFFE0000000DFFF6
ENDCHAR
STARTCHAR Itilde
ENCODING 296
SWIDTH 282 0
DWIDTH 10 0
BBX 14 34 -2 0
BITMAP
00000000000200
004BDA30003FF7
04FFFFF910AFF5
0DFFFFFFFEFFE1
3FFC229FFFFF70
4EE50004CED600
00000000000000
00000000000000
00002FFFF40000
00002FFFF40000
00002FFFF40000
00002FFFF40000
00002FFFF40000
00002FFFF40000
00002FFFF40000
00002FFFF40000
00002FFFF40000
00002FFFF40000
00002FFFF40000
00002FFFF40000
00002FFFF40000
00002FFFF40000
00002FFFF40000
00002FFFF40000
00002FFFF40000
00002FFFF40000
00002FFFF40000
00002FFFF40000
00002FFFF40000
00002FFFF40000
00002FFFF40000
00002FFFF40000
00002FFFF40000
00002FFFF40000
ENDCHAR
STARTCHAR itilde
ENCODING 297
SWIDTH 262 0
DWIDTH 9 0
BBX 14 28 -2 0
BITMAP
00000000001100
007CD810008FF2
09FFFFE601DFF1
3FFFFFFFFFFFA0
8FF814CFFFFE20
9EE00008DFB300
00000000000000
00000000000000
00000000000000
00007FFFC00000
00007FFFC00000
00007FFFC00000
00007FFFC00000
00007FFFC00000
00007FFFC00000
00007FFFC00000
00007FFFC00000
00007FFFC00000
00007FFFC00000
00007FFFC00000
00007FFFC00000
00007FFFC00000
00007FFFC00000
00007FFFC00000
00007FFFC00000
00007FFFC00000
00007FFFC00000
00007FFFC00000
ENDCHAR
STARTCHAR Imacron
ENCODING 298
SWIDTH 282 0
DWIDTH 10 0
BBX 13 31 -1 0
BITMAP
BCCCCCCCCCCC20
EFFFFFFFFFFF30
EFFFFFFFFFFF30
00000000000000
00000000000000
0002FFFF400000
0002FFFF400000
0002FFFF400000
0002FFFF400000
0002FFFF400000
0002FFFF400000
0002FFFF400000
0002FFFF400000
0002FFFF400000
0002FFFF400000
0002FFFF400000
0002FFFF400000
0002FFFF400000
0002FFFF400000
0002FFFF400000
0002FFFF400000
0002FFFF400000
0002FFFF400000
0002FFFF400000
0002FFFF400000
0002FFFF400000
0002FFFF400000
0002FFFF400000
0002FFFF400000
0002FFFF400000
0002FFFF400000
ENDCHAR
STARTCHAR imacron
ENCODING 299
SWIDTH 262 0
DWIDTH 9 0
BBX 13 25 -2 0
BITMAP
3CCCCCCCCCCCA0
4FFFFFFFFFFFC0
4FFFFFFFFFFFC0
00000000000000
00000000000000
00000000000000
00007FFFC00000
00007FFFC00000
00007FFFC00000
00007FFFC00000
00007FFFC00000
00007FFFC00000
00007FFFC00000
00007FFFC00000
00007FFFC00000
00007FFFC00000
00007FFFC00000
00007FFFC00000
00007FFFC00000
00007FFFC00000
00007FFFC00000
00007FFFC00000
00007FFFC00000
00007FFFC00000
00007FFFC00000
ENDCHAR
STARTCHAR Ibreve
ENCODING 300
SWIDTH 282 0
DWIDTH 10 0
BBX 12 33 -1 0
BITMAP
8FFA00008FFB
5FFE2001DFF8
1DFFE99DFFF2
03EFFFFFFF50
0018CEFD9200
000000000000
000000000000
0002FFFF4000
0002FFFF4000
0002FFFF4000
0002FFFF4000
0002FFFF4000
0002FFFF4000
0002FFFF4000
0002FFFF4000
0002FFFF4000
0002FFFF4000
0002FFFF4000
0002FFFF4000
0002FFFF4000
0002FFFF4000
0002FFFF4000
0002FFFF4000
0002FFFF4000
0002FFFF4000
0002FFFF4000
0002FFFF4000
0002FFFF4000
0002FFFF4000
0002FFFF4000
0002FFFF4000
0002FFFF4000
0002FFFF4000
ENDCHAR
STARTCHAR ibreve
ENCODING 301
SWIDTH 262 0
DWIDTH 9 0
BBX 12 27 -1 0
BITMAP
DFF50000DFF6
AFFB0004FFF3
4FFFC8AFFFB0
07FFFFFFFD20
003ADFEC7100
000000000000
000000000000
000000000000
0007FFFC0000
0007FFFC0000
0007FFFC0000
0007FFFC0000
0007FFFC0000
0007FFFC0000
0007FFFC0000
0007FFFC0000
0007FFFC0000
0007FFFC0000
0007FFFC0000
0007FFFC0000
0007FFFC0000
0007FFFC0000
0007FFFC0000
0007FFFC0000
0007FFFC0000
0007FFFC0000
0007FFFC0000
ENDCHAR
STARTCHAR Iogonek
ENCODING 302
SWIDTH 282 0
DWIDTH 10 0
BBX 8 33 0 -7
BITMAP
002FFFF4
002FFFF4
002FFFF4
002FFFF4
002FFFF4
002FFFF4
002FFFF4
002FFFF4
002FFFF4
002FFFF4
002FFFF4
002FFFF4
002FFFF4
002FFFF4
002FFFF4
002FFFF4
002FFFF4
002FFFF4
002FFFF4
002FFFF4
002FFFF4
002FFFF4
002FFFF4
002FFFF4
002FFFF4
007FFFF4
06FFF500
2FFF5000
7FFE0000
9FFE1010
7FFFEEB0
1EFFFFE0
02AEEC70
ENDCHAR
STARTCHAR iogonek
ENCODING 303
SWIDTH 255 0
DWIDTH 9 0
BBX 7 34 0 -7
BITMAP
00047500
006FFF90
00BFFFF0
00AFFFD0
002BEC30
00000000
00000000
00000000
008FFFB0
008FFFB0
008FFFB0
008FFFB0
008FFFB0
008FFFB0
008FFFB0
008FFFB0
008FFFB0
008FFFB0
008FFFB0
008FFFB0
008FFFB0
008FFFB0
008FFFB0
008FFFB0
008FFFB0
008FFFB0
01FFFFC0
0BFFC100
7FFD1000
DFF70000
FFF90010
DFFFDF50
6FFFFF80
05CEEA30
ENDCHAR
STARTCHAR Idotaccent
ENCODING 304
SWIDTH 282 0
DWIDTH 10 0
BBX 6 33 2 0
BITMAP
004400
0BFFC1
3FFFF5
2FFFF4
06EE80
000000
000000
2FFFF4
2FFFF4
2FFFF4
2FFFF4
2FFFF4
2FFFF4
2FFFF4
2FFFF4
2FFFF4
2FFFF4
2FFFF4
2FFFF4
2FFFF4
2FFFF4
2FFFF4
2FFFF4
2FFFF4
2FFFF4
2FFFF4
2FFFF4
2FFFF4
2FFFF4
2FFFF4
2FFFF4
2FFFF4
2FFFF4
ENDCHAR
STARTCHAR dotlessi
ENCODING 305
SWIDTH 262 0
DWIDTH 9 0
BBX 5 19 2 0
BITMAP
7FFFC0
7FFFC0
7FFFC0
7FFFC0
7FFFC0
7FFFC0
7FFFC0
7FFFC0
7FFFC0
7FFFC0
7FFFC0
7FFFC0
7FFFC0
7FFFC0
7FFFC0
7FFFC0
7FFFC0
7FFFC0
7FFFC0
ENDCHAR
STARTCHAR IJ
ENCODING 306
SWIDTH 837 0
DWIDTH 30 0
BBX 26 26 2 0
BITMAP
2FFFF4000000000000000CFFFA
2FFFF4000000000000000CFFFA
2FFFF4000000000000000CFFFA
2FFFF4000000000000000CFFFA
2FFFF4000000000000000CFFFA
2FFFF4000000000000000CFFFA
2FFFF4000000000000000CFFFA
2FFFF4000000000000000CFFFA
2FFFF4000000000000000CFFFA
2FFFF4000000000000000CFFFA
2FFFF4000000000000000CFFFA
2FFFF4000000000000000CFFFA
2FFFF4000000000000000CFFFA
2FFFF4000000000000000CFFFA
2FFFF4000000000000000CFFFA
2FFFF4000000000000000CFFFA
2FFFF4000000000000000CFFFA
2FFFF4000000000000000CFFFA
2FFFF4000AAAA40000000CFFF9
2FFFF4000EFFF70000000EFFF8
2FFFF4000CFFFC0000005FFFF5
2FFFF40008FFFF800003EFFFE1
2FFFF40001EFFFFD99BFFFFF70
2FFFF400005FFFFFFFFFFFFA00
2FFFF4000004DFFFFFFFFF8000
2FFFF400000006ADEFEC820000
ENDCHAR
STARTCHAR ij
ENCODING 307
SWIDTH 505 0
DWIDTH 18 0
BBX 14 34 2 -7
BITMAP
04750000004750
6FFF900006FFF9
BFFFF0000BFFFF
AFFFD0000AFFFD
2BEC300002BEC3
00000000000000
00000000000000
00000000000000
8FFFB00007FFFC
8FFFB00007FFFC
8FFFB00007FFFC
8FFFB00007FFFC
8FFFB00007FFFC
8FFFB00007FFFC
8FFFB00007FFFC
8FFFB00007FFFC
8FFFB00007FFFC
8FFFB00007FFFC
8FFFB00007FFFC
8FFFB00007FFFC
8FFFB00007FFFC
8FFFB00007FFFC
8FFFB00007FFFC
8FFFB00007FFFC
8FFFB00007FFFC
8FFFB00007FFFC
8FFFB00007FFFC
0000000007FFFC
0000000007FFFC
000000000CFFFB
00000198CFFFF7
000002FFFFFFE2
000002FFFFFF50
000001CEFD9300
ENDCHAR
STARTCHAR Jcircumflex
ENCODING 308
SWIDTH 555 0
DWIDTH 20 0
BBX 21 32 0 0
BITMAP
0000000000001CFFB10000
000000000002DFFFFC1000
00000000003DFFBCFFD200
0000000004EFFB01CFFE30
0000000008BDB1001CDB80
0000000000000000000000
0000000000000EFFF80000
0000000000000EFFF80000
0000000000000EFFF80000
0000000000000EFFF80000
0000000000000EFFF80000
0000000000000EFFF80000
0000000000000EFFF80000
0000000000000EFFF80000
0000000000000EFFF80000
0000000000000EFFF80000
0000000000000EFFF80000
0000000000000EFFF80000
0000000000000EFFF80000
0000000000000EFFF80000
0000000000000EFFF80000
0000000000000EFFF80000
0000000000000EFFF80000
0000000000000EFFF80000
2AAAA20000000EFFF70000
2FFFF50000002FFFF60000
0EFFFA0000007FFFF20000
0AFFFF600005FFFFC00000
03FFFFFC99CFFFFF400000
007FFFFFFFFFFFF8000000
0006EFFFFFFFFE60000000
000016BDEFEB7100000000
ENDCHAR
STARTCHAR jcircumflex
ENCODING 309
SWIDTH 268 0
DWIDTH 10 0
BBX 13 33 -2 -7
BITMAP
00002DFF900000
0003EFFFFA1000
004EFFADFFC100
05FFFA02DFFD20
19BEA0002DDB70
00000000000000
00000000000000
00003FFFF10000
00003FFFF10000
00003FFFF10000
00003FFFF10000
00003FFFF10000
00003FFFF10000
00003FFFF10000
00003FFFF10000
00003FFFF10000
00003FFFF10000
00003FFFF10000
00003FFFF10000
00003FFFF10000
00003FFFF10000
00003FFFF10000
00003FFFF10000
00003FFFF10000
00003FFFF10000
00003FFFF10000
00003FFFF10000
00004FFFF00000
0000AFFFD00000
187AFFFF900000
2FFFFFFE200000
3FFFFFE4000000
3DFED820000000
ENDCHAR
STARTCHAR uni0136
ENCODING 310
SWIDTH 630 0
DWIDTH 23 0
BBX 21 33 2 -7
BITMAP
6FFFF1000000006FFFFD10
6FFFF100000004FFFFE300
6FFFF10000002EFFFF5000
6FFFF1000001CFFFF70000
6FFFF100000AFFFFA00000
6FFFF100008FFFFC100000
6FFFF10005FFFFE2000000
6FFFF1003EFFFF30000000
6FFFF101DFFFF500000000
6FFFF10CFFFF8000000000
6FFFF19FFFFB0000000000
6FFFF7FFFFF10000000000
6FFFFFFFFFF80000000000
6FFFFFFFFFFF4000000000
6FFFFFFFFFFFD100000000
6FFFFFF48FFFFA00000000
6FFFFF500CFFFF50000000
6FFFF60003FFFFE1000000
6FFFF100007FFFFB000000
6FFFF100000CFFFF600000
6FFFF1000002EFFFE20000
6FFFF10000006FFFFC0000
6FFFF10000000BFFFF7000
6FFFF100000002EFFFF300
6FFFF1000000006FFFFD10
6FFFF1000000000AFFFF90
00000003FFF50000000000
00000003FFF50000000000
00000004FFF30000000000
00000007FFE00000000000
0000000DFF800000000000
0000004FFE100000000000
00000004C4000000000000
ENDCHAR
STARTCHAR uni0137
ENCODING 311
SWIDTH 521 0
DWIDTH 19 0
BBX 17 34 2 -7
BITMAP
CFFF70000000000000
CFFF70000000000000
CFFF70000000000000
CFFF70000000000000
CFFF70000000000000
CFFF70000000000000
CFFF70000000000000
CFFF70000000000000
CFFF7000006FFFFB00
CFFF700004FFFFC100
CFFF70003EFFFD1000
CFFF7002EFFFE20000
CFFF701DFFFE300000
CFFF71CFFFF4000000
CFFF7AFFFF60000000
CFFFDFFFF800000000
CFFFFFFFF800000000
CFFFFFFFFF40000000
CFFFFFFFFFD1000000
CFFFFB3FFFFA000000
CFFFB107FFFF500000
CFFF7000CFFFE20000
CFFF70002EFFFB0000
CFFF700006FFFF7000
CFFF700000BFFFF300
CFFF7000001EFFFD10
CFFF70000005FFFF90
000002FFF600000000
000002FFF500000000
000004FFF300000000
000007FFE000000000
00000CFF9000000000
00004FFE1000000000
000004C40000000000
ENDCHAR
STARTCHAR kgreenlandic
ENCODING 312
SWIDTH 574 0
DWIDTH 21 0
BBX 18 19 2 0
BITMAP
8FFFB0000003FFFFE2
8FFFB000001DFFFF40
8FFFB00000AFFFF800
8FFFB00006FFFFB000
8FFFB0003FFFFE1000
8FFFB001DFFFF40000
8FFFB00AFFFF800000
8FFFB06FFFFB000000
8FFFFFFFFFE1000000
8FFFFFFFFF50000000
8FFFFFFFFFC1000000
8FFFFEEFFFFA000000
8FFFB00CFFFF700000
8FFFB002EFFFF50000
8FFFB0003FFFFE3000
8FFFB00006FFFFD100
8FFFB000009FFFFC00
8FFFB000000BFFFF90
8FFFB0000001DFFFF7
ENDCHAR
STARTCHAR Lacute
ENCODING 313
SWIDTH 541 0
DWIDTH 19 0
BBX 17 32 2 0
BITMAP
0004FFFF7000000000
002EFFF80000000000
00CFFF800000000000
08FFF9000000000000
19CE90000000000000
000000000000000000
6FFFF1000000000000
6FFFF1000000000000
6FFFF1000000000000
6FFFF1000000000000
6FFFF1000000000000
6FFFF1000000000000
6FFFF1000000000000
6FFFF1000000000000
6FFFF1000000000000
6FFFF1000000000000
6FFFF1000000000000
6FFFF1000000000000
6FFFF1000000000000
6FFFF1000000000000
6FFFF1000000000000
6FFFF1000000000000
6FFFF1000000000000
6FFFF1000000000000
6FFFF1000000000000
6FFFF1000000000000
6FFFF1000000000000
6FFFF1000000000000
6FFFF9888888888860
6FFFFFFFFFFFFFFFA0
6FFFFFFFFFFFFFFFA0
6FFFFFFFFFFFFFFFA0
ENDCHAR
STARTCHAR lacute
ENCODING 314
SWIDTH 255 0
DWIDTH 9 0
BBX 9 34 2 0
BITMAP
0008FFFF40
005FFFF400
02EFFF5000
0CFFF50000
3ACE500000
0000000000
0000000000
8FFFB00000
8FFFB00000
8FFFB00000
8FFFB00000
8FFFB00000
8FFFB00000
8FFFB00000
8FFFB00000
8FFFB00000
8FFFB00000
8FFFB00000
8FFFB00000
8FFFB00000
8FFFB00000
8FFFB00000
8FFFB00000
8FFFB00000
8FFFB00000
8FFFB00000
8FFFB00000
8FFFB00000
8FFFB00000
8FFFB00000
8FFFB00000
8FFFB00000
8FFFB00000
8FFFB00000
ENDCHAR
STARTCHAR uni013B
ENCODING 315
SWIDTH 541 0
DWIDTH 19 0
BBX 17 34 2 -8
BITMAP
6FFFF1000000000000
6FFFF1000000000000
6FFFF1000000000000
6FFFF1000000000000
6FFFF1000000000000
6FFFF1000000000000
6FFFF1000000000000
6FFFF1000000000000
6FFFF1000000000000
6FFFF1000000000000
6FFFF1000000000000
6FFFF1000000000000
6FFFF1000000000000
6FFFF1000000000000
6FFFF1000000000000
6FFFF1000000000000
6FFFF1000000000000
6FFFF1000000000000
6FFFF1000000000000
6FFFF1000000000000
6FFFF1000000000000
6FFFF1000000000000
6FFFF9888888888860
6FFFFFFFFFFFFFFFA0
6FFFFFFFFFFFFFFFA0
6FFFFFFFFFFFFFFFA0
000000000000000000
0000000FFF80000000
0000001FFF70000000
0000002FFF50000000
0000005FFF20000000
000000BFFB00000000
000002FFF200000000
0000003C5000000000
ENDCHAR
STARTCHAR uni013C
ENCODING 316
SWIDTH 255 0
DWIDTH 9 0
BBX 6 35 1 -8
BITMAP
08FFFB
08FFFB
08FFFB
08FFFB
08FFFB
08FFFB
08FFFB
08FFFB
08FFFB
08FFFB
08FFFB
08FFFB
08FFFB
08FFFB
08FFFB
08FFFB
08FFFB
08FFFB
08FFFB
08FFFB
08FFFB
08FFFB
08FFFB
08FFFB
08FFFB
08FFFB
08FFFB
000000
03FFF5
03FFF5
04FFF3
07FFE0
0DFF80
4FFE10
04C400
ENDCHAR
STARTCHAR Lcaron
ENCODING 317
SWIDTH 541 0
DWIDTH 19 0
BBX 17 26 2 0
BITMAP
6FFFF10004FFF40000
6FFFF10004FFF30000
6FFFF10006FFF20000
6FFFF10009FFD00000
6FFFF1001EFF700000
6FFFF1006FFD000000
6FFFF10005C3000000
6FFFF1000000000000
6FFFF1000000000000
6FFFF1000000000000
6FFFF1000000000000
6FFFF1000000000000
6FFFF1000000000000
6FFFF1000000000000
6FFFF1000000000000
6FFFF1000000000000
6FFFF1000000000000
6FFFF1000000000000
6FFFF1000000000000
6FFFF1000000000000
6FFFF1000000000000
6FFFF1000000000000
6FFFF9888888888860
6FFFFFFFFFFFFFFFA0
6FFFFFFFFFFFFFFFA0
6FFFFFFFFFFFFFFFA0
ENDCHAR
STARTCHAR lcaron
ENCODING 318
SWIDTH 328 0
DWIDTH 12 0
BBX 12 27 2 0
BITMAP
8FFFB007FFF1
8FFFB007FFF1
8FFFB008FFE0
8FFFB00CFFA0
8FFFB02FFF40
8FFFB09FFB00
8FFFB007C100
8FFFB0000000
8FFFB0000000
8FFFB0000000
8FFFB0000000
8FFFB0000000
8FFFB0000000
8FFFB0000000
8FFFB0000000
8FFFB0000000
8FFFB0000000
8FFFB0000000
8FFFB0000000
8FFFB0000000
8FFFB0000000
8FFFB0000000
8FFFB0000000
8FFFB0000000
8FFFB0000000
8FFFB0000000
8FFFB0000000
ENDCHAR
STARTCHAR Ldot
ENCODING 319
SWIDTH 541 0
DWIDTH 19 0
BBX 17 26 2 0
BITMAP
6FFFF1000000000000
6FFFF1000000000000
6FFFF1000000000000
6FFFF1000000000000
6FFFF1000000000000
6FFFF1000000000000
6FFFF1000000000000
6FFFF1000000000000
6FFFF1000000000000
6FFFF1000142000000
6FFFF1003EFF600000
6FFFF1009FFFD00000
6FFFF1008FFFC00000
6FFFF1001BEC300000
6FFFF1000000000000
6FFFF1000000000000
6FFFF1000000000000
6FFFF1000000000000
6FFFF1000000000000
6FFFF1000000000000
6FFFF1000000000000
6FFFF1000000000000
6FFFF9888888888860
6FFFFFFFFFFFFFFFA0
6FFFFFFFFFFFFFFFA0
6FFFFFFFFFFFFFFFA0
ENDCHAR
STARTCHAR ldot
ENCODING 320
SWIDTH 362 0
DWIDTH 13 0
BBX 12 27 2 0
BITMAP
8FFFB0000000
8FFFB0000000
8FFFB0000000
8FFFB0000000
8FFFB0000000
8FFFB0000000
8FFFB0000000
8FFFB0000000
8FFFB0000000
8FFFB0000000
8FFFB0014300
8FFFB01DFF90
8FFFB06FFFF1
8FFFB05FFFF1
8FFFB009ED50
8FFFB0000000
8FFFB0000000
8FFFB0000000
8FFFB0000000
8FFFB0000000
8FFFB0000000
8FFFB0000000
8FFFB0000000
8FFFB0000000
8FFFB0000000
8FFFB0000000
8FFFB0000000
ENDCHAR
STARTCHAR Lslash
ENCODING 321
SWIDTH 548 0
DWIDTH 20 0
BBX 19 26 0 0
BITMAP
002FFFF5000000000000
002FFFF5000000000000
002FFFF5000000000000
002FFFF5000000000000
002FFFF5000000000000
002FFFF5000000000000
002FFFF5000000000000
002FFFF5000000000000
002FFFF5000000000000
002FFFF526B600000000
002FFFFEFFF700000000
005FFFFFFFD400000000
5EFFFFFC730000000000
6FFFFFF5000000000000
596FFFF5000000000000
002FFFF5000000000000
002FFFF5000000000000
002FFFF5000000000000
002FFFF5000000000000
002FFFF5000000000000
002FFFF5000000000000
002FFFF5000000000000
002FFFFA888888888880
002FFFFFFFFFFFFFFFE0
002FFFFFFFFFFFFFFFE0
002FFFFFFFFFFFFFFFE0
ENDCHAR
STARTCHAR lslash
ENCODING 322
SWIDTH 288 0
DWIDTH 10 0
BBX 10 27 0 0
BITMAP
001FFFF300
001FFFF300
001FFFF300
001FFFF300
001FFFF300
001FFFF300
001FFFF300
001FFFF300
001FFFF300
001FFFF300
001FFFF58A
001FFFFFFC
016FFFFFF9
5FFFFFF710
6FFFFFF300
584FFFF300
001FFFF300
001FFFF300
001FFFF300
001FFFF300
001FFFF300
001FFFF300
001FFFF300
001FFFF300
001FFFF300
001FFFF300
001FFFF300
ENDCHAR
STARTCHAR Nacute
ENCODING 323
SWIDTH 709 0
DWIDTH 26 0
BBX 21 32 2 0
BITMAP
000000000005FFFF600000
00000000003EFFF6000000
0000000001DFFF70000000
000000000AFFF700000000
000000002ACE8000000000
0000000000000000000000
6FFFF500000000008FFFE0
6FFFFE10000000008FFFE0
6FFFFF90000000008FFFE0
6FFFFFF3000000008FFFE0
6FFFFFFC000000008FFFE0
6FFFFFFF700000008FFFE0
6FFFFFFFE20000008FFFE0
6FFFFEFFFA0000008FFFE0
6FFFF6FFFF5000008FFFE0
6FFFF1BFFFD100008FFFE0
6FFFF12FFFF800008FFFE0
6FFFF108FFFF30008FFFE0
6FFFF100DFFFC0008FFFE0
6FFFF1004FFFF6008FFFE0
6FFFF1000AFFFE108FFFE0
6FFFF10001EFFFA08FFFE0
6FFFF100006FFFF48FFFE0
6FFFF100000CFFFD8FFFE0
6FFFF1000003FFFFEFFFE0
6FFFF10000009FFFFFFFE0
6FFFF10000001DFFFFFFE0
6FFFF100000005FFFFFFE0
6FFFF100000000BFFFFFE0
6FFFF1000000002EFFFFE0
6FFFF10000000007FFFFE0
6FFFF10000000000DFFFE0
ENDCHAR
STARTCHAR nacute
ENCODING 324
SWIDTH 556 0
DWIDTH 20 0
BBX 16 27 2 0
BITMAP
000000002EFFFA00
00000000CFFFB000
00000009FFFB0000
0000005FFFB10000
0000008BDB100000
0000000000000000
0000000000000000
0000000000000000
DFFF3049DFEC8100
DFFF49FFFFFFFD30
DFFFDFFFFFFFFFD0
DFFFFFD98AFFFFF5
DFFFF700003FFFF9
DFFF9000000AFFFC
DFFF60000007FFFD
DFFF60000006FFFD
DFFF60000006FFFD
DFFF60000006FFFD
DFFF60000006FFFD
DFFF60000006FFFD
DFFF60000006FFFD
DFFF60000006FFFD
DFFF60000006FFFD
DFFF60000006FFFD
DFFF60000006FFFD
DFFF60000006FFFD
DFFF60000006FFFD
ENDCHAR
STARTCHAR uni0145
ENCODING 325
SWIDTH 709 0
DWIDTH 26 0
BBX 21 34 2 -8
BITMAP
6FFFF500000000008FFFE0
6FFFFE10000000008FFFE0
6FFFFF90000000008FFFE0
6FFFFFF3000000008FFFE0
6FFFFFFC000000008FFFE0
6FFFFFFF700000008FFFE0
6FFFFFFFE20000008FFFE0
6FFFFEFFFA0000008FFFE0
6FFFF6FFFF5000008FFFE0
6FFFF1BFFFD100008FFFE0
6FFFF12FFFF800008FFFE0
6FFFF108FFFF30008FFFE0
6FFFF100DFFFC0008FFFE0
6FFFF1004FFFF6008FFFE0
6FFFF1000AFFFE108FFFE0
6FFFF10001EFFFA08FFFE0
6FFFF100006FFFF48FFFE0
6FFFF100000CFFFD8FFFE0
6FFFF1000003FFFFEFFFE0
6FFFF10000009FFFFFFFE0
6FFFF10000001DFFFFFFE0
6FFFF100000005FFFFFFE0
6FFFF100000000BFFFFFE0
6FFFF1000000002EFFFFE0
6FFFF10000000007FFFFE0
6FFFF10000000000DFFFE0
0000000000000000000000
000000001FFF7000000000
000000001FFF6000000000
000000002FFF5000000000
000000006FFF1000000000
00000000BFFA0000000000
00000003FFF20000000000
000000003C500000000000
ENDCHAR
STARTCHAR uni0146
ENCODING 326
SWIDTH 556 0
DWIDTH 20 0
BBX 16 27 2 -8
BITMAP
DFFF3049DFEC8100
DFFF49FFFFFFFD30
DFFFDFFFFFFFFFD0
DFFFFFD98AFFFFF5
DFFFF700003FFFF9
DFFF9000000AFFFC
DFFF60000007FFFD
DFFF60000006FFFD
DFFF60000006FFFD
DFFF60000006FFFD
DFFF60000006FFFD
DFFF60000006FFFD
DFFF60000006FFFD
DFFF60000006FFFD
DFFF60000006FFFD
DFFF60000006FFFD
DFFF60000006FFFD
DFFF60000006FFFD
DFFF60000006FFFD
0000000000000000
000000CFFB000000
000000CFFA000000
000000EFF9000000
000002FFF5000000
000007FFE0000000
00000EFF50000000
000002A900000000
ENDCHAR
STARTCHAR Ncaron
ENCODING 327
SWIDTH 709 0
DWIDTH 26 0
BBX 21 32 2 0
BITMAP
00003EFFA0003EFF900000
000003EFF903EFF9000000
0000003EFF9EFF90000000
00000003EFFFF900000000
000000003EFF9000000000
0000000000000000000000
6FFFF500000000008FFFE0
6FFFFE10000000008FFFE0
6FFFFF90000000008FFFE0
6FFFFFF3000000008FFFE0
6FFFFFFC000000008FFFE0
6FFFFFFF700000008FFFE0
6FFFFFFFE20000008FFFE0
6FFFFEFFFA0000008FFFE0
6FFFF6FFFF5000008FFFE0
6FFFF1BFFFD100008FFFE0
6FFFF12FFFF800008FFFE0
6FFFF108FFFF30008FFFE0
6FFFF100DFFFC0008FFFE0
6FFFF1004FFFF6008FFFE0
6FFFF1000AFFFE108FFFE0
6FFFF10001EFFFA08FFFE0
6FFFF100006FFFF48FFFE0
6FFFF100000CFFFD8FFFE0
6FFFF1000003FFFFEFFFE0
6FFFF10000009FFFFFFFE0
6FFFF10000001DFFFFFFE0
6FFFF100000005FFFFFFE0
6FFFF100000000BFFFFFE0
6FFFF1000000002EFFFFE0
6FFFF10000000007FFFFE0
6FFFF10000000000DFFFE0
ENDCHAR
STARTCHAR ncaron
ENCODING 328
SWIDTH 556 0
DWIDTH 20 0
BBX 16 27 2 0
BITMAP
00BFFD1001CFFD10
001BFFD11CFFD100
0001BFFCBFFC1000
00001BFFFFC10000
000001BFFC100000
0000000000000000
0000000000000000
0000000000000000
DFFF3049DFEC8100
DFFF49FFFFFFFD30
DFFFDFFFFFFFFFD0
DFFFFFD98AFFFFF5
DFFFF700003FFFF9
DFFF9000000AFFFC
DFFF60000007FFFD
DFFF60000006FFFD
DFFF60000006FFFD
DFFF60000006FFFD
DFFF60000006FFFD
DFFF60000006FFFD
DFFF60000006FFFD
DFFF60000006FFFD
DFFF60000006FFFD
DFFF60000006FFFD
DFFF60000006FFFD
DFFF60000006FFFD
DFFF60000006FFFD
ENDCHAR
STARTCHAR napostrophe
ENCODING 329
SWIDTH 556 0
DWIDTH 20 0
BBX 20 27 -2 0
BITMAP
04FFF400000000000000
04FFF400000000000000
05FFF200000000000000
09FFD000000000000000
0EFF7000000000000000
6FFD1000000000000000
05C30000000000000000
00000000000000000000
0000DFFF3049DFEC8100
0000DFFF49FFFFFFFD30
0000DFFFDFFFFFFFFFD0
0000DFFFFFD98AFFFFF5
0000DFFFF700003FFFF9
0000DFFF9000000AFFFC
0000DFFF60000007FFFD
0000DFFF60000006FFFD
0000DFFF60000006FFFD
0000DFFF60000006FFFD
0000DFFF60000006FFFD
0000DFFF60000006FFFD
0000DFFF60000006FFFD
0000DFFF60000006FFFD
0000DFFF60000006FFFD
0000DFFF60000006FFFD
0000DFFF60000006FFFD
0000DFFF60000006FFFD
0000DFFF60000006FFFD
ENDCHAR
STARTCHAR Eng
ENCODING 330
SWIDTH 696 0
DWIDTH 25 0
BBX 21 33 2 -7
BITMAP
7FFFF40000000000CFFFA0
7FFFFD0000000000CFFFA0
7FFFFF7000000000CFFFA0
7FFFFFE200000000CFFFA0
7FFFFFFA00000000CFFFA0
7FFFFFFF40000000CFFFA0
7FFFFFFFD0000000CFFFA0
7FFFFDFFF7000000CFFFA0
7FFFF5FFFE200000CFFFA0
7FFFF0BFFFA00000CFFFA0
7FFFF02FFFF40000CFFFA0
7FFFF008FFFD0000CFFFA0
7FFFF001DFFF7000CFFFA0
7FFFF0005FFFE200CFFFA0
7FFFF0000BFFFA00CFFFA0
7FFFF00002FFFF40CFFFA0
7FFFF000008FFFD0CFFFA0
7FFFF000001DFFF8CFFFA0
7FFFF0000005FFFFEFFFA0
7FFFF0000000BFFFFFFFA0
7FFFF00000002FFFFFFFA0
7FFFF000000008FFFFFFA0
7FFFF000000001DFFFFFA0
7FFFF0000000005FFFFFA0
7FFFF0000000000BFFFFA0
7FFFF00000000002FFFFA0
0000000000000000CFFFA0
0000000000000000EFFF90
0000000000000004FFFF60
00000000000089AFFFFF20
000000000000CFFFFFF800
000000000000DFFFFFA000
000000000000BEFEB50000
ENDCHAR
STARTCHAR eng
ENCODING 331
SWIDTH 566 0
DWIDTH 20 0
BBX 17 26 2 -7
BITMAP
CFFF2028DEEC810000
CFFF45EFFFFFFE3000
CFFF9FFFFFFFFFE100
CFFFFFC989EFFFF700
CFFFE500002DFFFC00
CFFF80000007FFFF00
CFFF70000003FFFF10
CFFF70000003FFFF20
CFFF70000003FFFF20
CFFF70000003FFFF20
CFFF70000003FFFF20
CFFF70000003FFFF20
CFFF70000003FFFF20
CFFF70000003FFFF20
CFFF70000003FFFF20
CFFF70000003FFFF20
CFFF70000003FFFF20
CFFF70000003FFFF20
CFFF70000003FFFF20
000000000003FFFF20
000000000004FFFF10
00000000000AFFFE00
00000001A9CFFFF900
00000003FFFFFFE200
00000004FFFFFE4000
00000003DFED820000
ENDCHAR
STARTCHAR Omacron
ENCODING 332
SWIDTH 690 0
DWIDTH 25 0
BBX 22 31 1 0
BITMAP
000006CCCCCCCCCCC60000
000008FFFFFFFFFFF80000
000008FFFFFFFFFFF80000
0000000000000000000000
0000000000000000000000
000000049CEFEC93000000
000004CFFFFFFFFFB20000
00006FFFFFFFFFFFFE5000
0006FFFFFFCBCFFFFFF400
002EFFFF7100018FFFFE10
00AFFFF500000006FFFF80
02FFFF9000000000BFFFE1
08FFFF10000000003FFFF5
0CFFFB00000000000DFFF9
0EFFF800000000000AFFFC
1FFFF5000000000008FFFE
2FFFF4000000000007FFFF
3FFFF4000000000006FFFF
3FFFF4000000000006FFFF
3FFFF4000000000007FFFF
2FFFF5000000000008FFFE
0EFFF700000000000AFFFC
0CFFFB00000000000DFFF9
08FFFF10000000003FFFF5
02FFFF8000000000AFFFE1
00BFFFF400000005FFFF80
002FFFFF7100017FFFFE10
0006FFFFFEBABFFFFFF400
00006FFFFFFFFFFFFE5000
000003CFFFFFFFFFB30000
000000049CEFEC94000000
ENDCHAR
STARTCHAR omacron
ENCODING 333
SWIDTH 569 0
DWIDTH 21 0
BBX 19 25 1 0
BITMAP
000ACCCCCCCCCCC30000
000DFFFFFFFFFFF30000
000DFFFFFFFFFFF30000
00000000000000000000
00000000000000000000
00000000000000000000
0000049DEFDB71000000
0002BFFFFFFFFE600000
002EFFFFFFFFFFF80000
01DFFFFC879EFFFF5000
07FFFF600002DFFFE100
0EFFF90000002FFFF600
4FFFF20000000AFFFB00
7FFFD000000006FFFE00
9FFFB000000004FFFF00
9FFFA000000003FFFF10
8FFFB000000004FFFF00
7FFFC000000006FFFE00
3FFFF10000000AFFFB00
0EFFF80000002FFFF600
08FFFF600001CFFFE100
01DFFFFB779EFFFF5000
003EFFFFFFFFFFF80000
0002BFFFFFFFFE500000
0000049DEFEB71000000
ENDCHAR
STARTCHAR Obreve
ENCODING 334
SWIDTH 690 0
DWIDTH 25 0
BBX 22 32 1 0
BITMAP
000002FFF10002FFF10000
000000EFF70008FFE00000
0000008FFFB8BFFF700000
0000000BFFFFFFFA000000
000000005BEFEB50000000
0000000000000000000000
000000049CEFEC93000000
000004CFFFFFFFFFB20000
00006FFFFFFFFFFFFE5000
0006FFFFFFCBCFFFFFF400
002EFFFF7100018FFFFE10
00AFFFF500000006FFFF80
02FFFF9000000000BFFFE1
08FFFF10000000003FFFF5
0CFFFB00000000000DFFF9
0EFFF800000000000AFFFC
1FFFF5000000000008FFFE
2FFFF4000000000007FFFF
3FFFF4000000000006FFFF
3FFFF4000000000006FFFF
3FFFF4000000000007FFFF
2FFFF5000000000008FFFE
0EFFF700000000000AFFFC
0CFFFB00000000000DFFF9
08FFFF10000000003FFFF5
02FFFF8000000000AFFFE1
00BFFFF400000005FFFF80
002FFFFF7100017FFFFE10
0006FFFFFEBABFFFFFF400
00006FFFFFFFFFFFFE5000
000003CFFFFFFFFFB30000
000000049CEFEC94000000
ENDCHAR
STARTCHAR obreve
ENCODING 335
SWIDTH 569 0
DWIDTH 21 0
BBX 19 27 1 0
BITMAP
0007FFB00007FFC00000
0005FFF2000CFF900000
0000DFFE99DFFF300000
00003DFFFFFFF6000000
0000018CEFD930000000
00000000000000000000
00000000000000000000
00000000000000000000
0000049DEFDB71000000
0002BFFFFFFFFE600000
002EFFFFFFFFFFF80000
01DFFFFC879EFFFF5000
07FFFF600002DFFFE100
0EFFF90000002FFFF600
4FFFF20000000AFFFB00
7FFFD000000006FFFE00
9FFFB000000004FFFF00
9FFFA000000003FFFF10
8FFFB000000004FFFF00
7FFFC000000006FFFE00
3FFFF10000000AFFFB00
0EFFF80000002FFFF600
08FFFF600001CFFFE100
01DFFFFB779EFFFF5000
003EFFFFFFFFFFF80000
0002BFFFFFFFFE500000
0000049DEFEB71000000
ENDCHAR
STARTCHAR Ohungarumlaut
ENCODING 336
SWIDTH 690 0
DWIDTH 25 0
BBX 22 32 1 0
BITMAP
000000000BFFF406FFFB00
000000007FFF804FFFC100
00000002FFFB03EFFD1000
0000000CFFD12DFFD20000
0000003ACE306BDD200000
0000000000000000000000
000000049CEFEC93000000
000004CFFFFFFFFFB20000
00006FFFFFFFFFFFFE5000
0006FFFFFFCBCFFFFFF400
002EFFFF7100018FFFFE10
00AFFFF500000006FFFF80
02FFFF9000000000BFFFE1
08FFFF10000000003FFFF5
0CFFFB00000000000DFFF9
0EFFF800000000000AFFFC
1FFFF5000000000008FFFE
2FFFF4000000000007FFFF
3FFFF4000000000006FFFF
3FFFF4000000000006FFFF
3FFFF4000000000007FFFF
2FFFF5000000000008FFFE
0EFFF700000000000AFFFC
0CFFFB00000000000DFFF9
08FFFF10000000003FFFF5
02FFFF8000000000AFFFE1
00BFFFF400000005FFFF80
002FFFFF7100017FFFFE10
0006FFFFFEBABFFFFFF400
00006FFFFFFFFFFFFE5000
000003CFFFFFFFFFB30000
000000049CEFEC94000000
ENDCHAR
STARTCHAR ohungarumlaut
ENCODING 337
SWIDTH 569 0
DWIDTH 21 0
BBX 19 27 1 0
BITMAP
0000002EFFD10AFFF700
000000BFFF309FFF8000
000007FFF607FFF90000
00002EFF905FFFA00000
00005BDC109BDB000000
00000000000000000000
00000000000000000000
00000000000000000000
0000049DEFDB71000000
0002BFFFFFFFFE600000
002EFFFFFFFFFFF80000
01DFFFFC879EFFFF5000
07FFFF600002DFFFE100
0EFFF90000002FFFF600
4FFFF20000000AFFFB00
7FFFD000000006FFFE00
9FFFB000000004FFFF00
9FFFA000000003FFFF10
8FFFB000000004FFFF00
7FFFC000000006FFFE00
3FFFF10000000AFFFB00
0EFFF80000002FFFF600
08FFFF600001CFFFE100
01DFFFFB779EFFFF5000
003EFFFFFFFFFFF80000
0002BFFFFFFFFE500000
0000049DEFEB71000000
ENDCHAR
STARTCHAR OE
ENCODING 338
SWIDTH 962 0
DWIDTH 35 0
BBX 32 26 1 0
BITMAP
00000027BEFFFFFFFFFFFFFFFFFFFFF3
000019FFFFFFFFFFFFFFFFFFFFFFFFF3
0002DFFFFFFFFFFFFFFFFFFFFFFFFFF3
001DFFFFD97779CFFFF9999999999992
00AFFFF60000007FFFF0000000000000
03FFFF600000007FFFF0000000000000
09FFFC000000007FFFF0000000000000
0DFFF6000000007FFFF0000000000000
1FFFF3000000007FFFF0000000000000
3FFFF1000000007FFFF0000000000000
3FFFF0000000007FFFF0000000000000
4FFFF0000000007FFFFFFFFFFFFFF800
4FFFF0000000007FFFFFFFFFFFFFF800
4FFFF0000000007FFFFFFFFFFFFFF800
4FFFF0000000007FFFF8888888888400
3FFFF0000000007FFFF0000000000000
3FFFF1000000007FFFF0000000000000
1FFFF3000000007FFFF0000000000000
0EFFF6000000007FFFF0000000000000
09FFFC000000007FFFF0000000000000
03FFFF600000007FFFF0000000000000
00AFFFF70000007FFFF0000000000000
001DFFFFD97778CFFFF8888888888882
0002DFFFFFFFFFFFFFFFFFFFFFFFFFF4
000019FFFFFFFFFFFFFFFFFFFFFFFFF4
00000027BEFFFFFFFFFFFFFFFFFFFFF4
ENDCHAR
STARTCHAR oe
ENCODING 339
SWIDTH 903 0
DWIDTH 33 0
BBX 31 19 1 0
BITMAP
0000039CEFDB71000017CEFEB7100000
0001AFFFFFFFFE6006EFFFFFFFE50000
001DFFFFFFFFFFF87FFFFFFFFFFF5000
00BFFFFC879EFFFFFFFFE879EFFFE100
05FFFF800001CFFFFFFD10002EFFF700
0CFFFB0000002FFFFFF4000006FFFC00
1FFFF50000000AFFFFC0000002FFFF10
4FFFF100000006FFFF70000000FFFF20
5FFFE000000004FFFFFFFFFFFFFFFF30
6FFFD000000003FFFFFFFFFFFFFFFF40
5FFFE000000004FFFFFFFFFFFFFFFF40
4FFFF100000006FFFF62222222222200
1FFFF40000000AFFFF80000000000000
0CFFFB0000002EFFFFE1000000000000
05FFFF700001CFFFFFFC200000179000
00BFFFFC769EFFFFFFFFE9768AEFF200
001DFFFFFFFFFFF88FFFFFFFFFFFF900
0001AFFFFFFFFE7006EFFFFFFFFF9100
0000039CEFDB72000016BDFEDB720000
ENDCHAR
STARTCHAR Racute
ENCODING 340
SWIDTH 624 0
DWIDTH 22 0
BBX 20 32 2 0
BITMAP
0000000008FFFF400000
000000004FFFF5000000
00000002EFFF50000000
0000000CFFF500000000
0000003ACE6000000000
00000000000000000000
6FFFFFFFFFEDB7200000
6FFFFFFFFFFFFFFA1000
6FFFFFFFFFFFFFFFD100
6FFFF99999ADFFFFFB00
6FFFF10000004DFFFF40
6FFFF100000003FFFF90
6FFFF100000000CFFFB0
6FFFF1000000009FFFC0
6FFFF100000000AFFFC0
6FFFF100000000DFFF90
6FFFF100000008FFFF50
6FFFF1000014AFFFFC00
6FFFFFFFFFFFFFFFD200
6FFFFFFFFFFFFFFC2000
6FFFFFFFFFFFFF700000
6FFFF98888EFFFA00000
6FFFF100008FFFF30000
6FFFF100001EFFFA0000
6FFFF1000008FFFF3000
6FFFF1000001FFFFA000
6FFFF10000009FFFF300
6FFFF10000002FFFFB00
6FFFF100000009FFFF30
6FFFF100000002FFFFB0
6FFFF1000000009FFFF4
6FFFF1000000002FFFFB
ENDCHAR
STARTCHAR racute
ENCODING 341
SWIDTH 351 0
DWIDTH 13 0
BBX 12 27 2 0
BITMAP
000001DFFFC1
00000AFFFC10
00007FFFC100
0004FFFC1000
0007BDC10000
000000000000
000000000000
000000000000
CFFF417DFE20
CFFF6CFFFF20
CFFFEFFFFF20
CFFFFFFFFF20
CFFFFE732300
CFFFE2000000
CFFF70000000
CFFF70000000
CFFF70000000
CFFF70000000
CFFF70000000
CFFF70000000
CFFF70000000
CFFF70000000
CFFF70000000
CFFF70000000
CFFF70000000
CFFF70000000
CFFF70000000
ENDCHAR
STARTCHAR uni0156
ENCODING 342
SWIDTH 624 0
DWIDTH 22 0
BBX 20 34 2 -8
BITMAP
6FFFFFFFFFEDB7200000
6FFFFFFFFFFFFFFA1000
6FFFFFFFFFFFFFFFD100
6FFFF99999ADFFFFFB00
6FFFF10000004DFFFF40
6FFFF100000003FFFF90
6FFFF100000000CFFFB0
6FFFF1000000009FFFC0
6FFFF100000000AFFFC0
6FFFF100000000DFFF90
6FFFF100000008FFFF50
6FFFF1000014AFFFFC00
6FFFFFFFFFFFFFFFD200
6FFFFFFFFFFFFFFC2000
6FFFFFFFFFFFFF700000
6FFFF98888EFFFA00000
6FFFF100008FFFF30000
6FFFF100001EFFFA0000
6FFFF1000008FFFF3000
6FFFF1000001FFFFA000
6FFFF10000009FFFF300
6FFFF10000002FFFFB00
6FFFF100000009FFFF30
6FFFF100000002FFFFB0
6FFFF1000000009FFFF4
6FFFF1000000002FFFFB
00000000000000000000
0000000FFF8000000000
0000000FFF7000000000
0000002FFF6000000000
0000005FFF2000000000
000000AFFB0000000000
000002FFF30000000000
0000003B600000000000
ENDCHAR
STARTCHAR uni0157
ENCODING 343
SWIDTH 351 0
DWIDTH 13 0
BBX 12 27 1 -8
BITMAP
0CFFF417DFE2
0CFFF6CFFFF2
0CFFFEFFFFF2
0CFFFFFFFFF2
0CFFFFE73230
0CFFFE200000
0CFFF7000000
0CFFF7000000
0CFFF7000000
0CFFF7000000
0CFFF7000000
0CFFF7000000
0CFFF7000000
0CFFF7000000
0CFFF7000000
0CFFF7000000
0CFFF7000000
0CFFF7000000
0CFFF7000000
000000000000
04FFF4000000
04FFF3000000
06FFF2000000
09FFD0000000
1EFF70000000
6FFD00000000
05C300000000
ENDCHAR
STARTCHAR Rcaron
ENCODING 344
SWIDTH 624 0
DWIDTH 22 0
BBX 20 32 2 0
BITMAP
004FFF80005FFF700000
0004FFF704FFF7000000
00004FFF9FFF70000000
000004EFFFF700000000
0000004EFF7000000000
00000000000000000000
6FFFFFFFFFEDB7200000
6FFFFFFFFFFFFFFA1000
6FFFFFFFFFFFFFFFD100
6FFFF99999ADFFFFFB00
6FFFF10000004DFFFF40
6FFFF100000003FFFF90
6FFFF100000000CFFFB0
6FFFF1000000009FFFC0
6FFFF100000000AFFFC0
6FFFF100000000DFFF90
6FFFF100000008FFFF50
6FFFF1000014AFFFFC00
6FFFFFFFFFFFFFFFD200
6FFFFFFFFFFFFFFC2000
6FFFFFFFFFFFFF700000
6FFFF98888EFFFA00000
6FFFF100008FFFF30000
6FFFF100001EFFFA0000
6FFFF1000008FFFF3000
6FFFF1000001FFFFA000
6FFFF10000009FFFF300
6FFFF10000002FFFFB00
6FFFF100000009FFFF30
6FFFF100000002FFFFB0
6FFFF1000000009FFFF4
6FFFF1000000002FFFFB
ENDCHAR
STARTCHAR rcaron
ENCODING 345
SWIDTH 351 0
DWIDTH 13 0
BBX 13 27 1 0
BITMAP
AFFE2000BFFE20
0AFFE20AFFE200
00AFFDAFFD2000
000AFFFFD20000
0000AFFD200000
00000000000000
00000000000000
00000000000000
0CFFF417DFE200
0CFFF6CFFFF200
0CFFFEFFFFF200
0CFFFFFFFFF200
0CFFFFE7323000
0CFFFE20000000
0CFFF700000000
0CFFF700000000
0CFFF700000000
0CFFF700000000
0CFFF700000000
0CFFF700000000
0CFFF700000000
0CFFF700000000
0CFFF700000000
0CFFF700000000
0CFFF700000000
0CFFF700000000
0CFFF700000000
ENDCHAR
STARTCHAR Sacute
ENCODING 346
SWIDTH 603 0
DWIDTH 22 0
BBX 20 32 1 0
BITMAP
00000000001EFFFB1000
0000000000BFFFB10000
0000000008FFFC100000
000000004FFFC1000000
000000007BDC10000000
00000000000000000000
0000027BDEEDB7200000
00019FFFFFFFFFFA1000
001CFFFFFFFFFFFFE200
00CFFFFFB99AEFFFFD10
05FFFFB2000008FFFF90
0BFFFD000000009FFFF1
0DFFF9000000003FFFF4
0DFFF9000000001BBBB4
0AFFFE20000000000000
05FFFFD4000000000000
00BFFFFFC61000000000
001CFFFFFFFC71000000
00019FFFFFFFFFA20000
000003AFFFFFFFFF7000
000000016BFFFFFFF900
000000000016CFFFFF60
00000000000006FFFFD0
000000000000006FFFF3
AFFFC0000000001FFFF5
8FFFE0000000001FFFF6
4FFFF7000000005FFFF4
0CFFFF71000004EFFFE0
03EFFFFEA889CFFFFF70
003EFFFFFFFFFFFFF900
00019FFFFFFFFFFE6000
0000027BDFFEDA610000
ENDCHAR
STARTCHAR sacute
ENCODING 347
SWIDTH 516 0
DWIDTH 19 0
BBX 16 27 1 0
BITMAP
0000000007FFFF50
000000004FFFF500
00000001EFFF5000
0000000BFFF60000
0000003ACE600000
0000000000000000
0000000000000000
0000000000000000
000049DEFEC82000
001BFFFFFFFFF800
01DFFFFFFFFFFFA0
08FFFF9446CFFFF5
0EFFF700001CFFFB
0FFFF3000006DDDB
0EFFF90000000000
08FFFFD952000000
01BFFFFFFFD93000
0007EFFFFFFFFB20
000016AEFFFFFFD2
0000000026CFFFF9
122210000009FFFE
9FFFA0000003FFFF
6FFFE3000007FFFE
1DFFFE85359FFFF8
03EFFFFFFFFFFFD1
003CFFFFFFFFFB10
000049CEFEC93000
ENDCHAR
STARTCHAR Scircumflex
ENCODING 348
SWIDTH 603 0
DWIDTH 22 0
BBX 20 32 1 0
BITMAP
00000000AFFC20000000
0000001BFFFFD2000000
000001CFFDAFFE300000
00002DFFD20AFFE50000
00007BDD2000ADB91000
00000000000000000000
0000027BDEEDB7200000
00019FFFFFFFFFFA1000
001CFFFFFFFFFFFFE200
00CFFFFFB99AEFFFFD10
05FFFFB2000008FFFF90
0BFFFD000000009FFFF1
0DFFF9000000003FFFF4
0DFFF9000000001BBBB4
0AFFFE20000000000000
05FFFFD4000000000000
00BFFFFFC61000000000
001CFFFFFFFC71000000
00019FFFFFFFFFA20000
000003AFFFFFFFFF7000
000000016BFFFFFFF900
000000000016CFFFFF60
00000000000006FFFFD0
000000000000006FFFF3
AFFFC0000000001FFFF5
8FFFE0000000001FFFF6
4FFFF7000000005FFFF4
0CFFFF71000004EFFFE0
03EFFFFEA889CFFFFF70
003EFFFFFFFFFFFFF900
00019FFFFFFFFFFE6000
0000027BDFFEDA610000
ENDCHAR
STARTCHAR scircumflex
ENCODING 349
SWIDTH 516 0
DWIDTH 19 0
BBX 16 27 1 0
BITMAP
0000003EFF700000
000005EFFFF80000
00006FFF9EFFA000
0007FFF704EFFB10
0029CE80004ECA50
0000000000000000
0000000000000000
0000000000000000
000049DEFEC82000
001BFFFFFFFFF800
01DFFFFFFFFFFFA0
08FFFF9446CFFFF5
0EFFF700001CFFFB
0FFFF3000006DDDB
0EFFF90000000000
08FFFFD952000000
01BFFFFFFFD93000
0007EFFFFFFFFB20
000016AEFFFFFFD2
0000000026CFFFF9
122210000009FFFE
9FFFA0000003FFFF
6FFFE3000007FFFE
1DFFFE85359FFFF8
03EFFFFFFFFFFFD1
003CFFFFFFFFFB10
000049CEFEC93000
ENDCHAR
STARTCHAR Scedilla
ENCODING 350
SWIDTH 603 0
DWIDTH 22 0
BBX 20 34 1 -8
BITMAP
0000027BDEEDB7200000
00019FFFFFFFFFFA1000
001CFFFFFFFFFFFFE200
00CFFFFFB99AEFFFFD10
05FFFFB2000008FFFF90
0BFFFD000000009FFFF1
0DFFF9000000003FFFF4
0DFFF9000000001BBBB4
0AFFFE20000000000000
05FFFFD4000000000000
00BFFFFFC61000000000
001CFFFFFFFC71000000
00019FFFFFFFFFA20000
000003AFFFFFFFFF7000
000000016BFFFFFFF900
000000000016CFFFFF60
00000000000006FFFFD0
000000000000006FFFF3
AFFFC0000000001FFFF5
8FFFE0000000001FFFF6
4FFFF7000000005FFFF4
0CFFFF71000004EFFFE0
03EFFFFEA889CFFFFF70
003EFFFFFFFFFFFFF900
00019FFFFFFFFFFE6000
0000027BDFFEDA610000
000000005FFB00000000
000000009FFFB2000000
000000006AEFFD000000
00000000005FFF300000
00000000005FFF400000
0000000048EFFE100000
000000008FFFF5000000
000000007EC820000000
ENDCHAR
STARTCHAR scedilla
ENCODING 351
SWIDTH 516 0
DWIDTH 19 0
BBX 16 27 1 -8
BITMAP
000049DEFEC82000
001BFFFFFFFFF800
01DFFFFFFFFFFFA0
08FFFF9446CFFFF5
0EFFF700001CFFFB
0FFFF3000006DDDB
0EFFF90000000000
08FFFFD952000000
01BFFFFFFFD93000
0007EFFFFFFFFB20
000016AEFFFFFFD2
0000000026CFFFF9
122210000009FFFE
9FFFA0000003FFFF
6FFFE3000007FFFE
1DFFFE85359FFFF8
03EFFFFFFFFFFFD1
003CFFFFFFFFFB10
000049CEFEC93000
0000000EFF300000
0000002FFFD70000
00000029DFFF5000
000000000DFFA000
000000000DFFA000
00000017CFFF6000
0000001FFFFA0000
0000001FDA500000
ENDCHAR
STARTCHAR Scaron
ENCODING 352
SWIDTH 603 0
DWIDTH 22 0
BBX 20 32 1 0
BITMAP
0000BFFD2001BFFD2000
00000BFFD20BFFD20000
000000AFFDBFFD200000
0000000AFFFFD2000000
00000000AFFD20000000
00000000000000000000
0000027BDEEDB7200000
00019FFFFFFFFFFA1000
001CFFFFFFFFFFFFE200
00CFFFFFB99AEFFFFD10
05FFFFB2000008FFFF90
0BFFFD000000009FFFF1
0DFFF9000000003FFFF4
0DFFF9000000001BBBB4
0AFFFE20000000000000
05FFFFD4000000000000
00BFFFFFC61000000000
001CFFFFFFFC71000000
00019FFFFFFFFFA20000
000003AFFFFFFFFF7000
000000016BFFFFFFF900
000000000016CFFFFF60
00000000000006FFFFD0
000000000000006FFFF3
AFFFC0000000001FFFF5
8FFFE0000000001FFFF6
4FFFF7000000005FFFF4
0CFFFF71000004EFFFE0
03EFFFFEA889CFFFFF70
003EFFFFFFFFFFFFF900
00019FFFFFFFFFFE6000
0000027BDFFEDA610000
ENDCHAR
STARTCHAR scaron
ENCODING 353
SWIDTH 516 0
DWIDTH 19 0
BBX 16 27 1 0
BITMAP
004EFF80004FFF80
0004EFF704FFF800
00004EFF9EFF7000
000004EFFFF70000
0000004EFF700000
0000000000000000
0000000000000000
0000000000000000
000049DEFEC82000
001BFFFFFFFFF800
01DFFFFFFFFFFFA0
08FFFF9446CFFFF5
0EFFF700001CFFFB
0FFFF3000006DDDB
0EFFF90000000000
08FFFFD952000000
01BFFFFFFFD93000
0007EFFFFFFFFB20
000016AEFFFFFFD2
0000000026CFFFF9
122210000009FFFE
9FFFA0000003FFFF
6FFFE3000007FFFE
1DFFFE85359FFFF8
03EFFFFFFFFFFFD1
003CFFFFFFFFFB10
000049CEFEC93000
ENDCHAR
STARTCHAR uni0162
ENCODING 354
SWIDTH 606 0
DWIDTH 22 0
BBX 22 34 0 -8
BITMAP
3FFFFFFFFFFFFFFFFFFFF1
3FFFFFFFFFFFFFFFFFFFF1
3FFFFFFFFFFFFFFFFFFFF1
29999999BFFFFA99999991
000000004FFFF200000000
000000004FFFF200000000
000000004FFFF200000000
000000004FFFF200000000
000000004FFFF200000000
000000004FFFF200000000
000000004FFFF200000000
000000004FFFF200000000
000000004FFFF200000000
000000004FFFF200000000
000000004FFFF200000000
000000004FFFF200000000
000000004FFFF200000000
000000004FFFF200000000
000000004FFFF200000000
000000004FFFF200000000
000000004FFFF200000000
000000004FFFF200000000
000000004FFFF200000000
000000004FFFF200000000
000000004FFFF200000000
000000004FFFF200000000
000000000AFF6000000000
000000000EFFE910000000
0000000018CFFF90000000
00000000000AFFD0000000
00000000000AFFE0000000
0000000006AFFFA0000000
000000000DFFFD10000000
000000000CEB7100000000
ENDCHAR
STARTCHAR uni0163
ENCODING 355
SWIDTH 332 0
DWIDTH 12 0
BBX 12 32 0 -8
BITMAP
000BFFF80000
000BFFF80000
000BFFF80000
000BFFF80000
000BFFF80000
DFFFFFFFFFE0
DFFFFFFFFFE0
DFFFFFFFFFE0
233CFFF93320
000BFFF80000
000BFFF80000
000BFFF80000
000BFFF80000
000BFFF80000
000BFFF80000
000BFFF80000
000BFFF80000
000BFFF80000
000BFFF80000
000AFFFB0000
0008FFFFB8A0
0003FFFFFFF0
00009FFFFFF0
000006CEFDB0
000000BFF500
000000EFFE80
0000019CFFF8
00000000BFFC
00000000BFFD
0000007BFFF9
000000EFFFC1
000000DEB600
ENDCHAR
STARTCHAR Tcaron
ENCODING 356
SWIDTH 606 0
DWIDTH 22 0
BBX 22 32 0 0
BITMAP
00002DFFB0002EFFB00000
000002DFFB02DFFB000000
0000002DFFADFFB0000000
00000002DFFFFA00000000
000000002DFFA000000000
0000000000000000000000
3FFFFFFFFFFFFFFFFFFFF1
3FFFFFFFFFFFFFFFFFFFF1
3FFFFFFFFFFFFFFFFFFFF1
29999999BFFFFA99999991
000000004FFFF200000000
000000004FFFF200000000
000000004FFFF200000000
000000004FFFF200000000
000000004FFFF200000000
000000004FFFF200000000
000000004FFFF200000000
000000004FFFF200000000
000000004FFFF200000000
000000004FFFF200000000
000000004FFFF200000000
000000004FFFF200000000
000000004FFFF200000000
000000004FFFF200000000
000000004FFFF200000000
000000004FFFF200000000
000000004FFFF200000000
000000004FFFF200000000
000000004FFFF200000000
000000004FFFF200000000
000000004FFFF200000000
000000004FFFF200000000
ENDCHAR
STARTCHAR tcaron
ENCODING 357
SWIDTH 352 0
DWIDTH 13 0
BBX 15 30 0 0
BITMAP
00000000005FFF30
00000000005FFF20
00000000006FFF10
0000000000AFFC00
0000000001EFF600
0000000007FFC000
000BFFF8006C2000
000BFFF800000000
000BFFF800000000
000BFFF800000000
000BFFF800000000
DFFFFFFFFFE00000
DFFFFFFFFFE00000
DFFFFFFFFFE00000
233CFFF933200000
000BFFF800000000
000BFFF800000000
000BFFF800000000
000BFFF800000000
000BFFF800000000
000BFFF800000000
000BFFF800000000
000BFFF800000000
000BFFF800000000
000BFFF800000000
000AFFFB00000000
0008FFFFB8A00000
0003FFFFFFF00000
00009FFFFFF00000
000006CEFDB00000
ENDCHAR
STARTCHAR Tbar
ENCODING 358
SWIDTH 606 0
DWIDTH 22 0
BBX 22 26 0 0
BITMAP
3FFFFFFFFFFFFFFFFFFFF1
3FFFFFFFFFFFFFFFFFFFF1
3FFFFFFFFFFFFFFFFFFFF1
29999999BFFFFA99999991
000000004FFFF200000000
000000004FFFF200000000
000000004FFFF200000000
000000004FFFF200000000
000000004FFFF200000000
00000FFFFFFFFFFFB00000
00000FFFFFFFFFFFB00000
00000FFFFFFFFFFFB00000
000000004FFFF200000000
000000004FFFF200000000
000000004FFFF200000000
000000004FFFF200000000
000000004FFFF200000000
000000004FFFF200000000
000000004FFFF200000000
000000004FFFF200000000
000000004FFFF200000000
000000004FFFF200000000
000000004FFFF200000000
000000004FFFF200000000
000000004FFFF200000000
000000004FFFF200000000
ENDCHAR
STARTCHAR tbar
ENCODING 359
SWIDTH 332 0
DWIDTH 12 0
BBX 13 24 -1 0
BITMAP
0000BFFF800000
0000BFFF800000
0000BFFF800000
0000BFFF800000
0000BFFF800000
0DFFFFFFFFFE00
0DFFFFFFFFFE00
0DFFFFFFFFFE00
0233CFFF933200
0000BFFF800000
0000BFFF800000
6FFFFFFFFFFF50
6FFFFFFFFFFF50
6FFFFFFFFFFF50
0000BFFF800000
0000BFFF800000
0000BFFF800000
0000BFFF800000
0000BFFF800000
0000AFFFB00000
00008FFFFB8A00
00004FFFFFFF00
000009FFFFFF00
0000006CEFDB00
ENDCHAR
STARTCHAR Utilde
ENCODING 360
SWIDTH 651 0
DWIDTH 23 0
BBX 20 33 2 0
BITMAP
00000000000001100000
000007CD810008FF2000
00009FFFFD502EFF0000
0003FFFFFFFFFFFA0000
0008FF814CFFFFE20000
0009EE00008DFB300000
00000000000000000000
CFFF90000000002FFFF5
CFFF90000000002FFFF5
CFFF90000000002FFFF5
CFFF90000000002FFFF5
CFFF90000000002FFFF5
CFFF90000000002FFFF5
CFFF90000000002FFFF5
CFFF90000000002FFFF5
CFFF90000000002FFFF5
CFFF90000000002FFFF5
CFFF90000000002FFFF5
CFFF90000000002FFFF5
CFFF90000000002FFFF5
CFFF90000000002FFFF5
CFFF90000000002FFFF5
CFFF90000000002FFFF5
CFFF90000000002FFFF5
CFFFA0000000002FFFF4
AFFFB0000000004FFFF3
8FFFE1000000007FFFF1
4FFFF700000001EFFFB0
0CFFFF7000002CFFFF40
03FFFFFEA99BFFFFFA00
005FFFFFFFFFFFFFB100
0003CFFFFFFFFFE70000
0000049CEFEDA7100000
ENDCHAR
STARTCHAR utilde
ENCODING 361
SWIDTH 555 0
DWIDTH 20 0
BBX 16 28 2 0
BITMAP
0000000000001000
0004BDA20004FF60
005FFFFF810BFF40
00EFFFFFFFEFFE10
04FFB12AFFFFF500
05EF40005CFD5000
0000000000000000
0000000000000000
0000000000000000
EFFF50000006FFFD
EFFF50000006FFFD
EFFF50000006FFFD
EFFF50000006FFFD
EFFF50000006FFFD
EFFF50000006FFFD
EFFF50000006FFFD
EFFF50000006FFFD
EFFF50000006FFFD
EFFF50000006FFFD
EFFF50000006FFFD
EFFF50000006FFFD
DFFF60000006FFFD
CFFF90000009FFFD
9FFFE200006FFFFD
5FFFFE989DFFFFFD
0CFFFFFFFFFFFFFD
02DFFFFFFFD6FFFD
0017CEFEB603FFFD
ENDCHAR
STARTCHAR Umacron
ENCODING 362
SWIDTH 651 0
DWIDTH 23 0
BBX 20 31 2 0
BITMAP
0003CCCCCCCCCCCA0000
0004FFFFFFFFFFFC0000
0004FFFFFFFFFFFC0000
00000000000000000000
00000000000000000000
CFFF90000000002FFFF5
CFFF90000000002FFFF5
CFFF90000000002FFFF5
CFFF90000000002FFFF5
CFFF90000000002FFFF5
CFFF90000000002FFFF5
CFFF90000000002FFFF5
CFFF90000000002FFFF5
CFFF90000000002FFFF5
CFFF90000000002FFFF5
CFFF90000000002FFFF5
CFFF90000000002FFFF5
CFFF90000000002FFFF5
CFFF90000000002FFFF5
CFFF90000000002FFFF5
CFFF90000000002FFFF5
CFFF90000000002FFFF5
CFFFA0000000002FFFF4
AFFFB0000000004FFFF3
8FFFE1000000007FFFF1
4FFFF700000001EFFFB0
0CFFFF7000002CFFFF40
03FFFFFEA99BFFFFFA00
005FFFFFFFFFFFFFB100
0003CFFFFFFFFFE70000
0000049CEFEDA7100000
ENDCHAR
STARTCHAR umacron
ENCODING 363
SWIDTH 555 0
DWIDTH 20 0
BBX 16 25 2 0
BITMAP
00CCCCCCCCCCCC10
00FFFFFFFFFFFF10
00FFFFFFFFFFFF10
0000000000000000
0000000000000000
0000000000000000
EFFF50000006FFFD
EFFF50000006FFFD
EFFF50000006FFFD
EFFF50000006FFFD
EFFF50000006FFFD
EFFF50000006FFFD
EFFF50000006FFFD
EFFF50000006FFFD
EFFF50000006FFFD
EFFF50000006FFFD
EFFF50000006FFFD
EFFF50000006FFFD
DFFF60000006FFFD
CFFF90000009FFFD
9FFFE200006FFFFD
5FFFFE989DFFFFFD
0CFFFFFFFFFFFFFD
02DFFFFFFFD6FFFD
0017CEFEB603FFFD
ENDCHAR
STARTCHAR Ubreve
ENCODING 364
SWIDTH 651 0
DWIDTH 23 0
BBX 20 32 2 0
BITMAP
0000DFF50000DFF60000
0000AFFB0004FFF30000
00004FFFC8AFFFB00000
000007FFFFFFFD200000
0000003ADFEC71000000
00000000000000000000
CFFF90000000002FFFF5
CFFF90000000002FFFF5
CFFF90000000002FFFF5
CFFF90000000002FFFF5
CFFF90000000002FFFF5
CFFF90000000002FFFF5
CFFF90000000002FFFF5
CFFF90000000002FFFF5
CFFF90000000002FFFF5
CFFF90000000002FFFF5
CFFF90000000002FFFF5
CFFF90000000002FFFF5
CFFF90000000002FFFF5
CFFF90000000002FFFF5
CFFF90000000002FFFF5
CFFF90000000002FFFF5
CFFF90000000002FFFF5
CFFFA0000000002FFFF4
AFFFB0000000004FFFF3
8FFFE1000000007FFFF1
4FFFF700000001EFFFB0
0CFFFF7000002CFFFF40
03FFFFFEA99BFFFFFA00
005FFFFFFFFFFFFFB100
0003CFFFFFFFFFE70000
0000049CEFEDA7100000
ENDCHAR
STARTCHAR ubreve
ENCODING 365
SWIDTH 555 0
DWIDTH 20 0
BBX 16 27 2 0
BITMAP
009FF900009FFA00
006FFE1001EFF700
001EFFE99EFFE100
0004EFFFFFFE4000
000028DFFD920000
0000000000000000
0000000000000000
0000000000000000
EFFF50000006FFFD
EFFF50000006FFFD
EFFF50000006FFFD
EFFF50000006FFFD
EFFF50000006FFFD
EFFF50000006FFFD
EFFF50000006FFFD
EFFF50000006FFFD
EFFF50000006FFFD
EFFF50000006FFFD
EFFF50000006FFFD
EFFF50000006FFFD
DFFF60000006FFFD
CFFF90000009FFFD
9FFFE200006FFFFD
5FFFFE989DFFFFFD
0CFFFFFFFFFFFFFD
02DFFFFFFFD6FFFD
0017CEFEB603FFFD
ENDCHAR
STARTCHAR Uring
ENCODING 366
SWIDTH 651 0
DWIDTH 23 0
BBX 20 35 2 0
BITMAP
000000017A9400000000
0000002DFFFF70000000
000000BF813EF3000000
000001FE0006F8000000
000002FD0005F9000000
000000EF400BF6000000
0000006FFBDFC0000000
00000005CFE910000000
00000000000000000000
CFFF90000000002FFFF5
CFFF90000000002FFFF5
CFFF90000000002FFFF5
CFFF90000000002FFFF5
CFFF90000000002FFFF5
CFFF90000000002FFFF5
CFFF90000000002FFFF5
CFFF90000000002FFFF5
CFFF90000000002FFFF5
CFFF90000000002FFFF5
CFFF90000000002FFFF5
CFFF90000000002FFFF5
CFFF90000000002FFFF5
CFFF90000000002FFFF5
CFFF90000000002FFFF5
CFFF90000000002FFFF5
CFFF90000000002FFFF5
CFFFA0000000002FFFF4
AFFFB0000000004FFFF3
8FFFE1000000007FFFF1
4FFFF700000001EFFFB0
0CFFFF7000002CFFFF40
03FFFFFEA99BFFFFFA00
005FFFFFFFFFFFFFB100
0003CFFFFFFFFFE70000
0000049CEFEDA7100000
ENDCHAR
STARTCHAR uring
ENCODING 367
SWIDTH 555 0
DWIDTH 20 0
BBX 16 29 2 0
BITMAP
0000005995000000
00000BFFFFB00000
00007FC22BF70000
0000CF3002FC0000
0000DF2001FD0000
0000AF8007FA0000
00002EFCBFE20000
000003BEEB300000
0000000000000000
0000000000000000
EFFF50000006FFFD
EFFF50000006FFFD
EFFF50000006FFFD
EFFF50000006FFFD
EFFF50000006FFFD
EFFF50000006FFFD
EFFF50000006FFFD
EFFF50000006FFFD
EFFF50000006FFFD
EFFF50000006FFFD
EFFF50000006FFFD
EFFF50000006FFFD
DFFF60000006FFFD
CFFF90000009FFFD
9FFFE200006FFFFD
5FFFFE989DFFFFFD
0CFFFFFFFFFFFFFD
02DFFFFFFFD6FFFD
0017CEFEB603FFFD
ENDCHAR
STARTCHAR Uhungarumlaut
ENCODING 368
SWIDTH 651 0
DWIDTH 23 0
BBX 20 32 2 0
BITMAP
00000007FFF802EFFE20
0000003FFFB01DFFE300
000000CFFE11CFFE4000
000008FFF40BFFF40000
000009BE703ACE500000
00000000000000000000
CFFF90000000002FFFF5
CFFF90000000002FFFF5
CFFF90000000002FFFF5
CFFF90000000002FFFF5
CFFF90000000002FFFF5
CFFF90000000002FFFF5
CFFF90000000002FFFF5
CFFF90000000002FFFF5
CFFF90000000002FFFF5
CFFF90000000002FFFF5
CFFF90000000002FFFF5
CFFF90000000002FFFF5
CFFF90000000002FFFF5
CFFF90000000002FFFF5
CFFF90000000002FFFF5
CFFF90000000002FFFF5
CFFF90000000002FFFF5
CFFFA0000000002FFFF4
AFFFB0000000004FFFF3
8FFFE1000000007FFFF1
4FFFF700000001EFFFB0
0CFFFF7000002CFFFF40
03FFFFFEA99BFFFFFA00
005FFFFFFFFFFFFFB100
0003CFFFFFFFFFE70000
0000049CEFEDA7100000
ENDCHAR
STARTCHAR uhungarumlaut
ENCODING 369
SWIDTH 555 0
DWIDTH 20 0
BBX 17 27 2 0
BITMAP
000003FFFC11CFFF50
00001DFFE20AFFF600
00008FFF409FFF7000
0004FFF807FFF80000
0007BDB019CE900000
000000000000000000
000000000000000000
000000000000000000
EFFF50000006FFFD00
EFFF50000006FFFD00
EFFF50000006FFFD00
EFFF50000006FFFD00
EFFF50000006FFFD00
EFFF50000006FFFD00
EFFF50000006FFFD00
EFFF50000006FFFD00
EFFF50000006FFFD00
EFFF50000006FFFD00
EFFF50000006FFFD00
EFFF50000006FFFD00
DFFF60000006FFFD00
CFFF90000009FFFD00
9FFFE200006FFFFD00
5FFFFE989DFFFFFD00
0CFFFFFFFFFFFFFD00
02DFFFFFFFD6FFFD00
0017CEFEB603FFFD00
ENDCHAR
STARTCHAR Uogonek
ENCODING 370
SWIDTH 651 0
DWIDTH 23 0
BBX 20 32 2 -6
BITMAP
CFFF90000000002FFFF5
CFFF90000000002FFFF5
CFFF90000000002FFFF5
CFFF90000000002FFFF5
CFFF90000000002FFFF5
CFFF90000000002FFFF5
CFFF90000000002FFFF5
CFFF90000000002FFFF5
CFFF90000000002FFFF5
CFFF90000000002FFFF5
CFFF90000000002FFFF5
CFFF90000000002FFFF5
CFFF90000000002FFFF5
CFFF90000000002FFFF5
CFFF90000000002FFFF5
CFFF90000000002FFFF5
CFFF90000000002FFFF5
CFFFA0000000002FFFF5
AFFFB0000000004FFFF3
8FFFE1000000007FFFF1
4FFFF700000001EFFFB0
0CFFFF7000002CFFFF50
03FFFFFEA99BFFFFFA00
005FFFFFFFFFFFFFB100
0003CFFFFFFFFFE80000
0000049CEFFFFC200000
0000000007FFD1000000
000000000DFF60000000
000000001FFF70110000
000000000EFFFDF40000
0000000008FFFFF60000
00000000006CEDA30000
ENDCHAR
STARTCHAR uogonek
ENCODING 371
SWIDTH 555 0
DWIDTH 20 0
BBX 16 26 2 -7
BITMAP
EFFF50000006FFFD
EFFF50000006FFFD
EFFF50000006FFFD
EFFF50000006FFFD
EFFF50000006FFFD
EFFF50000006FFFD
EFFF50000006FFFD
EFFF50000006FFFD
EFFF50000006FFFD
EFFF50000006FFFD
EFFF50000006FFFD
EFFF50000006FFFD
DFFF60000006FFFD
CFFF90000009FFFD
9FFFE200006FFFFD
5FFFFE989DFFFFFD
0CFFFFFFFFFFFFFD
02DFFFFFFFFAFFFD
0017CEFEC823FFFD
00000000002CFF91
0000000001DFF700
0000000007FFC000
000000000BFFC001
000000000AFFFEE9
0000000004FFFFFB
00000000004BEEC5
ENDCHAR
STARTCHAR Wcircumflex
ENCODING 372
SWIDTH 879 0
DWIDTH 32 0
BBX 31 32 0 0
BITMAP
00000000000001BFFC10000000000000
0000000000001CFFFFD2000000000000
000000000002DFFCBFFE300000000000
00000000002DFFC10BFFE40000000000
00000000007BDC1001BDB90000000000
00000000000000000000000000000000
1FFFF500000001FFFE000000007FFFE0
0CFFF800000004FFFF30000000AFFFA0
09FFFB00000008FFFF70000000DFFF70
05FFFE0000000CFFFFB0000001FFFF40
02FFFF2000001FFFFFE0000004FFFF00
00EFFF6000004FFFFFF3000007FFFC00
00AFFF9000008FFFFFF700000BFFF800
007FFFC00000CFFDDFFA00000EFFF500
003FFFE00001FFF99FFE00002FFFF100
000FFFF30004FFF55FFF30005FFFD000
000CFFF60008FFF12FFF60008FFFA000
0008FFF9000BFFC00DFFA000BFFF6000
0005FFFC001FFF8009FFE000EFFF3000
0001FFFF004FFF4005FFF302FFFE0000
0000DFFF308FFF1001FFF605FFFB0000
0000AFFF60BFFC0000CFFA08FFF80000
00006FFF91FFF800009FFE0BFFF40000
00003FFFC4FFF400005FFF2EFFF10000
00000EFFF8FFE000001FFF8FFFC00000
00000BFFFEFFB000000CFFEFFF900000
000008FFFFFF70000008FFFFFF600000
000004FFFFFF30000004FFFFFF200000
000001FFFFFE00000001FFFFFE000000
000000CFFFFA00000000CFFFFA000000
0000009FFFF6000000008FFFF7000000
0000005FFFF2000000004FFFF4000000
ENDCHAR
STARTCHAR wcircumflex
ENCODING 373
SWIDTH 743 0
DWIDTH 27 0
BBX 26 27 0 0
BITMAP
000000000008FFE30000000000
00000000009FFFFE4000000000
000000001AFFE9FFF500000000
00000001CFFE308FFF60000000
00000005ACE30009EC92000000
00000000000000000000000000
00000000000000000000000000
00000000000000000000000000
4FFFD0000006FFF1000003FFFE
1FFFF200000BFFF6000006FFFA
0BFFF500001FFFFA00000AFFF6
07FFF900005FFFFE00000DFFF2
03FFFC00009FFFFF40002FFFD0
00EFFF1000EFFFFF90005FFF90
00AFFF4003FFFAFFD0009FFF50
006FFF8008FFD3FFF300CFFF10
001FFFB00CFF80DFF701FFFC00
000CFFF02FFF309FFC04FFF700
0008FFF46FFE004FFF28FFF300
0004FFF7BFF9000EFF6BFFE000
0000FFFBFFF4000AFFBEFFA000
0000BFFFFFE00005FFFFFF6000
00007FFFFFA00001FFFFFF2000
00003FFFFF600000BFFFFD0000
00000EFFFF1000006FFFF90000
00000AFFFB0000001FFFF50000
000005FFF70000000CFFF10000
ENDCHAR
STARTCHAR Ycircumflex
ENCODING 374
SWIDTH 609 0
DWIDTH 22 0
BBX 22 32 0 0
BITMAP
000000001BFFB100000000
00000001CFFFFC20000000
0000002DFFBBFFD2000000
000003EFFC11CFFE300000
000008BDC1001CDB800000
0000000000000000000000
9FFFF500000000006FFFF8
2FFFFC0000000000DFFFE1
09FFFF4000000005FFFF70
01EFFFB00000000CFFFE10
008FFFF30000005FFFF600
001EFFFA000000CFFFD000
0007FFFF300004FFFF6000
0001EFFFA0000BFFFD0000
00006FFFF2003FFFF50000
00000DFFF900AFFFC00000
000006FFFF23FFFF400000
000000DFFF8AFFFB000000
0000005FFFEFFFF4000000
0000000CFFFFFFB0000000
00000004FFFFFF30000000
00000000BFFFFA00000000
000000005FFFF300000000
000000004FFFF300000000
000000004FFFF300000000
000000004FFFF300000000
000000004FFFF300000000
000000004FFFF300000000
000000004FFFF300000000
000000004FFFF300000000
000000004FFFF300000000
000000004FFFF300000000
ENDCHAR
STARTCHAR ycircumflex
ENCODING 375
SWIDTH 486 0
DWIDTH 18 0
BBX 18 34 0 -7
BITMAP
0000001BFFB1000000
000001CFFFFC200000
00002DFFCBFFD20000
0003EFFC11CFFE3000
0008BDC1001CDB8000
000000000000000000
000000000000000000
000000000000000000
9FFFE00000007FFFF1
4FFFF4000000BFFFB0
0DFFF9000001FFFF60
08FFFE000006FFFF10
02FFFF40000AFFFA00
00CFFF90000EFFF500
006FFFD0004FFFE000
001FFFF3009FFF9000
000AFFF800EFFF4000
0005FFFD03FFFD0000
0000EFFF38FFF80000
00009FFF8DFFF30000
00004FFFEFFFC00000
00000DFFFFFF700000
000008FFFFFF200000
000002FFFFFC000000
000000CFFFF6000000
0000006FFFF1000000
0000003FFFB0000000
0000008FFF50000000
000001EFFE10000000
00000AFFF900000000
029AEFFFF300000000
04FFFFFF9000000000
04FFFFFA0000000000
03DFEB500000000000
ENDCHAR
STARTCHAR Ydieresis
ENCODING 376
SWIDTH 609 0
DWIDTH 22 0
BBX 22 32 0 0
BITMAP
0000001100000011000000
000009FF900008FF900000
00002FFFF2002FFFF20000
00002FFFF2001FFFF20000
000007EE600006EE700000
0000000000000000000000
9FFFF500000000006FFFF8
2FFFFC0000000000DFFFE1
09FFFF4000000005FFFF70
01EFFFB00000000CFFFE10
008FFFF30000005FFFF600
001EFFFA000000CFFFD000
0007FFFF300004FFFF6000
0001EFFFA0000BFFFD0000
00006FFFF2003FFFF50000
00000DFFF900AFFFC00000
000006FFFF23FFFF400000
000000DFFF8AFFFB000000
0000005FFFEFFFF4000000
0000000CFFFFFFB0000000
00000004FFFFFF30000000
00000000BFFFFA00000000
000000005FFFF300000000
000000004FFFF300000000
000000004FFFF300000000
000000004FFFF300000000
000000004FFFF300000000
000000004FFFF300000000
000000004FFFF300000000
000000004FFFF300000000
000000004FFFF300000000
000000004FFFF300000000
ENDCHAR
STARTCHAR Zacute
ENCODING 377
SWIDTH 602 0
DWIDTH 22 0
BBX 20 32 1 0
BITMAP
00000000003FFFF90000
0000000001DFFF900000
000000000BFFF9000000
000000007FFFA0000000
000000019BEA00000000
00000000000000000000
8FFFFFFFFFFFFFFFFFF1
8FFFFFFFFFFFFFFFFFF1
8FFFFFFFFFFFFFFFFFF1
4999999999999CFFFF90
0000000000001EFFFD10
000000000000AFFFF400
000000000005FFFF8000
00000000001EFFFD0000
0000000000AFFFF30000
0000000005FFFF800000
000000002EFFFC000000
00000000BFFFF3000000
00000006FFFF80000000
0000002EFFFC00000000
000000BFFFF300000000
000006FFFF7000000000
00002EFFFC0000000000
0000CFFFF20000000000
0007FFFF700000000000
002FFFFC000000000000
00CFFFE2000000000000
07FFFF60000000000000
3FFFFE88888888888884
9FFFFFFFFFFFFFFFFFF7
9FFFFFFFFFFFFFFFFFF7
9FFFFFFFFFFFFFFFFFF7
ENDCHAR
STARTCHAR zacute
ENCODING 378
SWIDTH 502 0
DWIDTH 18 0
BBX 16 27 1 0
BITMAP
000000002EFFFB00
00000000BFFFB000
00000008FFFB1000
0000005FFFC10000
0000008BDC100000
0000000000000000
0000000000000000
0000000000000000
6FFFFFFFFFFFFFF8
6FFFFFFFFFFFFFF8
6FFFFFFFFFFFFFF7
3777777778FFFFD1
000000000AFFFF30
000000007FFFF600
00000003FFFFA000
0000001DFFFD1000
000000BFFFE20000
000007FFFF500000
00004FFFF9000000
0001EFFFC0000000
000BFFFE20000000
008FFFF500000000
04FFFF9000000000
2EFFFE6666666665
8FFFFFFFFFFFFFFD
8FFFFFFFFFFFFFFD
8FFFFFFFFFFFFFFD
ENDCHAR
STARTCHAR Zdotaccent
ENCODING 379
SWIDTH 602 0
DWIDTH 22 0
BBX 20 33 1 0
BITMAP
00000000043000000000
00000001CFFB00000000
00000005FFFF20000000
00000004FFFF20000000
000000008EE600000000
00000000000000000000
00000000000000000000
8FFFFFFFFFFFFFFFFFF1
8FFFFFFFFFFFFFFFFFF1
8FFFFFFFFFFFFFFFFFF1
4999999999999CFFFF90
0000000000001EFFFD10
000000000000AFFFF400
000000000005FFFF8000
00000000001EFFFD0000
0000000000AFFFF30000
0000000005FFFF800000
000000002EFFFC000000
00000000BFFFF3000000
00000006FFFF80000000
0000002EFFFC00000000
000000BFFFF300000000
000006FFFF7000000000
00002EFFFC0000000000
0000CFFFF20000000000
0007FFFF700000000000
002FFFFC000000000000
00CFFFE2000000000000
07FFFF60000000000000
3FFFFE88888888888884
9FFFFFFFFFFFFFFFFFF7
9FFFFFFFFFFFFFFFFFF7
9FFFFFFFFFFFFFFFFFF7
ENDCHAR
STARTCHAR zdotaccent
ENCODING 380
SWIDTH 502 0
DWIDTH 18 0
BBX 16 27 1 0
BITMAP
0000000341000000
000000AFFD100000
000002FFFF500000
000001FFFF400000
0000006EE8000000
0000000000000000
0000000000000000
0000000000000000
6FFFFFFFFFFFFFF8
6FFFFFFFFFFFFFF8
6FFFFFFFFFFFFFF7
3777777778FFFFD1
000000000AFFFF30
000000007FFFF600
00000003FFFFA000
0000001DFFFD1000
000000BFFFE20000
000007FFFF500000
00004FFFF9000000
0001EFFFC0000000
000BFFFE20000000
008FFFF500000000
04FFFF9000000000
2EFFFE6666666665
8FFFFFFFFFFFFFFD
8FFFFFFFFFFFFFFD
8FFFFFFFFFFFFFFD
ENDCHAR
STARTCHAR Zcaron
ENCODING 381
SWIDTH 602 0
DWIDTH 22 0
BBX 20 32 1 0
BITMAP
0001DFFC1002DFFB0000
00001DFFB01DFFB10000
000001DFFBDFFB100000
0000001CFFFFB0000000
00000001CFFB00000000
00000000000000000000
8FFFFFFFFFFFFFFFFFF1
8FFFFFFFFFFFFFFFFFF1
8FFFFFFFFFFFFFFFFFF1
4999999999999CFFFF90
0000000000001EFFFD10
000000000000AFFFF400
000000000005FFFF8000
00000000001EFFFD0000
0000000000AFFFF30000
0000000005FFFF800000
000000002EFFFC000000
00000000BFFFF3000000
00000006FFFF80000000
0000002EFFFC00000000
000000BFFFF300000000
000006FFFF7000000000
00002EFFFC0000000000
0000CFFFF20000000000
0007FFFF700000000000
002FFFFC000000000000
00CFFFE2000000000000
07FFFF60000000000000
3FFFFE88888888888884
9FFFFFFFFFFFFFFFFFF7
9FFFFFFFFFFFFFFFFFF7
9FFFFFFFFFFFFFFFFFF7
ENDCHAR
STARTCHAR zcaron
ENCODING 382
SWIDTH 502 0
DWIDTH 18 0
BBX 16 27 1 0
BITMAP
00BFFD2001CFFD20
000BFFD11BFFD200
0000BFFCBFFD2000
00000BFFFFD10000
000000BFFC100000
0000000000000000
0000000000000000
0000000000000000
6FFFFFFFFFFFFFF8
6FFFFFFFFFFFFFF8
6FFFFFFFFFFFFFF7
3777777778FFFFD1
000000000AFFFF30
000000007FFFF600
00000003FFFFA000
0000001DFFFD1000
000000BFFFE20000
000007FFFF500000
00004FFFF9000000
0001EFFFC0000000
000BFFFE20000000
008FFFF500000000
04FFFF9000000000
2EFFFE6666666665
8FFFFFFFFFFFFFFD
8FFFFFFFFFFFFFFD
8FFFFFFFFFFFFFFD
ENDCHAR
STARTCHAR longs
ENCODING 383
SWIDTH 255 0
DWIDTH 9 0
BBX 10 27 2 0
BITMAP
0004ADFED6
009FFFFFF7
07FFFFFFF5
1EFFFF9782
5FFFF40000
7FFFD00000
8FFFB00000
8FFFB00000
8FFFB00000
8FFFB00000
8FFFB00000
8FFFB00000
8FFFB00000
8FFFB00000
8FFFB00000
8FFFB00000
8FFFB00000
8FFFB00000
8FFFB00000
8FFFB00000
8FFFB00000
8FFFB00000
8FFFB00000
8FFFB00000
8FFFB00000
8FFFB00000
8FFFB00000
ENDCHAR
STARTCHAR uni018F
ENCODING 399
SWIDTH 691 0
DWIDTH 25 0
BBX 22 26 1 0
BITMAP
000037ACEFFDC951000000
003DFFFFFFFFFFFE700000
002FFFFFFFFFFFFFFC2000
000DFFFFDCCEFFFFFFE200
0009A620000027EFFFFC00
000000000000002CFFFF70
0000000000000002EFFFE0
00000000000000006FFFF5
00000000000000001EFFF9
00000000000000000BFFFC
000000000000000008FFFE
000000000000000007FFFF
9FFFFFFFFFFFFFFFFFFFFF
9FFFFFFFFFFFFFFFFFFFFF
8FFFFFFFFFFFFFFFFFFFFF
8FFFE888888888888BFFFE
7FFFD0000000000009FFFC
4FFFF000000000000DFFF9
1FFFF300000000003FFFF5
0CFFFA0000000000BFFFD0
05FFFF5000000008FFFF60
00CFFFF9200002AFFFFC00
002EFFFFFECBDFFFFFE200
0003EFFFFFFFFFFFFD2000
00002AFFFFFFFFFF910000
00000027BDEFEB72000000
ENDCHAR
STARTCHAR florin
ENCODING 402
SWIDTH 351 0
DWIDTH 13 0
BBX 14 34 -1 -7
BITMAP
00000003ADEED7
0000008FFFFFF8
000007FFFFFFF6
00001EFFFFA883
00004FFFF50000
00006FFFE00000
00007FFFC00000
00007FFFC00000
06FFFFFFFFFF50
06FFFFFFFFFF50
06FFFFFFFFFF50
01339FFFC33310
00007FFFC00000
00007FFFC00000
00007FFFC00000
00007FFFC00000
00007FFFC00000
00007FFFC00000
00007FFFC00000
00007FFFC00000
00007FFFC00000
00007FFFC00000
00007FFFC00000
00007FFFC00000
00007FFFC00000
00007FFFC00000
00007FFFC00000
00007FFFC00000
00009FFFB00000
0000DFFF900000
287CFFFF500000
5FFFFFFC000000
6FFFFFD2000000
5EFEC710000000
ENDCHAR
STARTCHAR Ohorn
ENCODING 416
SWIDTH 692 0
DWIDTH 25 0
BBX 25 28 1 0
BITMAP
000000000000000000000ACC60
000000000000000000000DFF60
00000016ADEFDB7200001FFF40
000006EFFFFFFFFF81007FFF10
0000AFFFFFFFFFFFFC26FFF900
000AFFFFFEBBDFFFFFFFFFE100
005FFFFE500002BFFFFFFC2000
01DFFFE20000000AFFFF700000
06FFFF5000000001DFFFA00000
0BFFFC00000000007FFFF10000
1FFFF700000000002FFFF50000
3FFFF400000000000EFFF80000
5FFFF100000000000CFFFA0000
6FFFF000000000000BFFFB0000
7FFFF000000000000AFFFC0000
7FFFF000000000000AFFFC0000
6FFFF000000000000BFFFB0000
5FFFF100000000000CFFFA0000
3FFFF400000000000EFFF80000
1FFFF700000000002FFFF60000
0BFFFC00000000007FFFF20000
06FFFF5000000000DFFFB00000
01EFFFD200000009FFFF500000
006FFFFD500002AFFFFB000000
0009FFFFFDBACFFFFFE2000000
0000AFFFFFFFFFFFFE30000000
000006EFFFFFFFFFA100000000
00000015ADEFEB820000000000
ENDCHAR
STARTCHAR ohorn
ENCODING 417
SWIDTH 577 0
DWIDTH 21 0
BBX 21 21 1 0
BITMAP
0000000000000000023310
00000000000000000AFF30
0000049DEFDA50000BFF20
0001BFFFFFFFFC201EFE00
002DFFFFFFFFFFE3AFF900
00CFFFFC779EFFFFFFD100
08FFFF600002DFFFFA2000
0EFFF90000002FFFF30000
4FFFF20000000AFFF90000
7FFFD000000006FFFD0000
9FFFB000000004FFFF0000
9FFFA000000003FFFF1000
8FFFA000000004FFFF1000
7FFFC000000006FFFE0000
4FFFF10000000AFFFC0000
0EFFF80000002FFFF70000
08FFFF500001CFFFE10000
01DFFFFB779EFFFF600000
003EFFFFFFFFFFF9000000
0002CFFFFFFFFE60000000
0000049DEFEB7100000000
ENDCHAR
STARTCHAR Uhorn
ENCODING 431
SWIDTH 705 0
DWIDTH 25 0
BBX 26 28 2 0
BITMAP
00000000000000000000000444
00000000000000000000002FFF
CFFF90000000002FFFF5003FFF
CFFF90000000002FFFF5006FFC
CFFF90000000002FFFF500CFF8
CFFF90000000002FFFF54BFFF2
CFFF90000000002FFFFFFFFF70
CFFF90000000002FFFFFFFE600
CFFF90000000002FFFFB841000
CFFF90000000002FFFF5000000
CFFF90000000002FFFF5000000
CFFF90000000002FFFF5000000
CFFF90000000002FFFF5000000
CFFF90000000002FFFF5000000
CFFF90000000002FFFF5000000
CFFF90000000002FFFF5000000
CFFF90000000002FFFF5000000
CFFF90000000002FFFF5000000
CFFF90000000002FFFF5000000
CFFFA0000000002FFFF4000000
AFFFB0000000004FFFF3000000
8FFFE1000000007FFFF1000000
4FFFF700000001EFFFB0000000
0CFFFF7000002CFFFF50000000
03FFFFFEA99BFFFFFA00000000
005FFFFFFFFFFFFFB100000000
0003CFFFFFFFFFE80000000000
0000049CEFEDA7100000000000
ENDCHAR
STARTCHAR uhorn
ENCODING 432
SWIDTH 618 0
DWIDTH 22 0
BBX 22 21 2 0
BITMAP
0000000000000000009EE2
000000000000000000AFF2
EFFF50000006FFFD00DFE0
EFFF50000006FFFD29FF90
EFFF50000006FFFFFFFD10
EFFF50000006FFFFFEA200
EFFF50000006FFFD300000
EFFF50000006FFFD000000
EFFF50000006FFFD000000
EFFF50000006FFFD000000
EFFF50000006FFFD000000
EFFF50000006FFFD000000
EFFF50000006FFFD000000
EFFF50000006FFFD000000
DFFF60000006FFFD000000
CFFF90000009FFFD000000
9FFFE200006FFFFD000000
5FFFFE989DFFFFFD000000
0CFFFFFFFFFFFFFD000000
02DFFFFFFFC5FFFD000000
0017CEFEB603FFFD000000
ENDCHAR
STARTCHAR uni01F0
ENCODING 496
SWIDTH 268 0
DWIDTH 10 0
BBX 13 33 -2 -7
BITMAP
2DFFA0003EFFA0
02DFFA02EFFA00
002DFFADFFA000
0002DFFFFA0000
00002DFF900000
00000000000000
00000000000000
00003FFFF10000
00003FFFF10000
00003FFFF10000
00003FFFF10000
00003FFFF10000
00003FFFF10000
00003FFFF10000
00003FFFF10000
00003FFFF10000
00003FFFF10000
00003FFFF10000
00003FFFF10000
00003FFFF10000
00003FFFF10000
00003FFFF10000
00003FFFF10000
00003FFFF10000
00003FFFF10000
00003FFFF10000
00003FFFF10000
00004FFFF00000
0000AFFFD00000
187AFFFF900000
2FFFFFFE200000
3FFFFFE4000000
3DFED820000000
ENDCHAR
STARTCHAR Aringacute
ENCODING 506
SWIDTH 665 0
DWIDTH 24 0
BBX 24 34 0 0
BITMAP
00000000000009FFE5000000
000000000001BFFB20000000
000000000006CE7000000000
000000000027730000000000
0000000004EFFF6000000000
000000000EE32DE100000000
000000002F9007F400000000
000000001FB009F300000000
000000000DFFFFE000000000
0000000009FFFF9000000000
000000000EFFFFD000000000
000000005FFFFFF400000000
00000000AFFFFFFA00000000
00000001FFFEFFFE10000000
00000007FFF9AFFF60000000
0000000CFFF45FFFB0000000
0000003FFFE00EFFF2000000
0000008FFF8009FFF8000000
000000EFFF3004FFFD000000
000004FFFD0000EFFF400000
00000AFFF800008FFF900000
00001FFFF200003FFFE10000
00006FFFC000000DFFF60000
0000CFFF70000007FFFB0000
0002FFFFFFFFFFFFFFFF2000
0008FFFFFFFFFFFFFFFF7000
000DFFFFFFFFFFFFFFFFD000
004FFFF9999999999FFFF300
00AFFFB0000000000CFFF900
01EFFF600000000007FFFE10
06FFFF100000000002FFFF50
0BFFFB000000000000CFFFB0
2FFFF60000000000007FFFF2
8FFFF20000000000002FFFF7
ENDCHAR
STARTCHAR aringacute
ENCODING 507
SWIDTH 541 0
DWIDTH 19 0
BBX 17 29 1 0
BITMAP
0000000000AFFE4000
000000001CFFA10000
000000007CE6000000
000000027720000000
0000005FFFF5000000
000001ED22DE000000
000003F8008F300000
000002FA00AF200000
000000BFAAFB000000
00000019EE91000000
000027BDFEDA500000
0008FFFFFFFFFC2000
00BFFFFFFFFFFFD100
08FFFFB646AFFFF800
0DFFF9000008FFFE00
066662000002FFFF20
000000000001FFFF30
000038BDEFFFFFFF30
002BFFFFFFFFFFFF30
02EFFFFEBAABFFFF30
0BFFFD400001FFFF30
2FFFF3000001FFFF30
5FFFE0000001FFFF30
6FFFE0000004FFFF30
4FFFF700004EFFFF30
0EFFFFB78BFFFFFF30
05FFFFFFFFFFFFFF50
006FFFFFFFF6DFFF70
00029DEED9209FFFC0
ENDCHAR
STARTCHAR AEacute
ENCODING 508
SWIDTH 939 0
DWIDTH 34 0
BBX 33 33 0 0
BITMAP
00000000000000000BFFFE200000000000
00000000000000007FFFE2000000000000
0000000000000004FFFE30000000000000
000000000000001EFFE300000000000000
000000000000005ACE3000000000000000
0000000000000000000000000000000000
0000000000000000000000000000000000
00000000000000CFFFFFFFFFFFFFFFFE00
00000000000005FFFFFFFFFFFFFFFFFE00
0000000000000DFFFFFFFFFFFFFFFFFE00
0000000000007FFFFFFFC7777777777700
000000000001EFFFEFFF90000000000000
000000000009FFFC9FFFA0000000000000
00000000003FFFF49FFFB0000000000000
0000000000BFFFB08FFFB0000000000000
0000000004FFFF307FFFC0000000000000
000000000DFFFA007FFFC0000000000000
000000006FFFF2006FFFD0000000000000
00000001EFFF90005FFFFFFFFFFFFF8000
00000008FFFE20005FFFFFFFFFFFFF8000
0000002FFFF800004FFFFFFFFFFFFF8000
000000AFFFE100004FFFF7777777774000
000004FFFF7000003FFFF1000000000000
00000CFFFFFFFFFFFFFFF2000000000000
00006FFFFFFFFFFFFFFFF2000000000000
0001DFFFFFFFFFFFFFFFF3000000000000
0008FFFFCCCCCCCCCFFFF4000000000000
002EFFFC000000000FFFF4000000000000
00AFFFF4000000000EFFF5000000000000
03FFFFB0000000000EFFFA777777777770
0BFFFF30000000000DFFFFFFFFFFFFFFF0
5FFFFB00000000000CFFFFFFFFFFFFFFF0
DFFFF300000000000CFFFFFFFFFFFFFFF0
ENDCHAR
STARTCHAR aeacute
ENCODING 509
SWIDTH 844 0
DWIDTH 30 0
BBX 29 27 1 0
BITMAP
000000000000001EFFFB0000000000
00000000000000BFFFB10000000000
00000000000008FFFC100000000000
0000000000004FFFC1000000000000
0000000000008BDC10000000000000
000000000000000000000000000000
000000000000000000000000000000
000000000000000000000000000000
000038CEFED9300018CEFEB7100000
001AFFFFFFFFF906EFFFFFFFE50000
01CFFFFFFFFFFFDFFFFFFFFFFF6000
09FFFFE978DFFFFFFFD878EFFFF200
0EFFFB10001CFFFFFA00001DFFF900
2DEFF3000005FFFFE1000004FFFE00
000010000002FFFF80000001FFFF20
000000000001FFFF40000000EFFF40
00027BDEFFFFFFFFFFFFFFFFFFFF50
019FFFFFFFFFFFFFFFFFFFFFFFFF50
0BFFFFFFEEEEFFFFFFFFFFFFFFFF50
5FFFFC410001FFFF30000000000000
9FFFC0000001FFFF60000000000000
BFFF80000001FFFFD1000000000000
AFFFC0000018FFFFFB10000006B000
6FFFFC6459EFFFFFFFEA767AEFF500
0DFFFFFFFFFFFB8FFFFFFFFFFFFB00
02DFFFFFFFFE8005EFFFFFFFFFC300
0006BEFEDB71000016ADEFDB830000
ENDCHAR
ENDFONT
